<svg width="638" height="493" viewBox="0 0 638 493" fill="none" xmlns="http://www.w3.org/2000/svg">
<path d="M164.547 370.5C164.547 370.5 117.647 310 112.047 204.5C106.447 98.9996 138.147 73.9996 131.947 60.0996C125.747 46.1996 64.4469 38.6996 52.7469 38.2996C41.0469 37.8996 38.8469 50.0996 36.7469 67.6996C34.6469 85.3996 21.2469 155.9 62.0469 251.5C102.847 347.1 163.247 386.1 163.247 386.1C163.247 386.1 173.647 384.2 164.547 370.5Z" fill="url(#paint0_linear_1249_2347)"/>
<g style="mix-blend-mode:overlay" opacity="0.5">
<path d="M72.7468 262.3C31.9468 166.7 45.3468 96.0996 47.4468 78.4996C49.5468 60.7996 51.7468 48.6996 63.4468 49.0996C72.7468 49.3996 113.247 54.1996 132.647 63.0996C132.547 61.9996 132.347 61.0996 131.847 60.0996C125.647 46.1996 64.3468 38.6996 52.6468 38.2996C40.9468 37.8996 38.7468 50.0996 36.6468 67.6996C34.5468 85.3996 21.1468 155.9 61.9468 251.5C86.9468 310 119.147 347.3 140.547 367.4C120.047 345.8 93.8468 311.6 72.7468 262.2V262.3Z" fill="#FFF6CC"/>
</g>
<path d="M473.247 370.5C473.247 370.5 520.147 310 525.747 204.5C531.347 98.9996 499.647 73.9996 505.847 60.0996C512.047 46.1996 573.347 38.6996 585.047 38.2996C596.747 37.8996 598.947 50.0996 601.047 67.6996C603.147 85.3996 616.547 155.9 575.747 251.5C534.947 347.1 474.547 386.1 474.547 386.1C474.547 386.1 464.147 384.2 473.247 370.5Z" fill="url(#paint1_linear_1249_2347)"/>
<g style="mix-blend-mode:overlay" opacity="0.5">
<path d="M565.047 262.3C605.847 166.7 592.447 96.0996 590.347 78.4996C588.247 60.7996 586.047 48.6996 574.347 49.0996C565.047 49.3996 524.547 54.1996 505.147 63.0996C505.247 61.9996 505.447 61.0996 505.947 60.0996C512.147 46.1996 573.447 38.6996 585.147 38.2996C596.847 37.8996 599.047 50.0996 601.147 67.6996C603.247 85.3996 616.647 155.9 575.847 251.5C550.847 310 518.647 347.3 497.247 367.4C517.747 345.8 543.947 311.6 565.047 262.2V262.3Z" fill="#FFF6CC"/>
</g>
<path d="M319.847 0C198.247 0 99.7471 95.8 99.7471 214C99.7471 332.2 198.247 428 319.847 428C441.447 428 539.947 332.2 539.947 214C539.947 95.8 441.447 0 319.847 0Z" fill="url(#paint2_linear_1249_2347)"/>
<path d="M318.347 418.4C198.447 418.4 100.947 325.2 98.3472 209.2C98.3472 210.8 98.3472 212.4 98.3472 214C98.3472 332.2 196.847 428 318.447 428C440.047 428 538.547 332.2 538.547 214C538.547 95.8003 538.547 210.8 538.547 209.2C535.947 325.2 438.447 418.4 318.547 418.4H318.347Z" fill="#FFB797"/>
<g style="mix-blend-mode:overlay" opacity="0.5">
<path d="M319.847 0C198.247 0 99.7471 95.8 99.7471 214C99.7471 332.2 99.8471 219.2 99.9471 221.8C156.047 270.7 233.147 300.9 318.347 300.9C403.547 300.9 483.447 269.6 539.747 219.2C539.747 217.5 539.847 215.8 539.847 214C539.847 95.8 441.347 0 319.747 0H319.847Z" fill="#FFF6CC"/>
</g>
<g style="mix-blend-mode:overlay" opacity="0.5">
<path d="M495.547 84.5C455.347 33.2 391.847 0 320.347 0C248.847 0 184.347 33.7 144.247 85.6C194.047 115.5 254.147 133 318.947 133C383.747 133 445.447 115.1 495.547 84.5Z" fill="#FFF6CC"/>
</g>
<g style="mix-blend-mode:overlay" opacity="0.5">
<path d="M319.847 12.2996C439.247 12.2996 536.447 104.8 539.747 220.2C539.747 218.2 539.947 216.1 539.947 214.1C539.947 95.8996 441.447 0.0996094 319.847 0.0996094C198.247 0.0996094 99.7471 95.8996 99.7471 214.1C99.7471 332.3 99.8471 218.2 99.9471 220.2C103.247 104.9 200.447 12.2996 319.847 12.2996Z" fill="#FFF6CC"/>
</g>
<g style="mix-blend-mode:overlay" opacity="0.5">
<path d="M290.347 14.0999C300.547 13.2999 311.147 17.1999 306.047 21.6999C300.947 26.1999 266.247 46.0999 251.147 33.7999C236.047 21.3999 278.247 15.0999 290.347 14.1999V14.0999Z" fill="#FFF6CC"/>
</g>
<g style="mix-blend-mode:overlay" opacity="0.5">
<path d="M171.247 68.4996C139.147 95.4996 113.247 145.3 113.947 174.5C114.647 203.6 130.147 157.9 138.147 141.4C146.147 124.8 186.347 74.2996 215.447 58.9996C244.547 43.6996 221.347 26.3996 171.247 68.5996V68.4996Z" fill="#FFF6CC"/>
</g>
<path d="M319.847 54.6992C229.447 54.6992 156.247 125.899 156.247 213.799C156.247 301.699 229.547 372.899 319.847 372.899C410.147 372.899 483.447 301.699 483.447 213.799C483.447 125.899 410.247 54.6992 319.847 54.6992Z" fill="url(#paint3_linear_1249_2347)"/>
<g style="mix-blend-mode:overlay" opacity="0.5">
<path d="M319.647 383.5C224.347 383.5 146.847 308 146.847 215.3C146.847 122.6 224.347 47.0996 319.647 47.0996C414.947 47.0996 492.447 122.6 492.447 215.3C492.447 308 414.947 383.5 319.647 383.5ZM319.647 62.2996C232.747 62.2996 162.147 130.9 162.147 215.3C162.147 299.7 232.847 368.3 319.647 368.3C406.447 368.3 477.147 299.7 477.147 215.3C477.147 130.9 406.447 62.2996 319.647 62.2996Z" fill="#FFF6CC"/>
</g>
<path opacity="0.4" d="M319.847 54.6992C271.847 54.6992 228.647 74.7992 198.747 106.799C227.947 80.3992 267.047 64.2992 310.047 64.2992C400.447 64.2992 473.647 135.499 473.647 223.399C473.647 311.299 457.547 302.199 431.147 330.399C463.347 301.299 483.447 259.899 483.447 213.799C483.447 125.899 410.247 54.6992 319.847 54.6992Z" fill="#723600"/>
<g style="mix-blend-mode:soft-light" filter="url(#filter0_d_1249_2347)">
<path d="M371.731 275.538C340.739 275.538 319.87 248.643 304.633 229.005L302.46 226.208C301.043 224.391 299.644 222.575 298.256 220.772C283.841 202.057 274.389 190.587 262.269 190.587C248.66 190.587 237.587 201.66 237.587 215.269H202C202 182.036 229.036 155 262.269 155C292.514 155 310.543 178.406 326.449 199.056C327.796 200.804 329.151 202.567 330.527 204.329L332.749 207.187C344.074 221.784 358.17 239.949 371.731 239.949C385.34 239.949 396.413 228.877 396.413 215.268H432C432 248.502 404.963 275.538 371.731 275.538Z" fill="white"/>
<path d="M357.96 234.585C348.981 228.103 340.256 216.865 332.748 207.188L330.526 204.33C329.152 202.567 327.795 200.806 326.448 199.057C320.596 191.46 314.453 183.492 307.523 176.451L282.388 201.586C287.189 206.548 292.296 213.04 298.254 220.774C299.642 222.576 301.041 224.391 302.458 226.209L304.631 229.006C312.329 238.929 321.47 250.699 332.623 259.922L357.96 234.585Z" fill="white"/>
<path d="M262.269 275.538C229.036 275.538 202 248.502 202 215.269H237.587C237.587 228.878 248.66 239.95 262.269 239.95C274.389 239.95 283.841 228.48 298.256 209.766C299.644 207.963 301.043 206.148 302.46 204.33L304.633 201.533C319.87 181.895 340.739 155 371.731 155C404.963 155 432 182.036 432 215.269H396.413C396.413 201.66 385.34 190.587 371.731 190.587C358.17 190.587 344.074 208.753 332.749 223.35L330.527 226.208C329.153 227.971 327.796 229.732 326.449 231.481C310.543 252.132 292.514 275.538 262.269 275.538Z" fill="white"/>
</g>
<path opacity="0.4" d="M217.947 307.899C217.947 205.199 291.247 148.799 381.547 148.799C471.847 148.799 452.547 160.699 479.947 180.799C464.347 108.799 398.547 54.6992 319.847 54.6992C241.147 54.6992 156.247 125.899 156.247 213.799C156.247 301.699 181.847 311.899 221.547 340.999C219.247 330.299 218.047 319.299 218.047 307.899H217.947Z" fill="#723600"/>
<path d="M319.847 364.199C231.047 364.199 158.847 295.399 156.347 209.699C156.347 211.199 156.247 212.699 156.247 214.299C156.247 302.199 229.547 373.399 319.847 373.399C410.147 373.399 483.447 302.199 483.447 214.299C483.447 126.399 483.447 211.199 483.347 209.699C480.847 295.499 408.647 364.199 319.847 364.199Z" fill="#FFB797"/>
<path d="M248.947 415.7C248.947 415.7 184.147 391.4 129.847 312.9C75.547 234.4 88.047 200.1 76.647 192.3C65.247 184.5 14.547 207.8 5.34699 213C-3.85301 218.3 0.24699 228.6 6.94699 243.2C13.647 257.8 36.847 318.4 113.547 372.7C190.247 427 255.247 428.4 255.247 428.4C255.247 428.4 262.347 422 248.847 415.7H248.947Z" fill="url(#paint4_linear_1249_2347)"/>
<g style="mix-blend-mode:overlay" opacity="0.5">
<path d="M19.5471 254C12.8471 239.4 8.64709 229 17.9471 223.8C25.7471 219.3 63.5471 201.9 81.7471 201.5C80.5471 197 79.2471 194 76.7471 192.3C65.3471 184.5 14.6471 207.8 5.44709 213C-3.75291 218.3 0.347085 228.6 7.04709 243.2C13.1471 256.5 32.8471 307.9 94.1471 357.9C42.6471 311.5 25.2471 266.3 19.6471 254H19.5471Z" fill="#FFF6CC"/>
</g>
<path d="M388.747 415.7C388.747 415.7 453.547 391.4 507.847 312.9C562.147 234.4 549.647 200.1 561.047 192.3C572.447 184.5 623.147 207.8 632.347 213C641.547 218.3 637.447 228.6 630.747 243.2C624.047 257.8 600.847 318.4 524.147 372.7C447.447 427 382.447 428.4 382.447 428.4C382.447 428.4 375.347 422 388.847 415.7H388.747Z" fill="url(#paint5_linear_1249_2347)"/>
<g style="mix-blend-mode:overlay" opacity="0.5">
<path d="M618.147 254C624.847 239.4 629.047 229 619.747 223.8C611.947 219.3 574.147 201.9 555.947 201.5C557.147 197 558.447 194 560.947 192.3C572.347 184.5 623.047 207.8 632.247 213C641.447 218.3 637.347 228.6 630.647 243.2C624.547 256.5 604.847 307.9 543.547 357.9C595.047 311.5 612.447 266.3 618.047 254H618.147Z" fill="#FFF6CC"/>
</g>
<path d="M318.847 358.6L211.147 425.4L318.847 492.1L426.547 425.4L318.847 358.6Z" fill="url(#paint6_linear_1249_2347)"/>
<g style="mix-blend-mode:overlay" opacity="0.5">
<path d="M318.847 365L421.447 428.6L426.547 425.4L318.847 358.6L211.147 425.4L216.247 428.6L318.847 365Z" fill="#FFF6CC"/>
</g>
<path opacity="0.4" d="M317.247 491.7L424.247 425.4L317.247 359.1V491.7Z" fill="#723600"/>
<g style="mix-blend-mode:overlay" opacity="0.5">
<path d="M318.947 490.8L316.847 410.1L318.847 358.6L214.447 423.3L283.447 441.7L318.947 490.8Z" fill="#FFF6CC"/>
</g>
<g style="mix-blend-mode:overlay" opacity="0.5">
<path d="M318.847 359.899L211.147 425.399L318.847 421.199L426.547 425.399L318.847 359.899Z" fill="#FFF6CC"/>
</g>
<defs>
<filter id="filter0_d_1249_2347" x="196.848" y="155" width="240.304" height="139.49" filterUnits="userSpaceOnUse" color-interpolation-filters="sRGB">
<feFlood flood-opacity="0" result="BackgroundImageFix"/>
<feColorMatrix in="SourceAlpha" type="matrix" values="0 0 0 0 0 0 0 0 0 0 0 0 0 0 0 0 0 0 127 0" result="hardAlpha"/>
<feOffset dy="13.8"/>
<feGaussianBlur stdDeviation="2.576"/>
<feComposite in2="hardAlpha" operator="out"/>
<feColorMatrix type="matrix" values="0 0 0 0 0 0 0 0 0 0 0 0 0 0 0 0 0 0 0.25 0"/>
<feBlend mode="normal" in2="BackgroundImageFix" result="effect1_dropShadow_1249_2347"/>
<feBlend mode="normal" in="SourceGraphic" in2="effect1_dropShadow_1249_2347" result="shape"/>
</filter>
<linearGradient id="paint0_linear_1249_2347" x1="180.12" y1="428.133" x2="57.9035" y2="32.3749" gradientUnits="userSpaceOnUse">
<stop stop-color="#572600"/>
<stop offset="1" stop-color="#BD6E50"/>
</linearGradient>
<linearGradient id="paint1_linear_1249_2347" x1="457.295" y1="433.144" x2="579.512" y2="37.3856" gradientUnits="userSpaceOnUse">
<stop stop-color="#572600"/>
<stop offset="1" stop-color="#BD6E50"/>
</linearGradient>
<linearGradient id="paint2_linear_1249_2347" x1="310.147" y1="-22.6" x2="328.547" y2="425.3" gradientUnits="userSpaceOnUse">
<stop stop-color="#E38250"/>
<stop offset="0.4" stop-color="#BD6E50"/>
<stop offset="1" stop-color="#572600"/>
</linearGradient>
<linearGradient id="paint3_linear_1249_2347" x1="347.947" y1="353.199" x2="303.947" y2="134.799" gradientUnits="userSpaceOnUse">
<stop stop-color="#E38250"/>
<stop offset="0.4" stop-color="#BD6E50"/>
<stop offset="1" stop-color="#572600"/>
</linearGradient>
<linearGradient id="paint4_linear_1249_2347" x1="286.737" y1="454.223" x2="4.76035" y2="207.943" gradientUnits="userSpaceOnUse">
<stop stop-color="#572600"/>
<stop offset="1" stop-color="#BD6E50"/>
</linearGradient>
<linearGradient id="paint5_linear_1249_2347" x1="350.658" y1="447.043" x2="632.635" y2="200.762" gradientUnits="userSpaceOnUse">
<stop stop-color="#572600"/>
<stop offset="1" stop-color="#BD6E50"/>
</linearGradient>
<linearGradient id="paint6_linear_1249_2347" x1="317.847" y1="375.4" x2="322.847" y2="626.3" gradientUnits="userSpaceOnUse">
<stop stop-color="#E38250"/>
<stop offset="0.4" stop-color="#BD6E50"/>
<stop offset="1" stop-color="#572600"/>
</linearGradient>
</defs>
</svg>
