<svg width="710" height="414" viewBox="0 0 710 414" fill="none" xmlns="http://www.w3.org/2000/svg">
<path d="M46.052 25.4688C43.4613 25.4688 41.3618 23.4373 41.3618 20.9302C41.3618 18.4232 43.4613 16.3916 46.052 16.3916C48.6428 16.3916 50.7422 18.4232 50.7422 20.9302C50.7422 23.4373 48.6428 25.4688 46.052 25.4688Z" fill="url(#paint0_linear_827_540)"/>
<path d="M25.3723 25.4688C22.7816 25.4688 20.6822 23.4373 20.6822 20.9302C20.6822 18.4232 22.7816 16.3916 25.3723 16.3916C27.9631 16.3916 30.0625 18.4232 30.0625 20.9302C30.0625 23.4373 27.9631 25.4688 25.3723 25.4688Z" fill="url(#paint1_linear_827_540)"/>
<path d="M4.73561 25.4688C2.14486 25.4688 0.0454388 23.4373 0.0454388 20.9302C0.0454388 18.4232 2.14486 16.3916 4.73561 16.3916C7.32636 16.3916 9.42578 18.4232 9.42578 20.9302C9.42578 23.4373 7.32636 25.4688 4.73561 25.4688Z" fill="url(#paint2_linear_827_540)"/>
<path d="M703.076 325.834C699.235 325.834 696.153 322.852 696.153 319.134C696.153 315.417 699.235 312.435 703.076 312.435C706.918 312.435 710 315.417 710 319.134C710 322.852 706.918 325.834 703.076 325.834Z" fill="url(#paint3_linear_827_540)"/>
<path d="M677.541 80.1924H679.686V147.969H677.541V80.1924Z" fill="url(#paint4_linear_827_540)"/>
<path d="M0 414H2.40015V303.644H667V32.8906H466.835V35.7233H664.65V300.812H0V414Z" fill="url(#paint5_linear_827_540)"/>
<path d="M0.0918579 117.452H2.2359V35.7135H386.605V33.6387H0.0918579V117.452Z" fill="url(#paint6_linear_827_540)"/>
<path d="M66.867 18.8496H407.953V20.9244H66.867V18.8496Z" fill="url(#paint7_linear_827_540)"/>
<path d="M567.421 318.096H703.078V320.171H567.421V318.096Z" fill="url(#paint8_linear_827_540)"/>
<path d="M7.59308 316.007H39.0395L47.3031 323.96H82.9483L90.4972 316.655H129.359L136.461 323.528H222.581L232.363 314.148H7.90579L7.59308 316.007Z" fill="url(#paint9_linear_827_540)"/>
<path d="M91.0348 317.866H128.869L135.926 324.696H223.074L235.402 312.896H7.90735V314.754H7.59464V317.175H38.5497L46.7686 325.128H83.4859L91.0348 317.823V317.866ZM40.1578 315.359H229.327L222.047 322.319H136.954L129.896 315.489H90.0074L82.4585 322.794H47.8407L40.1578 315.359Z" fill="url(#paint10_linear_827_540)"/>
<path d="M47.3926 329.968H84.8692L93.3561 321.799H126.679L134.004 328.888H153.301L150.129 332H49.0007L47.3926 329.968Z" fill="url(#paint11_linear_827_540)"/>
<path d="M156.34 327.679H134.542L127.172 320.547H92.8217L84.3348 328.76H44.8481L48.3769 333.169H150.667L156.34 327.679ZM93.8491 322.967H126.144L133.514 330.1H150.31L149.595 330.791H85.7641L93.8044 323.011L93.8491 322.967Z" fill="url(#paint12_linear_827_540)"/>
<path d="M227.495 323.53L237.143 314.107H267.205L257.691 323.358L227.495 323.53Z" fill="url(#paint13_linear_827_540)"/>
<path d="M258.184 324.566L270.199 312.938H236.564L224.414 324.782L258.139 324.566H258.184ZM264.214 315.316L257.156 322.145L230.489 322.318L237.636 315.359H264.169L264.214 315.316Z" fill="url(#paint14_linear_827_540)"/>
<path d="M262.47 323.53L272.118 314.107H302.18L292.665 323.358L262.47 323.53Z" fill="url(#paint15_linear_827_540)"/>
<path d="M293.156 324.566L305.172 312.938H271.537L259.387 324.782L293.111 324.566H293.156ZM299.186 315.316L292.129 322.145L265.462 322.318L272.609 315.359H299.142L299.186 315.316Z" fill="url(#paint16_linear_827_540)"/>
<path d="M297.446 323.53L307.095 314.107H337.156L327.642 323.358L297.446 323.53Z" fill="url(#paint17_linear_827_540)"/>
<path d="M328.133 324.566L340.148 312.938H306.513L294.364 324.782L328.088 324.566H328.133ZM334.163 315.316L327.105 322.145L300.438 322.318L307.585 315.359H334.118L334.163 315.316Z" fill="url(#paint18_linear_827_540)"/>
<path d="M332.419 323.53L342.023 314.107H372.129L362.57 323.358L332.419 323.53Z" fill="url(#paint19_linear_827_540)"/>
<path d="M363.105 324.566L375.121 312.938H341.486L329.336 324.782L363.061 324.566H363.105ZM369.091 315.316L362.033 322.145L335.366 322.318L342.513 315.359H369.046L369.091 315.316Z" fill="url(#paint20_linear_827_540)"/>
<path d="M367.395 323.53L376.998 314.107H448.914L439.355 323.358L367.395 323.53Z" fill="url(#paint21_linear_827_540)"/>
<path d="M439.891 324.566L451.906 312.938H376.506L364.401 324.782L439.891 324.609V324.566ZM445.876 315.316L438.818 322.145L370.342 322.318L377.489 315.316H445.831H445.876Z" fill="url(#paint22_linear_827_540)"/>
<path d="M444.138 323.53L453.786 314.107H483.848L474.333 323.358L444.138 323.53Z" fill="url(#paint23_linear_827_540)"/>
<path d="M474.867 324.566L486.883 312.938H453.248L441.098 324.782L474.822 324.566H474.867ZM480.853 315.316L473.795 322.145L447.128 322.318L454.275 315.359H480.808L480.853 315.316Z" fill="url(#paint24_linear_827_540)"/>
<path d="M474.778 330.879H157.634V329.799H474.331L485.543 318.949H563.891V320.03H485.989L474.778 330.879Z" fill="url(#paint25_linear_827_540)"/>
<path d="M475.268 332.086H156.382V328.585H473.794L485.006 317.735H565.141V321.193H486.525L475.268 332.086Z" fill="url(#paint26_linear_827_540)"/>
<path d="M566.02 315.552C564.501 315.552 563.25 316.762 563.25 318.232C563.25 319.701 564.501 320.912 566.02 320.912C567.538 320.912 568.789 319.701 568.789 318.232C568.789 316.762 567.538 315.552 566.02 315.552Z" fill="url(#paint27_linear_827_540)"/>
<path d="M570.039 318.232C570.039 316.071 568.252 314.342 566.019 314.342C563.786 314.342 561.999 316.071 561.999 318.232C561.999 320.393 563.786 322.122 566.019 322.122C568.252 322.122 570.039 320.393 570.039 318.232ZM567.538 318.232C567.538 319.053 566.868 319.702 566.019 319.702C565.17 319.702 564.5 319.053 564.5 318.232C564.5 317.411 565.17 316.762 566.019 316.762C566.868 316.762 567.538 317.411 567.538 318.232Z" fill="url(#paint28_linear_827_540)"/>
<path d="M67.7643 13.4526L73.8392 7.57397H112.209L119.535 0.52832H135.347L138.519 3.55406H395.807L405.902 13.3229L67.7643 13.4526Z" fill="url(#paint29_linear_827_540)"/>
<path d="M406.795 13.7113L395.941 3.20764H138.652L135.48 0.138672H119.311L112.03 7.18432H73.6597L66.8255 13.7977L406.75 13.6681L406.795 13.7113ZM395.628 3.94246L404.964 12.9765L68.7016 13.1061L74.017 7.96237H112.387L119.668 0.916719H135.212L138.384 3.98568H395.673L395.628 3.94246Z" fill="url(#paint30_linear_827_540)"/>
<path d="M116.898 0.441406L111.27 5.88774H102.515L107.965 0.614306L116.898 0.441406Z" fill="url(#paint31_linear_827_540)"/>
<path d="M117.793 0.0527344L107.787 0.225634L101.578 6.23389H111.405L117.793 0.0527344ZM108.1 0.960457L115.917 0.830782L111.093 5.49907H103.41L108.1 0.960457Z" fill="url(#paint32_linear_827_540)"/>
<path d="M102.826 0.441406L97.1979 5.88774H88.443L93.8925 0.614306L102.826 0.441406Z" fill="url(#paint33_linear_827_540)"/>
<path d="M103.766 0.0527344L93.76 0.225634L87.5511 6.23389H97.3781L103.766 0.0527344ZM94.028 0.960457L101.845 0.830782L97.0208 5.49907H89.3378L94.028 0.960457Z" fill="url(#paint34_linear_827_540)"/>
<path d="M88.7539 0.441406L83.1257 5.88774H74.3708L79.8203 0.614306L88.7539 0.441406Z" fill="url(#paint35_linear_827_540)"/>
<path d="M89.6934 0.0527344L79.6877 0.225634L73.4788 6.23389H83.3058L89.6934 0.0527344ZM80.0004 0.960457L87.8173 0.830782L82.9931 5.49907H75.3102L80.0004 0.960457Z" fill="url(#paint36_linear_827_540)"/>
<defs>
<linearGradient id="paint0_linear_827_540" x1="44.9425" y1="25.4688" x2="40.1628" y2="24.1165" gradientUnits="userSpaceOnUse">
<stop stop-color="#EE5D4B"/>
<stop offset="1" stop-color="#ED4732"/>
</linearGradient>
<linearGradient id="paint1_linear_827_540" x1="24.2629" y1="25.4688" x2="19.4832" y2="24.1165" gradientUnits="userSpaceOnUse">
<stop stop-color="#EE5D4B"/>
<stop offset="1" stop-color="#ED4732"/>
</linearGradient>
<linearGradient id="paint2_linear_827_540" x1="3.62611" y1="25.4688" x2="-1.15357" y2="24.1165" gradientUnits="userSpaceOnUse">
<stop stop-color="#EE5D4B"/>
<stop offset="1" stop-color="#ED4732"/>
</linearGradient>
<linearGradient id="paint3_linear_827_540" x1="701.439" y1="325.834" x2="694.383" y2="323.838" gradientUnits="userSpaceOnUse">
<stop stop-color="#EE5D4B"/>
<stop offset="1" stop-color="#ED4732"/>
</linearGradient>
<linearGradient id="paint4_linear_827_540" x1="678.36" y1="147.969" x2="677.18" y2="147.959" gradientUnits="userSpaceOnUse">
<stop stop-color="#EE5D4B"/>
<stop offset="1" stop-color="#ED4732"/>
</linearGradient>
<linearGradient id="paint5_linear_827_540" x1="254.608" y1="414" x2="-43.9196" y2="270.954" gradientUnits="userSpaceOnUse">
<stop stop-color="#EE5D4B"/>
<stop offset="1" stop-color="#ED4732"/>
</linearGradient>
<linearGradient id="paint6_linear_827_540" x1="147.632" y1="117.452" x2="65.6363" y2="13.9239" gradientUnits="userSpaceOnUse">
<stop stop-color="#EE5D4B"/>
<stop offset="1" stop-color="#ED4732"/>
</linearGradient>
<linearGradient id="paint7_linear_827_540" x1="197.067" y1="20.9244" x2="196.974" y2="16.756" gradientUnits="userSpaceOnUse">
<stop stop-color="#EE5D4B"/>
<stop offset="1" stop-color="#ED4732"/>
</linearGradient>
<linearGradient id="paint8_linear_827_540" x1="619.204" y1="320.171" x2="618.972" y2="316.013" gradientUnits="userSpaceOnUse">
<stop stop-color="#EE5D4B"/>
<stop offset="1" stop-color="#ED4732"/>
</linearGradient>
<linearGradient id="paint9_linear_827_540" x1="93.3924" y1="323.96" x2="90.3257" y2="304.727" gradientUnits="userSpaceOnUse">
<stop stop-color="#EE5D4B"/>
<stop offset="1" stop-color="#ED4732"/>
</linearGradient>
<linearGradient id="paint10_linear_827_540" x1="94.5535" y1="325.128" x2="89.9096" y2="301.451" gradientUnits="userSpaceOnUse">
<stop stop-color="#EE5D4B"/>
<stop offset="1" stop-color="#ED4732"/>
</linearGradient>
<linearGradient id="paint11_linear_827_540" x1="87.8199" y1="332" x2="81.4007" y2="313.753" gradientUnits="userSpaceOnUse">
<stop stop-color="#EE5D4B"/>
<stop offset="1" stop-color="#ED4732"/>
</linearGradient>
<linearGradient id="paint12_linear_827_540" x1="87.4068" y1="333.169" x2="78.4481" y2="311.502" gradientUnits="userSpaceOnUse">
<stop stop-color="#EE5D4B"/>
<stop offset="1" stop-color="#ED4732"/>
</linearGradient>
<linearGradient id="paint13_linear_827_540" x1="242.653" y1="323.53" x2="233.279" y2="312.714" gradientUnits="userSpaceOnUse">
<stop stop-color="#EE5D4B"/>
<stop offset="1" stop-color="#ED4732"/>
</linearGradient>
<linearGradient id="paint14_linear_827_540" x1="241.891" y1="324.782" x2="230.007" y2="312.204" gradientUnits="userSpaceOnUse">
<stop stop-color="#EE5D4B"/>
<stop offset="1" stop-color="#ED4732"/>
</linearGradient>
<linearGradient id="paint15_linear_827_540" x1="277.628" y1="323.53" x2="268.253" y2="312.714" gradientUnits="userSpaceOnUse">
<stop stop-color="#EE5D4B"/>
<stop offset="1" stop-color="#ED4732"/>
</linearGradient>
<linearGradient id="paint16_linear_827_540" x1="276.864" y1="324.782" x2="264.98" y2="312.204" gradientUnits="userSpaceOnUse">
<stop stop-color="#EE5D4B"/>
<stop offset="1" stop-color="#ED4732"/>
</linearGradient>
<linearGradient id="paint17_linear_827_540" x1="312.604" y1="323.53" x2="303.23" y2="312.714" gradientUnits="userSpaceOnUse">
<stop stop-color="#EE5D4B"/>
<stop offset="1" stop-color="#ED4732"/>
</linearGradient>
<linearGradient id="paint18_linear_827_540" x1="311.841" y1="324.782" x2="299.957" y2="312.204" gradientUnits="userSpaceOnUse">
<stop stop-color="#EE5D4B"/>
<stop offset="1" stop-color="#ED4732"/>
</linearGradient>
<linearGradient id="paint19_linear_827_540" x1="347.577" y1="323.53" x2="338.203" y2="312.714" gradientUnits="userSpaceOnUse">
<stop stop-color="#EE5D4B"/>
<stop offset="1" stop-color="#ED4732"/>
</linearGradient>
<linearGradient id="paint20_linear_827_540" x1="346.813" y1="324.782" x2="334.929" y2="312.204" gradientUnits="userSpaceOnUse">
<stop stop-color="#EE5D4B"/>
<stop offset="1" stop-color="#ED4732"/>
</linearGradient>
<linearGradient id="paint21_linear_827_540" x1="398.512" y1="323.53" x2="391.725" y2="307.455" gradientUnits="userSpaceOnUse">
<stop stop-color="#EE5D4B"/>
<stop offset="1" stop-color="#ED4732"/>
</linearGradient>
<linearGradient id="paint22_linear_827_540" x1="397.804" y1="324.782" x2="388.346" y2="305.651" gradientUnits="userSpaceOnUse">
<stop stop-color="#EE5D4B"/>
<stop offset="1" stop-color="#ED4732"/>
</linearGradient>
<linearGradient id="paint23_linear_827_540" x1="459.296" y1="323.53" x2="449.921" y2="312.714" gradientUnits="userSpaceOnUse">
<stop stop-color="#EE5D4B"/>
<stop offset="1" stop-color="#ED4732"/>
</linearGradient>
<linearGradient id="paint24_linear_827_540" x1="458.575" y1="324.782" x2="446.691" y2="312.204" gradientUnits="userSpaceOnUse">
<stop stop-color="#EE5D4B"/>
<stop offset="1" stop-color="#ED4732"/>
</linearGradient>
<linearGradient id="paint25_linear_827_540" x1="312.71" y1="330.879" x2="310.167" y2="307.172" gradientUnits="userSpaceOnUse">
<stop stop-color="#EE5D4B"/>
<stop offset="1" stop-color="#ED4732"/>
</linearGradient>
<linearGradient id="paint26_linear_827_540" x1="312.414" y1="332.086" x2="308.775" y2="303.707" gradientUnits="userSpaceOnUse">
<stop stop-color="#EE5D4B"/>
<stop offset="1" stop-color="#ED4732"/>
</linearGradient>
<linearGradient id="paint27_linear_827_540" x1="565.365" y1="320.912" x2="562.542" y2="320.113" gradientUnits="userSpaceOnUse">
<stop stop-color="#EE5D4B"/>
<stop offset="1" stop-color="#ED4732"/>
</linearGradient>
<linearGradient id="paint28_linear_827_540" x1="565.068" y1="322.122" x2="560.971" y2="320.963" gradientUnits="userSpaceOnUse">
<stop stop-color="#EE5D4B"/>
<stop offset="1" stop-color="#ED4732"/>
</linearGradient>
<linearGradient id="paint29_linear_827_540" x1="196.838" y1="13.4526" x2="193.281" y2="-12.0294" gradientUnits="userSpaceOnUse">
<stop stop-color="#EE5D4B"/>
<stop offset="1" stop-color="#ED4732"/>
</linearGradient>
<linearGradient id="paint30_linear_827_540" x1="196.599" y1="13.7977" x2="192.655" y2="-13.0791" gradientUnits="userSpaceOnUse">
<stop stop-color="#EE5D4B"/>
<stop offset="1" stop-color="#ED4732"/>
</linearGradient>
<linearGradient id="paint31_linear_827_540" x1="108.006" y1="5.88774" x2="102.808" y2="2.12936" gradientUnits="userSpaceOnUse">
<stop stop-color="#EE5D4B"/>
<stop offset="1" stop-color="#ED4732"/>
</linearGradient>
<linearGradient id="paint32_linear_827_540" x1="107.768" y1="6.23389" x2="101.881" y2="2.00597" gradientUnits="userSpaceOnUse">
<stop stop-color="#EE5D4B"/>
<stop offset="1" stop-color="#ED4732"/>
</linearGradient>
<linearGradient id="paint33_linear_827_540" x1="93.9334" y1="5.88774" x2="88.7353" y2="2.12936" gradientUnits="userSpaceOnUse">
<stop stop-color="#EE5D4B"/>
<stop offset="1" stop-color="#ED4732"/>
</linearGradient>
<linearGradient id="paint34_linear_827_540" x1="93.7405" y1="6.23389" x2="87.8537" y2="2.00597" gradientUnits="userSpaceOnUse">
<stop stop-color="#EE5D4B"/>
<stop offset="1" stop-color="#ED4732"/>
</linearGradient>
<linearGradient id="paint35_linear_827_540" x1="79.8611" y1="5.88774" x2="74.6631" y2="2.12936" gradientUnits="userSpaceOnUse">
<stop stop-color="#EE5D4B"/>
<stop offset="1" stop-color="#ED4732"/>
</linearGradient>
<linearGradient id="paint36_linear_827_540" x1="79.6682" y1="6.23389" x2="73.7814" y2="2.00594" gradientUnits="userSpaceOnUse">
<stop stop-color="#EE5D4B"/>
<stop offset="1" stop-color="#ED4732"/>
</linearGradient>
</defs>
</svg>
