<svg width="42" height="42" viewBox="0 0 42 42" fill="none" xmlns="http://www.w3.org/2000/svg">
<rect width="42" height="42" rx="7" fill="url(#paint0_linear_827_506)"/>
<g clip-path="url(#clip0_827_506)">
<path fill-rule="evenodd" clip-rule="evenodd" d="M30.1875 15.0938V19.0312C30.1875 19.3937 29.8937 19.6875 29.5312 19.6875H25.5938C25.2313 19.6875 24.9375 19.3937 24.9375 19.0312C24.9375 18.6688 25.2313 18.375 25.5938 18.375H27.8414L25.6602 16.3767L25.6397 16.357C23.0942 13.8125 18.9742 13.793 16.4047 16.3134C13.8353 18.8338 13.7753 22.9534 16.2704 25.5475C18.7654 28.1416 22.8842 28.242 25.5027 25.7726C25.7661 25.5234 26.1817 25.535 26.4309 25.7984C26.6801 26.0619 26.6685 26.4774 26.405 26.7266C24.9461 28.1102 23.0107 28.8795 21 28.875H20.8917C17.343 28.8264 14.2652 26.41 13.3758 22.9742C12.4865 19.5383 14.0053 15.9321 17.0847 14.1678C20.1642 12.4034 24.0433 12.917 26.5576 15.4219L28.875 17.5383V15.0938C28.875 14.7313 29.1688 14.4375 29.5312 14.4375C29.8937 14.4375 30.1875 14.7313 30.1875 15.0938Z" fill="white"/>
</g>
<defs>
<linearGradient id="paint0_linear_827_506" x1="25.9677" y1="42" x2="47.4698" y2="36.113" gradientUnits="userSpaceOnUse">
<stop stop-color="#EE5D4B"/>
<stop offset="1" stop-color="#ED4732"/>
</linearGradient>
<clipPath id="clip0_827_506">
<rect width="21" height="21" fill="white" transform="translate(10.5 10.5)"/>
</clipPath>
</defs>
</svg>
