<svg width="24" height="24" viewBox="0 0 24 24" fill="none" xmlns="http://www.w3.org/2000/svg">
<path d="M2 12.2929V12C2 7.02944 6.02944 3 11 3C15.9706 3 20 7.02944 20 12C20 16.9706 15.9706 21 11 21C8.83095 21 6.77956 20.2294 5.16281 18.8506C4.4585 18.2499 3.84968 17.5439 3.35962 16.7587C3.21342 16.5244 3.28481 16.216 3.51908 16.0698C3.75334 15.9236 4.06177 15.995 4.20797 16.2293C4.64372 16.9275 5.18526 17.5554 5.81171 18.0897C7.24914 19.3156 9.07106 20 11 20C15.4183 20 19 16.4183 19 12C19 7.58172 15.4183 4 11 4C6.58172 4 3 7.58172 3 12V12.2929L4.14645 11.1464C4.34171 10.9512 4.65829 10.9512 4.85355 11.1464C5.04882 11.3417 5.04882 11.6583 4.85355 11.8536L2.85355 13.8536C2.65829 14.0488 2.34171 14.0488 2.14645 13.8536L0.146447 11.8536C-0.0488155 11.6583 -0.0488155 11.3417 0.146447 11.1464C0.341709 10.9512 0.658291 10.9512 0.853553 11.1464L2 12.2929ZM14.697 13.0404C14.9508 13.1492 15.0684 13.4431 14.9596 13.697C14.8508 13.9508 14.5569 14.0684 14.303 13.9596L10.803 12.4596C10.6718 12.4033 10.5708 12.2936 10.5257 12.1581L9.02566 7.65811C8.93833 7.39614 9.07992 7.11298 9.34189 7.02566C9.60386 6.93833 9.88702 7.07991 9.97434 7.34189L11.4033 11.6289L14.697 13.0404Z" fill="white"/>
</svg>
