<svg width="40" height="40" viewBox="0 0 40 40" fill="none" xmlns="http://www.w3.org/2000/svg">
<path d="M34.9993 13.3334C34.9993 15.0334 33.0227 16.5334 29.9993 17.4367C28.1094 18.0034 25.811 18.3334 23.3327 18.3334C20.8543 18.3334 18.556 18.0017 16.666 17.4367C13.6443 16.5334 11.666 15.0334 11.666 13.3334C11.666 10.5717 16.8893 8.33337 23.3327 8.33337C29.776 8.33337 34.9993 10.5717 34.9993 13.3334Z" fill="white"/>
<path d="M34.9994 13.3334C34.9994 10.5717 29.776 8.33337 23.3327 8.33337C16.8893 8.33337 11.666 10.5717 11.666 13.3334M34.9994 13.3334V20C34.9994 21.7 33.0227 23.2 29.9993 24.1034C28.1093 24.67 25.811 25 23.3327 25C20.8543 25 18.556 24.6684 16.666 24.1034C13.6443 23.2 11.666 21.7 11.666 20V13.3334M34.9994 13.3334C34.9994 15.0334 33.0227 16.5334 29.9993 17.4367C28.1093 18.0034 25.811 18.3334 23.3327 18.3334C20.8543 18.3334 18.556 18.0017 16.666 17.4367C13.6443 16.5334 11.666 15.0334 11.666 13.3334" stroke="white" stroke-width="2" stroke-linecap="round" stroke-linejoin="round"/>
<path d="M5 20V26.6667C5 28.3667 6.97833 29.8667 10 30.77C11.89 31.3367 14.1883 31.6667 16.6667 31.6667C19.145 31.6667 21.4433 31.335 23.3333 30.77C26.355 29.8667 28.3333 28.3667 28.3333 26.6667V25M5 20C5 18.005 7.725 16.2834 11.6667 15.4817M5 20C5 21.7 6.97833 23.2 10 24.1034C11.89 24.67 14.1883 25 16.6667 25C17.825 25 18.9433 24.9284 20 24.7934" stroke="white" stroke-width="2" stroke-linecap="round" stroke-linejoin="round"/>
</svg>
