<svg width="1920" height="996" viewBox="0 0 1920 996" fill="none" xmlns="http://www.w3.org/2000/svg">
<g clip-path="url(#clip0_1_6986)">
<rect width="1920" height="996" fill="#141110"/>
<g filter="url(#filter0_f_1_6986)">
<ellipse cx="978.725" cy="1239.42" rx="671.196" ry="582.811" fill="#D94532"/>
</g>
<g filter="url(#filter1_f_1_6986)">
<ellipse cx="978.725" cy="1239.42" rx="462.922" ry="401.963" fill="#D94532"/>
</g>
<path d="M489.81 285.544L465.906 245.8H480.21L496.242 273.352H496.434L512.466 245.8H526.77L502.866 285.544V313H489.81V285.544ZM529.124 301.96V256.84L540.164 245.8H574.724L585.764 256.84V301.96L574.724 313H540.164L529.124 301.96ZM567.812 301.864L572.708 296.968V261.832L567.812 256.936H547.076L542.18 261.832V296.968L547.076 301.864H567.812ZM597.303 301.48V245.8H610.359V296.968L615.255 301.864H634.071L638.967 296.968V245.8H652.023V301.48L640.503 313H608.823L597.303 301.48ZM717.321 290.728V313H704.265V293.704L698.505 287.272H677.577V313H664.521V245.8H706.665L716.937 256.168V276.52L710.409 283.144L717.321 290.728ZM677.577 276.52H700.713L704.073 273.16V260.104L700.713 256.744H677.577V276.52ZM755.459 245.8H797.603L807.875 256.168V279.688L797.507 290.152H768.515V313H755.459V245.8ZM791.651 279.208L795.011 275.848V260.104L791.651 256.744H768.515V279.208H791.651ZM817.521 245.8H866.097V256.84H830.577V273.832H863.313V284.68H830.577V301.96H866.097V313H817.521V245.8ZM928.54 290.728V313H915.484V293.704L909.724 287.272H888.796V313H875.74V245.8H917.884L928.156 256.168V276.52L921.628 283.144L928.54 290.728ZM888.796 276.52H911.932L915.292 273.16V260.104L911.932 256.744H888.796V276.52ZM939.081 302.632V293.032H951.945V298.696L955.113 301.864H974.985L978.249 298.6V287.464L975.081 284.296H949.641L939.273 273.928V256.168L949.641 245.8H979.977L990.345 256.168V265.864H977.481V260.104L974.313 256.936H955.305L952.137 260.104V269.992L955.305 273.16H980.745L991.113 283.528V302.44L980.553 313H949.449L939.081 302.632ZM1000.69 301.96V256.84L1011.73 245.8H1046.29L1057.33 256.84V301.96L1046.29 313H1011.73L1000.69 301.96ZM1039.37 301.864L1044.27 296.968V261.832L1039.37 256.936H1018.64L1013.74 261.832V296.968L1018.64 301.864H1039.37ZM1068.87 245.8H1080.58L1110.53 291.4H1110.72V245.8H1123.3V313H1111.59L1081.63 267.496H1081.44V313H1068.87V245.8ZM1154.62 245.8H1166.52L1191.1 313H1177.85L1172.38 298.12H1148.76L1143.29 313H1130.04L1154.62 245.8ZM1169.5 287.368L1160.57 261.832H1160.38L1151.74 287.368H1169.5ZM1197.87 245.8H1210.92V301.96H1244.52V313H1197.87V245.8ZM1252.16 245.8H1265.21V313H1252.16V245.8ZM1275.33 302.632L1309.79 256.936V256.744H1276.29V245.8H1325.44V256.168L1290.98 301.864V302.056H1325.44V313H1275.33V302.632ZM1335.02 245.8H1383.6V256.84H1348.08V273.832H1380.81V284.68H1348.08V301.96H1383.6V313H1335.02V245.8ZM1393.24 245.8H1436.25L1447.77 257.32V301.48L1436.25 313H1393.24V245.8ZM1429.82 301.864L1434.71 296.968V261.832L1429.82 256.936H1406.3V301.864H1429.82ZM617.718 426.96V381.84L628.758 370.8H662.166L673.014 381.648V391.92H659.958V386.448L655.446 381.936H635.67L630.774 386.832V421.968L635.67 426.864H655.638L660.342 422.16V411.696H645.942V400.56H673.014V426.96L661.974 438H628.758L617.718 426.96ZM701.431 370.8H713.335L737.911 438H724.663L719.191 423.12H695.575L690.103 438H676.855L701.431 370.8ZM716.311 412.368L707.383 386.832H707.191L698.551 412.368H716.311ZM744.678 370.8H756.774L776.742 414.192H776.934L796.998 370.8H809.094V438H796.518V397.104H796.326L780.87 428.592H772.806L757.446 397.104H757.254V438H744.678V370.8ZM822.033 370.8H835.089V438H822.033V370.8ZM848.084 370.8H859.796L889.748 416.4H889.94V370.8H902.516V438H890.804L860.852 392.496H860.66V438H848.084V370.8ZM914.061 426.96V381.84L925.101 370.8H958.509L969.357 381.648V391.92H956.301V386.448L951.789 381.936H932.013L927.117 386.832V421.968L932.013 426.864H951.981L956.685 422.16V411.696H942.285V400.56H969.357V426.96L958.317 438H925.101L914.061 426.96ZM1024.87 370.8H1036.77L1061.35 438H1048.1L1042.63 423.12H1019.01L1013.54 438H1000.29L1024.87 370.8ZM1039.75 412.368L1030.82 386.832H1030.63L1021.99 412.368H1039.75ZM1065.75 426.96V381.84L1076.79 370.8H1110.2L1121.04 381.648V391.92H1107.99V386.448L1103.48 381.936H1083.7L1078.8 386.832V421.968L1083.7 426.864H1103.67L1108.37 422.16V411.696H1093.97V400.56H1121.04V426.96L1110 438H1076.79L1065.75 426.96ZM1131.58 370.8H1180.16V381.84H1144.64V398.832H1177.38V409.68H1144.64V426.96H1180.16V438H1131.58V370.8ZM1189.8 370.8H1201.51L1231.47 416.4H1231.66V370.8H1244.23V438H1232.52L1202.57 392.496H1202.38V438H1189.8V370.8ZM1272 381.84H1251.94V370.8H1305.12V381.84H1285.06V438H1272V381.84Z" fill="url(#paint0_linear_1_6986)"/>
<g filter="url(#filter2_d_1_6986)">
<rect x="759" y="91" width="402.286" height="58.0952" rx="29.0476" fill="black"/>
<rect x="759.69" y="91.6905" width="400.905" height="56.7143" rx="28.3571" stroke="white" stroke-opacity="0.15" stroke-width="1.38095"/>
<rect x="778.333" y="107.619" width="46.9524" height="24.8571" rx="12.4286" fill="#EE5D4B"/>
<path d="M794.511 115.266V125.31H792.677L788.308 118.988H788.234V125.31H786.111V115.266H787.974L792.31 121.583H792.398V115.266H794.511ZM796.264 125.31V115.266H803.032V117.017H798.388V119.41H802.684V121.161H798.388V123.559H803.051V125.31H796.264ZM806.979 125.31L804.106 115.266H806.425L808.088 122.245H808.171L810.005 115.266H811.991L813.82 122.259H813.909L815.571 115.266H817.891L815.017 125.31H812.947L811.035 118.743H810.956L809.049 125.31H806.979Z" fill="black"/>
<path d="M836.898 128.048V111.978H838.844V126.321H846.314V128.048H836.898ZM852.62 128.33C851.856 128.33 851.163 128.186 850.541 127.899C849.918 127.606 849.424 127.185 849.058 126.635C848.692 126.081 848.509 125.411 848.509 124.627C848.509 123.936 848.645 123.376 848.917 122.948C849.189 122.513 849.552 122.173 850.007 121.927C850.462 121.682 850.965 121.499 851.514 121.378C852.068 121.253 852.625 121.153 853.185 121.08C853.917 120.986 854.511 120.915 854.966 120.868C855.426 120.816 855.761 120.73 855.97 120.609C856.185 120.489 856.292 120.28 856.292 119.982V119.919C856.292 119.145 856.08 118.543 855.657 118.114C855.238 117.685 854.603 117.471 853.75 117.471C852.866 117.471 852.173 117.664 851.671 118.051C851.169 118.438 850.815 118.852 850.611 119.291L848.854 118.663C849.168 117.931 849.586 117.361 850.109 116.953C850.638 116.54 851.213 116.252 851.835 116.09C852.463 115.922 853.08 115.839 853.687 115.839C854.074 115.839 854.519 115.886 855.021 115.98C855.528 116.069 856.018 116.255 856.488 116.537C856.964 116.82 857.359 117.246 857.673 117.816C857.987 118.386 858.144 119.15 858.144 120.107V128.048H856.292V126.416H856.198C856.072 126.677 855.863 126.957 855.57 127.255C855.277 127.553 854.888 127.807 854.401 128.016C853.915 128.225 853.321 128.33 852.62 128.33ZM852.903 126.667C853.635 126.667 854.252 126.523 854.754 126.235C855.262 125.947 855.644 125.576 855.9 125.121C856.161 124.666 856.292 124.187 856.292 123.685V121.99C856.214 122.084 856.041 122.171 855.774 122.249C855.513 122.322 855.209 122.388 854.864 122.445C854.524 122.498 854.192 122.545 853.868 122.587C853.549 122.623 853.29 122.655 853.091 122.681C852.61 122.744 852.16 122.846 851.741 122.987C851.328 123.123 850.993 123.329 850.737 123.607C850.486 123.879 850.36 124.25 850.36 124.721C850.36 125.364 850.598 125.851 851.074 126.18C851.556 126.505 852.165 126.667 852.903 126.667ZM866.763 115.996V117.565H860.517V115.996H866.763ZM862.338 113.108H864.189V124.595C864.189 125.118 864.265 125.511 864.417 125.772C864.574 126.029 864.772 126.201 865.013 126.29C865.259 126.374 865.518 126.416 865.79 126.416C865.994 126.416 866.161 126.405 866.292 126.384C866.423 126.358 866.527 126.337 866.606 126.321L866.983 127.985C866.857 128.032 866.682 128.079 866.457 128.126C866.232 128.178 865.947 128.205 865.602 128.205C865.078 128.205 864.566 128.092 864.064 127.867C863.567 127.642 863.154 127.3 862.824 126.839C862.5 126.379 862.338 125.798 862.338 125.097V113.108ZM874.47 128.299C873.308 128.299 872.307 128.042 871.465 127.53C870.628 127.012 869.982 126.29 869.526 125.364C869.077 124.433 868.852 123.35 868.852 122.116C868.852 120.881 869.077 119.793 869.526 118.852C869.982 117.905 870.614 117.167 871.425 116.639C872.241 116.106 873.193 115.839 874.281 115.839C874.909 115.839 875.529 115.943 876.141 116.153C876.753 116.362 877.31 116.702 877.812 117.173C878.314 117.638 878.715 118.255 879.013 119.024C879.311 119.793 879.46 120.74 879.46 121.865V122.649H870.17V121.049H877.577C877.577 120.369 877.441 119.762 877.169 119.228C876.902 118.695 876.52 118.274 876.023 117.965C875.532 117.656 874.951 117.502 874.281 117.502C873.544 117.502 872.906 117.685 872.367 118.051C871.833 118.412 871.423 118.883 871.135 119.464C870.847 120.044 870.703 120.667 870.703 121.331V122.398C870.703 123.308 870.86 124.08 871.174 124.713C871.493 125.341 871.935 125.819 872.5 126.149C873.065 126.473 873.722 126.635 874.47 126.635C874.956 126.635 875.396 126.567 875.788 126.431C876.185 126.29 876.528 126.081 876.816 125.804C877.103 125.521 877.326 125.171 877.483 124.752L879.272 125.254C879.083 125.861 878.767 126.395 878.322 126.855C877.878 127.31 877.328 127.666 876.674 127.922C876.021 128.173 875.286 128.299 874.47 128.299ZM890.811 118.695L889.148 119.166C889.043 118.888 888.889 118.619 888.685 118.357C888.486 118.091 888.214 117.871 887.869 117.698C887.524 117.526 887.082 117.439 886.543 117.439C885.805 117.439 885.191 117.609 884.699 117.949C884.213 118.284 883.969 118.711 883.969 119.228C883.969 119.689 884.137 120.052 884.471 120.319C884.806 120.586 885.329 120.808 886.041 120.986L887.83 121.425C888.907 121.687 889.71 122.087 890.239 122.626C890.767 123.159 891.031 123.847 891.031 124.689C891.031 125.38 890.832 125.997 890.435 126.541C890.042 127.085 889.493 127.514 888.787 127.828C888.081 128.142 887.26 128.299 886.323 128.299C885.094 128.299 884.077 128.032 883.271 127.498C882.465 126.965 881.955 126.185 881.741 125.16L883.499 124.721C883.666 125.369 883.982 125.856 884.448 126.18C884.919 126.505 885.533 126.667 886.292 126.667C887.155 126.667 887.84 126.484 888.348 126.117C888.86 125.746 889.117 125.301 889.117 124.784C889.117 124.365 888.97 124.015 888.677 123.732C888.384 123.444 887.934 123.23 887.328 123.089L885.319 122.618C884.215 122.356 883.404 121.951 882.887 121.402C882.374 120.847 882.118 120.154 882.118 119.323C882.118 118.642 882.309 118.041 882.69 117.518C883.077 116.995 883.603 116.584 884.267 116.286C884.937 115.988 885.696 115.839 886.543 115.839C887.736 115.839 888.672 116.1 889.352 116.623C890.037 117.146 890.524 117.837 890.811 118.695ZM899.058 115.996V117.565H892.812V115.996H899.058ZM894.632 113.108H896.484V124.595C896.484 125.118 896.56 125.511 896.712 125.772C896.868 126.029 897.067 126.201 897.308 126.29C897.554 126.374 897.813 126.416 898.085 126.416C898.289 126.416 898.456 126.405 898.587 126.384C898.718 126.358 898.822 126.337 898.901 126.321L899.277 127.985C899.152 128.032 898.976 128.079 898.752 128.126C898.527 128.178 898.242 128.205 897.896 128.205C897.373 128.205 896.861 128.092 896.358 127.867C895.861 127.642 895.448 127.3 895.119 126.839C894.794 126.379 894.632 125.798 894.632 125.097V113.108ZM908.053 128.048V115.996H909.905V128.048H908.053ZM908.994 113.987C908.633 113.987 908.322 113.864 908.061 113.618C907.804 113.372 907.676 113.077 907.676 112.732C907.676 112.386 907.804 112.091 908.061 111.845C908.322 111.599 908.633 111.476 908.994 111.476C909.355 111.476 909.664 111.599 909.92 111.845C910.182 112.091 910.313 112.386 910.313 112.732C910.313 113.077 910.182 113.372 909.92 113.618C909.664 113.864 909.355 113.987 908.994 113.987ZM915.146 120.798V128.048H913.294V115.996H915.083V117.879H915.24C915.522 117.267 915.951 116.775 916.527 116.404C917.102 116.027 917.845 115.839 918.755 115.839C919.571 115.839 920.285 116.006 920.897 116.341C921.509 116.67 921.985 117.173 922.325 117.847C922.665 118.517 922.835 119.364 922.835 120.39V128.048H920.983V120.515C920.983 119.568 920.737 118.831 920.246 118.302C919.754 117.769 919.079 117.502 918.221 117.502C917.63 117.502 917.102 117.63 916.636 117.887C916.176 118.143 915.813 118.517 915.546 119.009C915.279 119.5 915.146 120.097 915.146 120.798ZM931.458 115.996V117.565H925.212V115.996H931.458ZM927.033 113.108H928.884V124.595C928.884 125.118 928.96 125.511 929.112 125.772C929.269 126.029 929.468 126.201 929.708 126.29C929.954 126.374 930.213 126.416 930.485 126.416C930.689 126.416 930.856 126.405 930.987 126.384C931.118 126.358 931.223 126.337 931.301 126.321L931.678 127.985C931.552 128.032 931.377 128.079 931.152 128.126C930.927 128.178 930.642 128.205 930.297 128.205C929.774 128.205 929.261 128.092 928.759 127.867C928.262 127.642 927.849 127.3 927.519 126.839C927.195 126.379 927.033 125.798 927.033 125.097V113.108ZM939.165 128.299C938.003 128.299 937.002 128.042 936.16 127.53C935.323 127.012 934.677 126.29 934.222 125.364C933.772 124.433 933.547 123.35 933.547 122.116C933.547 120.881 933.772 119.793 934.222 118.852C934.677 117.905 935.31 117.167 936.12 116.639C936.936 116.106 937.888 115.839 938.976 115.839C939.604 115.839 940.224 115.943 940.836 116.153C941.448 116.362 942.005 116.702 942.507 117.173C943.009 117.638 943.41 118.255 943.708 119.024C944.006 119.793 944.155 120.74 944.155 121.865V122.649H934.865V121.049H942.272C942.272 120.369 942.136 119.762 941.864 119.228C941.597 118.695 941.215 118.274 940.718 117.965C940.227 117.656 939.646 117.502 938.976 117.502C938.239 117.502 937.601 117.685 937.062 118.051C936.528 118.412 936.118 118.883 935.83 119.464C935.542 120.044 935.399 120.667 935.399 121.331V122.398C935.399 123.308 935.555 124.08 935.869 124.713C936.188 125.341 936.63 125.819 937.195 126.149C937.76 126.473 938.417 126.635 939.165 126.635C939.651 126.635 940.091 126.567 940.483 126.431C940.88 126.29 941.223 126.081 941.511 125.804C941.798 125.521 942.021 125.171 942.178 124.752L943.967 125.254C943.778 125.861 943.462 126.395 943.017 126.855C942.573 127.31 942.023 127.666 941.37 127.922C940.716 128.173 939.981 128.299 939.165 128.299ZM951.834 132.818C950.94 132.818 950.171 132.703 949.528 132.473C948.884 132.248 948.348 131.95 947.919 131.578C947.495 131.212 947.158 130.82 946.907 130.402L948.382 129.366C948.549 129.586 948.761 129.837 949.018 130.119C949.274 130.407 949.624 130.655 950.069 130.864C950.519 131.079 951.107 131.186 951.834 131.186C952.807 131.186 953.61 130.951 954.243 130.48C954.876 130.009 955.193 129.272 955.193 128.267V125.819H955.036C954.9 126.039 954.706 126.311 954.455 126.635C954.209 126.954 953.853 127.239 953.388 127.491C952.928 127.736 952.305 127.859 951.52 127.859C950.548 127.859 949.674 127.629 948.9 127.169C948.131 126.709 947.521 126.039 947.072 125.16C946.627 124.281 946.405 123.214 946.405 121.959C946.405 120.724 946.622 119.649 947.056 118.734C947.49 117.813 948.094 117.102 948.868 116.6C949.643 116.092 950.537 115.839 951.552 115.839C952.336 115.839 952.959 115.97 953.419 116.231C953.885 116.487 954.241 116.78 954.486 117.11C954.737 117.434 954.931 117.701 955.067 117.91H955.255V115.996H957.044V128.393C957.044 129.429 956.809 130.271 956.338 130.919C955.873 131.573 955.245 132.052 954.455 132.355C953.67 132.664 952.797 132.818 951.834 132.818ZM951.772 126.196C952.514 126.196 953.142 126.026 953.655 125.686C954.167 125.346 954.557 124.857 954.824 124.219C955.091 123.58 955.224 122.817 955.224 121.927C955.224 121.059 955.093 120.293 954.832 119.629C954.57 118.964 954.183 118.444 953.67 118.067C953.158 117.69 952.525 117.502 951.772 117.502C950.987 117.502 950.333 117.701 949.81 118.098C949.292 118.496 948.902 119.03 948.641 119.699C948.385 120.369 948.256 121.111 948.256 121.927C948.256 122.764 948.387 123.505 948.649 124.148C948.916 124.786 949.308 125.288 949.826 125.654C950.349 126.015 950.997 126.196 951.772 126.196ZM960.432 128.048V115.996H962.221V117.816H962.346C962.566 117.22 962.963 116.736 963.539 116.364C964.114 115.993 964.763 115.807 965.485 115.807C965.621 115.807 965.791 115.81 965.995 115.815C966.199 115.82 966.353 115.828 966.458 115.839V117.722C966.395 117.706 966.251 117.683 966.026 117.651C965.806 117.615 965.574 117.596 965.328 117.596C964.742 117.596 964.219 117.719 963.759 117.965C963.303 118.206 962.943 118.54 962.676 118.969C962.414 119.393 962.283 119.877 962.283 120.421V128.048H960.432ZM972.197 128.33C971.433 128.33 970.74 128.186 970.118 127.899C969.495 127.606 969.001 127.185 968.635 126.635C968.269 126.081 968.086 125.411 968.086 124.627C968.086 123.936 968.222 123.376 968.494 122.948C968.766 122.513 969.129 122.173 969.584 121.927C970.039 121.682 970.541 121.499 971.091 121.378C971.645 121.253 972.202 121.153 972.762 121.08C973.494 120.986 974.088 120.915 974.543 120.868C975.003 120.816 975.338 120.73 975.547 120.609C975.762 120.489 975.869 120.28 975.869 119.982V119.919C975.869 119.145 975.657 118.543 975.234 118.114C974.815 117.685 974.18 117.471 973.327 117.471C972.443 117.471 971.75 117.664 971.248 118.051C970.745 118.438 970.392 118.852 970.188 119.291L968.431 118.663C968.745 117.931 969.163 117.361 969.686 116.953C970.214 116.54 970.79 116.252 971.412 116.09C972.04 115.922 972.657 115.839 973.264 115.839C973.651 115.839 974.096 115.886 974.598 115.98C975.105 116.069 975.594 116.255 976.065 116.537C976.541 116.82 976.936 117.246 977.25 117.816C977.564 118.386 977.721 119.15 977.721 120.107V128.048H975.869V126.416H975.775C975.649 126.677 975.44 126.957 975.147 127.255C974.854 127.553 974.465 127.807 973.978 128.016C973.492 128.225 972.898 128.33 972.197 128.33ZM972.479 126.667C973.212 126.667 973.829 126.523 974.331 126.235C974.839 125.947 975.22 125.576 975.477 125.121C975.738 124.666 975.869 124.187 975.869 123.685V121.99C975.791 122.084 975.618 122.171 975.351 122.249C975.09 122.322 974.786 122.388 974.441 122.445C974.101 122.498 973.769 122.545 973.445 122.587C973.125 122.623 972.867 122.655 972.668 122.681C972.187 122.744 971.737 122.846 971.318 122.987C970.905 123.123 970.57 123.329 970.314 123.607C970.063 123.879 969.937 124.25 969.937 124.721C969.937 125.364 970.175 125.851 970.651 126.18C971.133 126.505 971.742 126.667 972.479 126.667ZM986.34 115.996V117.565H980.094V115.996H986.34ZM981.914 113.108H983.766V124.595C983.766 125.118 983.842 125.511 983.994 125.772C984.151 126.029 984.349 126.201 984.59 126.29C984.836 126.374 985.095 126.416 985.367 126.416C985.571 126.416 985.738 126.405 985.869 126.384C986 126.358 986.104 126.337 986.183 126.321L986.559 127.985C986.434 128.032 986.259 128.079 986.034 128.126C985.809 128.178 985.524 128.205 985.178 128.205C984.655 128.205 984.143 128.092 983.641 127.867C983.144 127.642 982.73 127.3 982.401 126.839C982.077 126.379 981.914 125.798 981.914 125.097V113.108ZM989.123 128.048V115.996H990.975V128.048H989.123ZM990.065 113.987C989.704 113.987 989.392 113.864 989.131 113.618C988.875 113.372 988.746 113.077 988.746 112.732C988.746 112.386 988.875 112.091 989.131 111.845C989.392 111.599 989.704 111.476 990.065 111.476C990.425 111.476 990.734 111.599 990.99 111.845C991.252 112.091 991.383 112.386 991.383 112.732C991.383 113.077 991.252 113.372 990.99 113.618C990.734 113.864 990.425 113.987 990.065 113.987ZM999.26 128.299C998.172 128.299 997.218 128.04 996.396 127.522C995.58 127.004 994.942 126.28 994.482 125.348C994.027 124.417 993.799 123.329 993.799 122.084C993.799 120.829 994.027 119.733 994.482 118.797C994.942 117.86 995.58 117.133 996.396 116.616C997.218 116.098 998.172 115.839 999.26 115.839C1000.35 115.839 1001.3 116.098 1002.12 116.616C1002.94 117.133 1003.58 117.86 1004.03 118.797C1004.49 119.733 1004.72 120.829 1004.72 122.084C1004.72 123.329 1004.49 124.417 1004.03 125.348C1003.58 126.28 1002.94 127.004 1002.12 127.522C1001.3 128.04 1000.35 128.299 999.26 128.299ZM999.26 126.635C1000.09 126.635 1000.77 126.423 1001.3 126C1001.83 125.576 1002.23 125.019 1002.49 124.328C1002.74 123.638 1002.87 122.89 1002.87 122.084C1002.87 121.279 1002.74 120.528 1002.49 119.833C1002.23 119.137 1001.83 118.574 1001.3 118.146C1000.77 117.717 1000.09 117.502 999.26 117.502C998.434 117.502 997.754 117.717 997.22 118.146C996.687 118.574 996.292 119.137 996.035 119.833C995.779 120.528 995.651 121.279 995.651 122.084C995.651 122.89 995.779 123.638 996.035 124.328C996.292 125.019 996.687 125.576 997.22 126C997.754 126.423 998.434 126.635 999.26 126.635ZM1009.4 120.798V128.048H1007.55V115.996H1009.33V117.879H1009.49C1009.77 117.267 1010.2 116.775 1010.78 116.404C1011.35 116.027 1012.1 115.839 1013.01 115.839C1013.82 115.839 1014.54 116.006 1015.15 116.341C1015.76 116.67 1016.24 117.173 1016.58 117.847C1016.92 118.517 1017.09 119.364 1017.09 120.39V128.048H1015.24V120.515C1015.24 119.568 1014.99 118.831 1014.5 118.302C1014.01 117.769 1013.33 117.502 1012.47 117.502C1011.88 117.502 1011.35 117.63 1010.89 117.887C1010.43 118.143 1010.06 118.517 1009.8 119.009C1009.53 119.5 1009.4 120.097 1009.4 120.798ZM1026.68 115.996H1028.53V128.926C1028.53 129.669 1028.4 130.313 1028.15 130.857C1027.9 131.401 1027.51 131.822 1027 132.12C1026.49 132.418 1025.85 132.567 1025.08 132.567C1025.02 132.567 1024.95 132.567 1024.89 132.567C1024.83 132.567 1024.77 132.567 1024.7 132.567V130.841C1024.77 130.841 1024.82 130.841 1024.88 130.841C1024.93 130.841 1024.99 130.841 1025.05 130.841C1025.61 130.841 1026.03 130.674 1026.29 130.339C1026.55 130.009 1026.68 129.538 1026.68 128.926V115.996ZM1027.59 113.987C1027.23 113.987 1026.92 113.864 1026.66 113.618C1026.4 113.372 1026.27 113.077 1026.27 112.732C1026.27 112.386 1026.4 112.091 1026.66 111.845C1026.92 111.599 1027.23 111.476 1027.59 111.476C1027.95 111.476 1028.26 111.599 1028.52 111.845C1028.78 112.091 1028.91 112.386 1028.91 112.732C1028.91 113.077 1028.78 113.372 1028.52 113.618C1028.26 113.864 1027.95 113.987 1027.59 113.987ZM1039.52 123.12V115.996H1041.37V128.048H1039.52V126.008H1039.39C1039.11 126.62 1038.67 127.14 1038.07 127.569C1037.48 127.993 1036.72 128.205 1035.81 128.205C1035.06 128.205 1034.39 128.04 1033.8 127.71C1033.22 127.375 1032.76 126.873 1032.42 126.204C1032.09 125.529 1031.92 124.679 1031.92 123.654V115.996H1033.77V123.528C1033.77 124.407 1034.02 125.108 1034.51 125.631C1035.01 126.154 1035.64 126.416 1036.41 126.416C1036.87 126.416 1037.34 126.298 1037.81 126.063C1038.3 125.827 1038.7 125.466 1039.02 124.98C1039.35 124.493 1039.52 123.873 1039.52 123.12ZM1053.29 118.695L1051.63 119.166C1051.53 118.888 1051.37 118.619 1051.17 118.357C1050.97 118.091 1050.7 117.871 1050.35 117.698C1050.01 117.526 1049.56 117.439 1049.03 117.439C1048.29 117.439 1047.67 117.609 1047.18 117.949C1046.7 118.284 1046.45 118.711 1046.45 119.228C1046.45 119.689 1046.62 120.052 1046.95 120.319C1047.29 120.586 1047.81 120.808 1048.52 120.986L1050.31 121.425C1051.39 121.687 1052.19 122.087 1052.72 122.626C1053.25 123.159 1053.51 123.847 1053.51 124.689C1053.51 125.38 1053.32 125.997 1052.92 126.541C1052.53 127.085 1051.98 127.514 1051.27 127.828C1050.56 128.142 1049.74 128.299 1048.81 128.299C1047.58 128.299 1046.56 128.032 1045.75 127.498C1044.95 126.965 1044.44 126.185 1044.22 125.16L1045.98 124.721C1046.15 125.369 1046.47 125.856 1046.93 126.18C1047.4 126.505 1048.02 126.667 1048.78 126.667C1049.64 126.667 1050.32 126.484 1050.83 126.117C1051.34 125.746 1051.6 125.301 1051.6 124.784C1051.6 124.365 1051.45 124.015 1051.16 123.732C1050.87 123.444 1050.42 123.23 1049.81 123.089L1047.8 122.618C1046.7 122.356 1045.89 121.951 1045.37 121.402C1044.86 120.847 1044.6 120.154 1044.6 119.323C1044.6 118.642 1044.79 118.041 1045.17 117.518C1045.56 116.995 1046.09 116.584 1046.75 116.286C1047.42 115.988 1048.18 115.839 1049.03 115.839C1050.22 115.839 1051.16 116.1 1051.84 116.623C1052.52 117.146 1053.01 117.837 1053.29 118.695ZM1061.54 115.996V117.565H1055.3V115.996H1061.54ZM1057.12 113.108H1058.97V124.595C1058.97 125.118 1059.04 125.511 1059.19 125.772C1059.35 126.029 1059.55 126.201 1059.79 126.29C1060.04 126.374 1060.3 126.416 1060.57 126.416C1060.77 126.416 1060.94 126.405 1061.07 126.384C1061.2 126.358 1061.31 126.337 1061.38 126.321L1061.76 127.985C1061.63 128.032 1061.46 128.079 1061.23 128.126C1061.01 128.178 1060.72 128.205 1060.38 128.205C1059.86 128.205 1059.34 128.092 1058.84 127.867C1058.34 127.642 1057.93 127.3 1057.6 126.839C1057.28 126.379 1057.12 125.798 1057.12 125.097V113.108ZM1074.08 128.33C1073.32 128.33 1072.63 128.186 1072 127.899C1071.38 127.606 1070.89 127.185 1070.52 126.635C1070.15 126.081 1069.97 125.411 1069.97 124.627C1069.97 123.936 1070.11 123.376 1070.38 122.948C1070.65 122.513 1071.01 122.173 1071.47 121.927C1071.92 121.682 1072.43 121.499 1072.98 121.378C1073.53 121.253 1074.09 121.153 1074.65 121.08C1075.38 120.986 1075.97 120.915 1076.43 120.868C1076.89 120.816 1077.22 120.73 1077.43 120.609C1077.65 120.489 1077.75 120.28 1077.75 119.982V119.919C1077.75 119.145 1077.54 118.543 1077.12 118.114C1076.7 117.685 1076.07 117.471 1075.21 117.471C1074.33 117.471 1073.64 117.664 1073.13 118.051C1072.63 118.438 1072.28 118.852 1072.07 119.291L1070.32 118.663C1070.63 117.931 1071.05 117.361 1071.57 116.953C1072.1 116.54 1072.68 116.252 1073.3 116.09C1073.93 115.922 1074.54 115.839 1075.15 115.839C1075.54 115.839 1075.98 115.886 1076.48 115.98C1076.99 116.069 1077.48 116.255 1077.95 116.537C1078.43 116.82 1078.82 117.246 1079.14 117.816C1079.45 118.386 1079.61 119.15 1079.61 120.107V128.048H1077.75V126.416H1077.66C1077.54 126.677 1077.33 126.957 1077.03 127.255C1076.74 127.553 1076.35 127.807 1075.86 128.016C1075.38 128.225 1074.78 128.33 1074.08 128.33ZM1074.37 126.667C1075.1 126.667 1075.71 126.523 1076.22 126.235C1076.72 125.947 1077.11 125.576 1077.36 125.121C1077.62 124.666 1077.75 124.187 1077.75 123.685V121.99C1077.68 122.084 1077.5 122.171 1077.24 122.249C1076.98 122.322 1076.67 122.388 1076.33 122.445C1075.99 122.498 1075.65 122.545 1075.33 122.587C1075.01 122.623 1074.75 122.655 1074.55 122.681C1074.07 122.744 1073.62 122.846 1073.2 122.987C1072.79 123.123 1072.46 123.329 1072.2 123.607C1071.95 123.879 1071.82 124.25 1071.82 124.721C1071.82 125.364 1072.06 125.851 1072.54 126.18C1073.02 126.505 1073.63 126.667 1074.37 126.667ZM1082.98 128.048V115.996H1084.77V117.816H1084.9C1085.12 117.22 1085.52 116.736 1086.09 116.364C1086.67 115.993 1087.32 115.807 1088.04 115.807C1088.17 115.807 1088.34 115.81 1088.55 115.815C1088.75 115.82 1088.91 115.828 1089.01 115.839V117.722C1088.95 117.706 1088.8 117.683 1088.58 117.651C1088.36 117.615 1088.13 117.596 1087.88 117.596C1087.29 117.596 1086.77 117.719 1086.31 117.965C1085.86 118.206 1085.49 118.54 1085.23 118.969C1084.97 119.393 1084.84 119.877 1084.84 120.421V128.048H1082.98ZM1091.2 128.048V115.996H1092.99V117.816H1093.12C1093.34 117.22 1093.73 116.736 1094.31 116.364C1094.89 115.993 1095.53 115.807 1096.26 115.807C1096.39 115.807 1096.56 115.81 1096.77 115.815C1096.97 115.82 1097.12 115.828 1097.23 115.839V117.722C1097.17 117.706 1097.02 117.683 1096.8 117.651C1096.58 117.615 1096.34 117.596 1096.1 117.596C1095.51 117.596 1094.99 117.719 1094.53 117.965C1094.07 118.206 1093.71 118.54 1093.45 118.969C1093.19 119.393 1093.05 119.877 1093.05 120.421V128.048H1091.2ZM1099.42 128.048V115.996H1101.27V128.048H1099.42ZM1100.36 113.987C1100 113.987 1099.69 113.864 1099.43 113.618C1099.17 113.372 1099.04 113.077 1099.04 112.732C1099.04 112.386 1099.17 112.091 1099.43 111.845C1099.69 111.599 1100 111.476 1100.36 111.476C1100.72 111.476 1101.03 111.599 1101.29 111.845C1101.55 112.091 1101.68 112.386 1101.68 112.732C1101.68 113.077 1101.55 113.372 1101.29 113.618C1101.03 113.864 1100.72 113.987 1100.36 113.987ZM1114.52 115.996L1110.06 128.048H1108.18L1103.72 115.996H1105.73L1109.06 125.6H1109.18L1112.51 115.996H1114.52ZM1121.58 128.299C1120.42 128.299 1119.42 128.042 1118.58 127.53C1117.74 127.012 1117.09 126.29 1116.64 125.364C1116.19 124.433 1115.96 123.35 1115.96 122.116C1115.96 120.881 1116.19 119.793 1116.64 118.852C1117.09 117.905 1117.73 117.167 1118.54 116.639C1119.35 116.106 1120.3 115.839 1121.39 115.839C1122.02 115.839 1122.64 115.943 1123.25 116.153C1123.86 116.362 1124.42 116.702 1124.92 117.173C1125.43 117.638 1125.83 118.255 1126.12 119.024C1126.42 119.793 1126.57 120.74 1126.57 121.865V122.649H1117.28V121.049H1124.69C1124.69 120.369 1124.55 119.762 1124.28 119.228C1124.01 118.695 1123.63 118.274 1123.13 117.965C1122.64 117.656 1122.06 117.502 1121.39 117.502C1120.66 117.502 1120.02 117.685 1119.48 118.051C1118.94 118.412 1118.53 118.883 1118.25 119.464C1117.96 120.044 1117.81 120.667 1117.81 121.331V122.398C1117.81 123.308 1117.97 124.08 1118.29 124.713C1118.6 125.341 1119.05 125.819 1119.61 126.149C1120.18 126.473 1120.83 126.635 1121.58 126.635C1122.07 126.635 1122.51 126.567 1122.9 126.431C1123.3 126.29 1123.64 126.081 1123.93 125.804C1124.21 125.521 1124.44 125.171 1124.59 124.752L1126.38 125.254C1126.19 125.861 1125.88 126.395 1125.43 126.855C1124.99 127.31 1124.44 127.666 1123.79 127.922C1123.13 128.173 1122.4 128.299 1121.58 128.299ZM1133.94 128.299C1132.93 128.299 1132.05 128.045 1131.28 127.538C1130.51 127.025 1129.91 126.303 1129.47 125.372C1129.04 124.436 1128.82 123.329 1128.82 122.053C1128.82 120.787 1129.04 119.689 1129.47 118.758C1129.91 117.826 1130.51 117.107 1131.28 116.6C1132.06 116.092 1132.95 115.839 1133.97 115.839C1134.75 115.839 1135.37 115.97 1135.83 116.231C1136.29 116.487 1136.64 116.78 1136.88 117.11C1137.13 117.434 1137.32 117.701 1137.45 117.91H1137.61V111.978H1139.46V128.048H1137.67V126.196H1137.45C1137.32 126.416 1137.12 126.693 1136.87 127.028C1136.62 127.357 1136.26 127.653 1135.8 127.914C1135.33 128.171 1134.71 128.299 1133.94 128.299ZM1134.19 126.635C1134.93 126.635 1135.56 126.442 1136.07 126.055C1136.58 125.662 1136.97 125.121 1137.24 124.43C1137.51 123.735 1137.64 122.932 1137.64 122.022C1137.64 121.122 1137.51 120.335 1137.25 119.66C1136.99 118.98 1136.6 118.452 1136.09 118.075C1135.57 117.693 1134.94 117.502 1134.19 117.502C1133.4 117.502 1132.75 117.704 1132.23 118.106C1131.71 118.504 1131.32 119.045 1131.06 119.731C1130.8 120.411 1130.67 121.174 1130.67 122.022C1130.67 122.88 1130.8 123.659 1131.07 124.36C1131.33 125.056 1131.72 125.61 1132.24 126.023C1132.77 126.431 1133.41 126.635 1134.19 126.635Z" fill="#EE5D4B"/>
</g>
<path d="M808.83 529V505.512H811.966V529H808.83ZM823.262 529L815.518 518.6H819.198L827.07 529H823.262ZM810.782 520.552V517.768H817.054C818.035 517.768 818.878 517.565 819.582 517.16C820.286 516.755 820.83 516.2 821.214 515.496C821.598 514.771 821.79 513.949 821.79 513.032C821.79 512.115 821.598 511.304 821.214 510.6C820.83 509.875 820.286 509.309 819.582 508.904C818.878 508.477 818.035 508.264 817.054 508.264H810.782V505.512H816.478C818.184 505.512 819.678 505.768 820.958 506.28C822.238 506.792 823.23 507.581 823.934 508.648C824.638 509.715 824.99 511.091 824.99 512.776V513.288C824.99 514.973 824.627 516.349 823.902 517.416C823.198 518.483 822.206 519.272 820.926 519.784C819.667 520.296 818.184 520.552 816.478 520.552H810.782ZM837.739 529.576C836.246 529.576 834.955 529.32 833.867 528.808C832.779 528.296 831.894 527.624 831.211 526.792C830.529 525.939 830.017 524.989 829.675 523.944C829.355 522.899 829.195 521.832 829.195 520.744V520.168C829.195 519.059 829.355 517.981 829.675 516.936C830.017 515.891 830.529 514.952 831.211 514.12C831.894 513.267 832.758 512.595 833.803 512.104C834.87 511.592 836.118 511.336 837.547 511.336C839.403 511.336 840.929 511.741 842.123 512.552C843.339 513.341 844.235 514.365 844.811 515.624C845.409 516.883 845.707 518.227 845.707 519.656V521.032H830.539V518.728H843.467L842.763 519.976C842.763 518.76 842.571 517.715 842.187 516.84C841.803 515.944 841.227 515.251 840.459 514.76C839.691 514.269 838.721 514.024 837.547 514.024C836.331 514.024 835.318 514.301 834.507 514.856C833.718 515.411 833.121 516.168 832.715 517.128C832.331 518.088 832.139 519.197 832.139 520.456C832.139 521.672 832.331 522.771 832.715 523.752C833.121 524.712 833.739 525.48 834.571 526.056C835.403 526.611 836.459 526.888 837.739 526.888C839.083 526.888 840.171 526.589 841.003 525.992C841.857 525.395 842.369 524.701 842.539 523.912H845.419C845.185 525.085 844.715 526.099 844.011 526.952C843.307 527.805 842.422 528.456 841.355 528.904C840.289 529.352 839.083 529.576 837.739 529.576ZM860.405 529V523.88H859.893V517.96C859.893 516.787 859.584 515.901 858.965 515.304C858.368 514.707 857.482 514.408 856.309 514.408C855.648 514.408 854.965 514.419 854.261 514.44C853.557 514.461 852.885 514.483 852.245 514.504C851.605 514.525 851.05 514.557 850.581 514.6V511.912C851.05 511.869 851.541 511.837 852.053 511.816C852.586 511.773 853.13 511.752 853.685 511.752C854.24 511.731 854.773 511.72 855.285 511.72C857.034 511.72 858.464 511.933 859.573 512.36C860.682 512.765 861.504 513.437 862.037 514.376C862.57 515.315 862.837 516.584 862.837 518.184V529H860.405ZM854.805 529.448C853.525 529.448 852.416 529.235 851.477 528.808C850.56 528.36 849.845 527.72 849.333 526.888C848.842 526.056 848.597 525.053 848.597 523.88C848.597 522.664 848.864 521.651 849.397 520.84C849.952 520.029 850.752 519.421 851.797 519.016C852.842 518.589 854.101 518.376 855.573 518.376H860.213V520.68H855.445C854.208 520.68 853.258 520.979 852.597 521.576C851.936 522.173 851.605 522.941 851.605 523.88C851.605 524.819 851.936 525.576 852.597 526.152C853.258 526.728 854.208 527.016 855.445 527.016C856.17 527.016 856.864 526.888 857.525 526.632C858.186 526.355 858.73 525.907 859.157 525.288C859.605 524.648 859.85 523.773 859.893 522.664L860.725 523.88C860.618 525.096 860.32 526.12 859.829 526.952C859.36 527.763 858.698 528.381 857.845 528.808C857.013 529.235 856 529.448 854.805 529.448ZM868.667 529V505.64H871.739V529H868.667ZM866.299 508.072V505.64H871.739V508.072H866.299ZM889.905 529V507.816H893.041V529H889.905ZM882.801 508.456V505.64H900.145V508.456H882.801ZM903.776 529V511.912H906.848V529H903.776ZM901.152 514.344V511.912H906.848V514.344H901.152ZM904.64 509.16C903.957 509.16 903.445 508.979 903.104 508.616C902.784 508.253 902.624 507.795 902.624 507.24C902.624 506.685 902.784 506.227 903.104 505.864C903.445 505.501 903.957 505.32 904.64 505.32C905.323 505.32 905.824 505.501 906.144 505.864C906.485 506.227 906.656 506.685 906.656 507.24C906.656 507.795 906.485 508.253 906.144 508.616C905.824 508.979 905.323 509.16 904.64 509.16ZM912.788 529V511.912H915.22V519.24H914.836C914.836 517.576 915.049 516.168 915.476 515.016C915.924 513.843 916.585 512.947 917.46 512.328C918.334 511.709 919.444 511.4 920.788 511.4H920.916C922.26 511.4 923.369 511.709 924.244 512.328C925.14 512.947 925.801 513.843 926.228 515.016C926.654 516.168 926.868 517.576 926.868 519.24H925.972C925.972 517.576 926.196 516.168 926.644 515.016C927.092 513.843 927.753 512.947 928.628 512.328C929.524 511.709 930.644 511.4 931.988 511.4H932.116C933.46 511.4 934.58 511.709 935.476 512.328C936.372 512.947 937.033 513.843 937.46 515.016C937.908 516.168 938.132 517.576 938.132 519.24V529H935.06V518.568C935.06 517.181 934.718 516.115 934.036 515.368C933.353 514.6 932.404 514.216 931.188 514.216C929.929 514.216 928.916 514.621 928.148 515.432C927.38 516.221 926.996 517.331 926.996 518.76V529H923.924V518.568C923.924 517.181 923.582 516.115 922.9 515.368C922.217 514.6 921.268 514.216 920.052 514.216C918.793 514.216 917.78 514.621 917.012 515.432C916.244 516.221 915.86 517.331 915.86 518.76V529H912.788ZM951.021 529.576C949.527 529.576 948.237 529.32 947.149 528.808C946.061 528.296 945.175 527.624 944.493 526.792C943.81 525.939 943.298 524.989 942.957 523.944C942.637 522.899 942.477 521.832 942.477 520.744V520.168C942.477 519.059 942.637 517.981 942.957 516.936C943.298 515.891 943.81 514.952 944.493 514.12C945.175 513.267 946.039 512.595 947.085 512.104C948.151 511.592 949.399 511.336 950.829 511.336C952.685 511.336 954.21 511.741 955.405 512.552C956.621 513.341 957.517 514.365 958.093 515.624C958.69 516.883 958.989 518.227 958.989 519.656V521.032H943.821V518.728H956.749L956.045 519.976C956.045 518.76 955.853 517.715 955.469 516.84C955.085 515.944 954.509 515.251 953.741 514.76C952.973 514.269 952.002 514.024 950.829 514.024C949.613 514.024 948.599 514.301 947.789 514.856C946.999 515.411 946.402 516.168 945.997 517.128C945.613 518.088 945.421 519.197 945.421 520.456C945.421 521.672 945.613 522.771 945.997 523.752C946.402 524.712 947.021 525.48 947.853 526.056C948.685 526.611 949.741 526.888 951.021 526.888C952.365 526.888 953.453 526.589 954.285 525.992C955.138 525.395 955.65 524.701 955.821 523.912H958.701C958.466 525.085 957.997 526.099 957.293 526.952C956.589 527.805 955.703 528.456 954.637 528.904C953.57 529.352 952.365 529.576 951.021 529.576ZM968.584 529L977 505.64H982.312L990.984 529H987.752L979.912 507.688L981.448 508.456H977.672L979.304 507.688L971.72 529H968.584ZM973.608 522.024L974.664 519.208H984.744L985.8 522.024H973.608ZM995.331 529V505.64H998.467V529H995.331ZM1022.75 529.576C1020.62 529.576 1018.8 529.203 1017.28 528.456C1015.79 527.709 1014.58 526.739 1013.67 525.544C1012.75 524.349 1012.08 523.059 1011.65 521.672C1011.22 520.264 1011.01 518.909 1011.01 517.608V516.904C1011.01 515.496 1011.22 514.088 1011.65 512.68C1012.1 511.272 1012.78 509.992 1013.7 508.84C1014.62 507.688 1015.81 506.76 1017.28 506.056C1018.75 505.352 1020.51 505 1022.56 505C1024.65 505 1026.45 505.363 1027.94 506.088C1029.43 506.813 1030.62 507.827 1031.49 509.128C1032.37 510.429 1032.9 511.965 1033.09 513.736H1029.89C1029.72 512.413 1029.29 511.325 1028.61 510.472C1027.93 509.597 1027.06 508.947 1026.02 508.52C1024.99 508.093 1023.84 507.88 1022.56 507.88C1021.18 507.88 1019.96 508.125 1018.91 508.616C1017.87 509.085 1016.99 509.757 1016.29 510.632C1015.61 511.485 1015.09 512.477 1014.72 513.608C1014.38 514.739 1014.21 515.965 1014.21 517.288C1014.21 518.547 1014.38 519.741 1014.72 520.872C1015.09 522.003 1015.62 523.005 1016.32 523.88C1017.05 524.755 1017.94 525.448 1019.01 525.96C1020.08 526.451 1021.33 526.696 1022.75 526.696C1024.76 526.696 1026.45 526.195 1027.81 525.192C1029.18 524.189 1030.01 522.739 1030.31 520.84H1033.51C1033.29 522.44 1032.75 523.901 1031.87 525.224C1031.02 526.547 1029.83 527.603 1028.29 528.392C1026.78 529.181 1024.93 529.576 1022.75 529.576ZM1045.47 529.576C1043.98 529.576 1042.67 529.32 1041.54 528.808C1040.41 528.296 1039.45 527.624 1038.66 526.792C1037.89 525.939 1037.3 524.989 1036.9 523.944C1036.51 522.899 1036.32 521.832 1036.32 520.744V520.168C1036.32 519.08 1036.52 518.013 1036.93 516.968C1037.33 515.901 1037.93 514.952 1038.72 514.12C1039.51 513.267 1040.47 512.595 1041.6 512.104C1042.73 511.592 1044.02 511.336 1045.47 511.336C1046.92 511.336 1048.21 511.592 1049.34 512.104C1050.47 512.595 1051.43 513.267 1052.22 514.12C1053.01 514.952 1053.61 515.901 1054.02 516.968C1054.42 518.013 1054.62 519.08 1054.62 520.168V520.744C1054.62 521.832 1054.42 522.899 1054.02 523.944C1053.63 524.989 1053.05 525.939 1052.26 526.792C1051.49 527.624 1050.54 528.296 1049.41 528.808C1048.28 529.32 1046.97 529.576 1045.47 529.576ZM1045.47 526.824C1046.75 526.824 1047.84 526.547 1048.74 525.992C1049.65 525.416 1050.35 524.648 1050.82 523.688C1051.31 522.728 1051.55 521.651 1051.55 520.456C1051.55 519.24 1051.31 518.152 1050.82 517.192C1050.33 516.232 1049.62 515.475 1048.7 514.92C1047.81 514.365 1046.73 514.088 1045.47 514.088C1044.23 514.088 1043.16 514.365 1042.24 514.92C1041.32 515.475 1040.62 516.232 1040.13 517.192C1039.64 518.152 1039.39 519.24 1039.39 520.456C1039.39 521.651 1039.63 522.728 1040.1 523.688C1040.59 524.648 1041.28 525.416 1042.18 525.992C1043.09 526.547 1044.19 526.824 1045.47 526.824ZM1069.56 529V523.88H1069.05V517.96C1069.05 516.787 1068.74 515.901 1068.12 515.304C1067.52 514.707 1066.64 514.408 1065.47 514.408C1064.8 514.408 1064.12 514.419 1063.42 514.44C1062.71 514.461 1062.04 514.483 1061.4 514.504C1060.76 514.525 1060.21 514.557 1059.74 514.6V511.912C1060.21 511.869 1060.7 511.837 1061.21 511.816C1061.74 511.773 1062.29 511.752 1062.84 511.752C1063.4 511.731 1063.93 511.72 1064.44 511.72C1066.19 511.72 1067.62 511.933 1068.73 512.36C1069.84 512.765 1070.66 513.437 1071.19 514.376C1071.73 515.315 1071.99 516.584 1071.99 518.184V529H1069.56ZM1063.96 529.448C1062.68 529.448 1061.57 529.235 1060.63 528.808C1059.72 528.36 1059 527.72 1058.49 526.888C1058 526.056 1057.75 525.053 1057.75 523.88C1057.75 522.664 1058.02 521.651 1058.55 520.84C1059.11 520.029 1059.91 519.421 1060.95 519.016C1062 518.589 1063.26 518.376 1064.73 518.376H1069.37V520.68H1064.6C1063.36 520.68 1062.41 520.979 1061.75 521.576C1061.09 522.173 1060.76 522.941 1060.76 523.88C1060.76 524.819 1061.09 525.576 1061.75 526.152C1062.41 526.728 1063.36 527.016 1064.6 527.016C1065.33 527.016 1066.02 526.888 1066.68 526.632C1067.34 526.355 1067.89 525.907 1068.31 525.288C1068.76 524.648 1069.01 523.773 1069.05 522.664L1069.88 523.88C1069.77 525.096 1069.48 526.12 1068.99 526.952C1068.52 527.763 1067.85 528.381 1067 528.808C1066.17 529.235 1065.16 529.448 1063.96 529.448ZM1084.96 529.576C1083.49 529.576 1082.21 529.32 1081.12 528.808C1080.05 528.296 1079.17 527.613 1078.46 526.76C1077.76 525.885 1077.23 524.925 1076.86 523.88C1076.52 522.835 1076.35 521.789 1076.35 520.744V520.168C1076.35 519.08 1076.52 518.013 1076.86 516.968C1077.23 515.923 1077.76 514.984 1078.46 514.152C1079.19 513.299 1080.08 512.616 1081.15 512.104C1082.22 511.592 1083.47 511.336 1084.9 511.336C1086.32 511.336 1087.6 511.603 1088.74 512.136C1089.89 512.669 1090.8 513.427 1091.49 514.408C1092.19 515.368 1092.59 516.509 1092.67 517.832H1089.73C1089.58 516.765 1089.09 515.88 1088.26 515.176C1087.42 514.451 1086.3 514.088 1084.9 514.088C1083.68 514.088 1082.67 514.365 1081.86 514.92C1081.04 515.475 1080.44 516.232 1080.03 517.192C1079.63 518.152 1079.42 519.24 1079.42 520.456C1079.42 521.629 1079.63 522.707 1080.03 523.688C1080.44 524.648 1081.04 525.416 1081.86 525.992C1082.69 526.547 1083.72 526.824 1084.96 526.824C1085.92 526.824 1086.75 526.653 1087.46 526.312C1088.16 525.971 1088.72 525.512 1089.15 524.936C1089.58 524.36 1089.83 523.709 1089.92 522.984H1092.86C1092.8 524.328 1092.4 525.491 1091.68 526.472C1090.98 527.453 1090.04 528.221 1088.86 528.776C1087.71 529.309 1086.41 529.576 1084.96 529.576ZM1097.04 529V505.64H1100.11V519.592H1099.34C1099.34 517.907 1099.56 516.456 1099.98 515.24C1100.43 514.003 1101.11 513.053 1102.03 512.392C1102.95 511.731 1104.12 511.4 1105.55 511.4H1105.68C1107.73 511.4 1109.27 512.083 1110.32 513.448C1111.36 514.792 1111.89 516.723 1111.89 519.24V529H1108.81V518.6C1108.81 517.213 1108.42 516.136 1107.63 515.368C1106.86 514.6 1105.86 514.216 1104.62 514.216C1103.26 514.216 1102.16 514.675 1101.33 515.592C1100.52 516.488 1100.11 517.672 1100.11 519.144V529H1097.04ZM766.357 560.872V558.12H771.573C772.682 558.12 773.599 557.907 774.325 557.48C775.05 557.032 775.594 556.435 775.957 555.688C776.341 554.941 776.533 554.109 776.533 553.192C776.533 552.253 776.341 551.411 775.957 550.664C775.594 549.917 775.05 549.331 774.325 548.904C773.599 548.477 772.682 548.264 771.573 548.264H766.357V545.512H770.997C772.917 545.512 774.517 545.821 775.797 546.44C777.098 547.037 778.079 547.891 778.741 549C779.402 550.109 779.733 551.421 779.733 552.936V553.448C779.733 554.941 779.402 556.253 778.741 557.384C778.079 558.493 777.098 559.357 775.797 559.976C774.517 560.573 772.917 560.872 770.997 560.872H766.357ZM763.861 569V545.512H766.997V569H763.861ZM784.074 569V545.64H787.146V569H784.074ZM781.706 548.072V545.64H787.146V548.072H781.706ZM803.374 569V563.88H802.862V557.96C802.862 556.787 802.552 555.901 801.934 555.304C801.336 554.707 800.451 554.408 799.278 554.408C798.616 554.408 797.934 554.419 797.23 554.44C796.526 554.461 795.854 554.483 795.214 554.504C794.574 554.525 794.019 554.557 793.55 554.6V551.912C794.019 551.869 794.51 551.837 795.022 551.816C795.555 551.773 796.099 551.752 796.654 551.752C797.208 551.731 797.742 551.72 798.254 551.72C800.003 551.72 801.432 551.933 802.542 552.36C803.651 552.765 804.472 553.437 805.006 554.376C805.539 555.315 805.806 556.584 805.806 558.184V569H803.374ZM797.774 569.448C796.494 569.448 795.384 569.235 794.446 568.808C793.528 568.36 792.814 567.72 792.302 566.888C791.811 566.056 791.566 565.053 791.566 563.88C791.566 562.664 791.832 561.651 792.366 560.84C792.92 560.029 793.72 559.421 794.766 559.016C795.811 558.589 797.07 558.376 798.542 558.376H803.182V560.68H798.414C797.176 560.68 796.227 560.979 795.566 561.576C794.904 562.173 794.574 562.941 794.574 563.88C794.574 564.819 794.904 565.576 795.566 566.152C796.227 566.728 797.176 567.016 798.414 567.016C799.139 567.016 799.832 566.888 800.494 566.632C801.155 566.355 801.699 565.907 802.126 565.288C802.574 564.648 802.819 563.773 802.862 562.664L803.694 563.88C803.587 565.096 803.288 566.12 802.798 566.952C802.328 567.763 801.667 568.381 800.814 568.808C799.982 569.235 798.968 569.448 797.774 569.448ZM810.23 575.656V572.904H812.694C813.419 572.904 814.027 572.808 814.518 572.616C815.03 572.445 815.446 572.147 815.766 571.72C816.107 571.293 816.384 570.728 816.598 570.024L821.974 551.912H824.982L819.286 570.824C818.944 571.955 818.464 572.872 817.845 573.576C817.227 574.301 816.47 574.824 815.574 575.144C814.699 575.485 813.675 575.656 812.502 575.656H810.23ZM815.446 568.616V566.056H819.158V568.616H815.446ZM815.126 568.616L809.014 551.912H812.15L818.006 568.616H815.126ZM844.195 569.576C842.253 569.576 840.6 569.256 839.235 568.616C837.869 567.976 836.824 567.091 836.099 565.96C835.373 564.829 835.011 563.549 835.011 562.12H838.147C838.147 562.824 838.328 563.528 838.691 564.232C839.075 564.936 839.704 565.523 840.579 565.992C841.475 566.461 842.68 566.696 844.195 566.696C845.603 566.696 846.755 566.493 847.651 566.088C848.547 565.661 849.208 565.117 849.635 564.456C850.061 563.773 850.275 563.037 850.275 562.248C850.275 561.288 849.859 560.499 849.027 559.88C848.195 559.24 846.979 558.845 845.379 558.696L842.787 558.472C840.717 558.301 839.064 557.661 837.827 556.552C836.589 555.443 835.971 553.981 835.971 552.168C835.971 550.739 836.312 549.491 836.995 548.424C837.699 547.357 838.669 546.525 839.907 545.928C841.144 545.309 842.584 545 844.227 545C845.848 545 847.277 545.299 848.515 545.896C849.752 546.493 850.712 547.336 851.395 548.424C852.099 549.491 852.451 550.771 852.451 552.264H849.315C849.315 551.517 849.133 550.813 848.771 550.152C848.429 549.491 847.885 548.947 847.139 548.52C846.392 548.093 845.421 547.88 844.227 547.88C843.075 547.88 842.115 548.083 841.347 548.488C840.6 548.893 840.035 549.427 839.651 550.088C839.288 550.728 839.107 551.421 839.107 552.168C839.107 553.021 839.437 553.779 840.099 554.44C840.76 555.101 841.741 555.485 843.043 555.592L845.635 555.816C847.235 555.944 848.611 556.285 849.763 556.84C850.936 557.373 851.832 558.099 852.451 559.016C853.091 559.912 853.411 560.989 853.411 562.248C853.411 563.677 853.027 564.947 852.259 566.056C851.491 567.165 850.413 568.029 849.027 568.648C847.64 569.267 846.029 569.576 844.195 569.576ZM858.225 569V551.912H860.657V559.24H860.273C860.273 557.576 860.487 556.168 860.913 555.016C861.361 553.843 862.023 552.947 862.897 552.328C863.772 551.709 864.881 551.4 866.225 551.4H866.353C867.697 551.4 868.807 551.709 869.681 552.328C870.577 552.947 871.239 553.843 871.665 555.016C872.092 556.168 872.305 557.576 872.305 559.24H871.409C871.409 557.576 871.633 556.168 872.081 555.016C872.529 553.843 873.191 552.947 874.065 552.328C874.961 551.709 876.081 551.4 877.425 551.4H877.553C878.897 551.4 880.017 551.709 880.913 552.328C881.809 552.947 882.471 553.843 882.897 555.016C883.345 556.168 883.569 557.576 883.569 559.24V569H880.497V558.568C880.497 557.181 880.156 556.115 879.473 555.368C878.791 554.6 877.841 554.216 876.625 554.216C875.367 554.216 874.353 554.621 873.585 555.432C872.817 556.221 872.433 557.331 872.433 558.76V569H869.361V558.568C869.361 557.181 869.02 556.115 868.337 555.368C867.655 554.6 866.705 554.216 865.489 554.216C864.231 554.216 863.217 554.621 862.449 555.432C861.681 556.221 861.297 557.331 861.297 558.76V569H858.225ZM899.53 569V563.88H899.018V557.96C899.018 556.787 898.709 555.901 898.09 555.304C897.493 554.707 896.607 554.408 895.434 554.408C894.773 554.408 894.09 554.419 893.386 554.44C892.682 554.461 892.01 554.483 891.37 554.504C890.73 554.525 890.175 554.557 889.706 554.6V551.912C890.175 551.869 890.666 551.837 891.178 551.816C891.711 551.773 892.255 551.752 892.81 551.752C893.365 551.731 893.898 551.72 894.41 551.72C896.159 551.72 897.589 551.933 898.698 552.36C899.807 552.765 900.629 553.437 901.162 554.376C901.695 555.315 901.962 556.584 901.962 558.184V569H899.53ZM893.93 569.448C892.65 569.448 891.541 569.235 890.602 568.808C889.685 568.36 888.97 567.72 888.458 566.888C887.967 566.056 887.722 565.053 887.722 563.88C887.722 562.664 887.989 561.651 888.522 560.84C889.077 560.029 889.877 559.421 890.922 559.016C891.967 558.589 893.226 558.376 894.698 558.376H899.338V560.68H894.57C893.333 560.68 892.383 560.979 891.722 561.576C891.061 562.173 890.73 562.941 890.73 563.88C890.73 564.819 891.061 565.576 891.722 566.152C892.383 566.728 893.333 567.016 894.57 567.016C895.295 567.016 895.989 566.888 896.65 566.632C897.311 566.355 897.855 565.907 898.282 565.288C898.73 564.648 898.975 563.773 899.018 562.664L899.85 563.88C899.743 565.096 899.445 566.12 898.954 566.952C898.485 567.763 897.823 568.381 896.97 568.808C896.138 569.235 895.125 569.448 893.93 569.448ZM907.6 569V551.912H910.032V558.952H909.904C909.904 556.456 910.448 554.632 911.536 553.48C912.646 552.307 914.299 551.72 916.496 551.72H917.072V554.472H915.984C914.278 554.472 912.966 554.931 912.048 555.848C911.131 556.744 910.672 558.045 910.672 559.752V569H907.6ZM927.694 569.192C926.414 569.192 925.304 569.011 924.366 568.648C923.448 568.285 922.734 567.667 922.222 566.792C921.731 565.896 921.486 564.691 921.486 563.176V546.728H924.43V563.56C924.43 564.477 924.675 565.192 925.166 565.704C925.678 566.195 926.392 566.44 927.31 566.44H930.318V569.192H927.694ZM918.542 554.216V551.912H930.318V554.216H918.542ZM941.802 569.576C940.308 569.576 939.018 569.32 937.93 568.808C936.842 568.296 935.956 567.624 935.274 566.792C934.591 565.939 934.079 564.989 933.738 563.944C933.418 562.899 933.258 561.832 933.258 560.744V560.168C933.258 559.059 933.418 557.981 933.738 556.936C934.079 555.891 934.591 554.952 935.274 554.12C935.956 553.267 936.82 552.595 937.866 552.104C938.932 551.592 940.18 551.336 941.61 551.336C943.466 551.336 944.991 551.741 946.186 552.552C947.402 553.341 948.298 554.365 948.874 555.624C949.471 556.883 949.77 558.227 949.77 559.656V561.032H934.602V558.728H947.53L946.826 559.976C946.826 558.76 946.634 557.715 946.25 556.84C945.866 555.944 945.29 555.251 944.522 554.76C943.754 554.269 942.783 554.024 941.61 554.024C940.394 554.024 939.38 554.301 938.57 554.856C937.78 555.411 937.183 556.168 936.778 557.128C936.394 558.088 936.202 559.197 936.202 560.456C936.202 561.672 936.394 562.771 936.778 563.752C937.183 564.712 937.802 565.48 938.634 566.056C939.466 566.611 940.522 566.888 941.802 566.888C943.146 566.888 944.234 566.589 945.066 565.992C945.919 565.395 946.431 564.701 946.602 563.912H949.482C949.247 565.085 948.778 566.099 948.074 566.952C947.37 567.805 946.484 568.456 945.418 568.904C944.351 569.352 943.146 569.576 941.802 569.576ZM954.132 569V551.912H956.564V558.952H956.436C956.436 556.456 956.98 554.632 958.068 553.48C959.177 552.307 960.83 551.72 963.028 551.72H963.604V554.472H962.516C960.809 554.472 959.497 554.931 958.58 555.848C957.662 556.744 957.204 558.045 957.204 559.752V569H954.132ZM965.64 574.024L963.176 573.096L966.152 564.84L968.68 565.8L965.64 574.024ZM981.392 569V545.64H986.512L998.384 566.184H999.408L998.768 566.76V545.64H1001.78V569H996.592L984.72 548.456H983.696L984.336 547.88V569H981.392ZM1015.97 569.576C1014.48 569.576 1013.17 569.32 1012.04 568.808C1010.91 568.296 1009.95 567.624 1009.16 566.792C1008.39 565.939 1007.8 564.989 1007.4 563.944C1007.01 562.899 1006.82 561.832 1006.82 560.744V560.168C1006.82 559.08 1007.02 558.013 1007.43 556.968C1007.83 555.901 1008.43 554.952 1009.22 554.12C1010.01 553.267 1010.97 552.595 1012.1 552.104C1013.23 551.592 1014.52 551.336 1015.97 551.336C1017.42 551.336 1018.71 551.592 1019.84 552.104C1020.97 552.595 1021.93 553.267 1022.72 554.12C1023.51 554.952 1024.11 555.901 1024.52 556.968C1024.92 558.013 1025.12 559.08 1025.12 560.168V560.744C1025.12 561.832 1024.92 562.899 1024.52 563.944C1024.13 564.989 1023.55 565.939 1022.76 566.792C1021.99 567.624 1021.04 568.296 1019.91 568.808C1018.78 569.32 1017.47 569.576 1015.97 569.576ZM1015.97 566.824C1017.25 566.824 1018.34 566.547 1019.24 565.992C1020.15 565.416 1020.85 564.648 1021.32 563.688C1021.81 562.728 1022.05 561.651 1022.05 560.456C1022.05 559.24 1021.81 558.152 1021.32 557.192C1020.83 556.232 1020.12 555.475 1019.2 554.92C1018.31 554.365 1017.23 554.088 1015.97 554.088C1014.73 554.088 1013.66 554.365 1012.74 554.92C1011.82 555.475 1011.12 556.232 1010.63 557.192C1010.14 558.152 1009.89 559.24 1009.89 560.456C1009.89 561.651 1010.13 562.728 1010.6 563.688C1011.09 564.648 1011.78 565.416 1012.68 565.992C1013.59 566.547 1014.69 566.824 1015.97 566.824ZM1036.38 569.192C1035.1 569.192 1033.99 569.011 1033.05 568.648C1032.14 568.285 1031.42 567.667 1030.91 566.792C1030.42 565.896 1030.17 564.691 1030.17 563.176V546.728H1033.12V563.56C1033.12 564.477 1033.36 565.192 1033.85 565.704C1034.37 566.195 1035.08 566.44 1036 566.44H1039.01V569.192H1036.38ZM1027.23 554.216V551.912H1039.01V554.216H1027.23ZM1066.89 569V545.64H1070.02V569H1066.89ZM1051.08 569V545.64H1054.22V569H1051.08ZM1053.58 558.792V555.976H1067.53V558.792H1053.58ZM1086.69 569V563.88H1086.17V557.96C1086.17 556.787 1085.86 555.901 1085.25 555.304C1084.65 554.707 1083.76 554.408 1082.59 554.408C1081.93 554.408 1081.25 554.419 1080.54 554.44C1079.84 554.461 1079.17 554.483 1078.53 554.504C1077.89 554.525 1077.33 554.557 1076.86 554.6V551.912C1077.33 551.869 1077.82 551.837 1078.33 551.816C1078.87 551.773 1079.41 551.752 1079.97 551.752C1080.52 551.731 1081.05 551.72 1081.57 551.72C1083.32 551.72 1084.74 551.933 1085.85 552.36C1086.96 552.765 1087.78 553.437 1088.32 554.376C1088.85 555.315 1089.12 556.584 1089.12 558.184V569H1086.69ZM1081.09 569.448C1079.81 569.448 1078.7 569.235 1077.76 568.808C1076.84 568.36 1076.13 567.72 1075.61 566.888C1075.12 566.056 1074.88 565.053 1074.88 563.88C1074.88 562.664 1075.14 561.651 1075.68 560.84C1076.23 560.029 1077.03 559.421 1078.08 559.016C1079.12 558.589 1080.38 558.376 1081.85 558.376H1086.49V560.68H1081.73C1080.49 560.68 1079.54 560.979 1078.88 561.576C1078.22 562.173 1077.89 562.941 1077.89 563.88C1077.89 564.819 1078.22 565.576 1078.88 566.152C1079.54 566.728 1080.49 567.016 1081.73 567.016C1082.45 567.016 1083.14 566.888 1083.81 566.632C1084.47 566.355 1085.01 565.907 1085.44 565.288C1085.89 564.648 1086.13 563.773 1086.17 562.664L1087.01 563.88C1086.9 565.096 1086.6 566.12 1086.11 566.952C1085.64 567.763 1084.98 568.381 1084.13 568.808C1083.29 569.235 1082.28 569.448 1081.09 569.448ZM1094.76 569V551.912H1097.19V558.952H1097.06C1097.06 556.456 1097.6 554.632 1098.69 553.48C1099.8 552.307 1101.46 551.72 1103.65 551.72H1104.23V554.472H1103.14C1101.43 554.472 1100.12 554.931 1099.2 555.848C1098.29 556.744 1097.83 558.045 1097.83 559.752V569H1094.76ZM1114.83 569.576C1113.61 569.576 1112.49 569.352 1111.47 568.904C1110.45 568.456 1109.55 567.827 1108.78 567.016C1108.04 566.205 1107.45 565.267 1107.02 564.2C1106.62 563.133 1106.41 561.981 1106.41 560.744V560.168C1106.41 558.952 1106.62 557.811 1107.02 556.744C1107.43 555.677 1107.99 554.739 1108.72 553.928C1109.46 553.117 1110.34 552.488 1111.34 552.04C1112.37 551.571 1113.5 551.336 1114.73 551.336C1116.04 551.336 1117.22 551.613 1118.29 552.168C1119.35 552.701 1120.23 553.544 1120.91 554.696C1121.59 555.848 1121.98 557.341 1122.06 559.176L1120.78 557.128V545.64H1123.85V569H1121.42V561.416H1122.32C1122.23 563.357 1121.83 564.936 1121.1 566.152C1120.38 567.347 1119.46 568.221 1118.35 568.776C1117.26 569.309 1116.09 569.576 1114.83 569.576ZM1115.25 566.888C1116.29 566.888 1117.24 566.653 1118.09 566.184C1118.95 565.715 1119.63 565.043 1120.14 564.168C1120.65 563.272 1120.91 562.227 1120.91 561.032V559.56C1120.91 558.387 1120.64 557.395 1120.11 556.584C1119.6 555.752 1118.9 555.123 1118.03 554.696C1117.18 554.248 1116.24 554.024 1115.21 554.024C1114.08 554.024 1113.08 554.291 1112.21 554.824C1111.35 555.357 1110.68 556.104 1110.19 557.064C1109.72 558.024 1109.49 559.155 1109.49 560.456C1109.49 561.757 1109.73 562.899 1110.22 563.88C1110.71 564.84 1111.4 565.587 1112.27 566.12C1113.14 566.632 1114.14 566.888 1115.25 566.888ZM1137.02 569.576C1135.53 569.576 1134.24 569.32 1133.15 568.808C1132.06 568.296 1131.18 567.624 1130.49 566.792C1129.81 565.939 1129.3 564.989 1128.96 563.944C1128.64 562.899 1128.48 561.832 1128.48 560.744V560.168C1128.48 559.059 1128.64 557.981 1128.96 556.936C1129.3 555.891 1129.81 554.952 1130.49 554.12C1131.18 553.267 1132.04 552.595 1133.08 552.104C1134.15 551.592 1135.4 551.336 1136.83 551.336C1138.68 551.336 1140.21 551.741 1141.4 552.552C1142.62 553.341 1143.52 554.365 1144.09 555.624C1144.69 556.883 1144.99 558.227 1144.99 559.656V561.032H1129.82V558.728H1142.75L1142.04 559.976C1142.04 558.76 1141.85 557.715 1141.47 556.84C1141.08 555.944 1140.51 555.251 1139.74 554.76C1138.97 554.269 1138 554.024 1136.83 554.024C1135.61 554.024 1134.6 554.301 1133.79 554.856C1133 555.411 1132.4 556.168 1132 557.128C1131.61 558.088 1131.42 559.197 1131.42 560.456C1131.42 561.672 1131.61 562.771 1132 563.752C1132.4 564.712 1133.02 565.48 1133.85 566.056C1134.68 566.611 1135.74 566.888 1137.02 566.888C1138.36 566.888 1139.45 566.589 1140.28 565.992C1141.14 565.395 1141.65 564.701 1141.82 563.912H1144.7C1144.47 565.085 1144 566.099 1143.29 566.952C1142.59 567.805 1141.7 568.456 1140.64 568.904C1139.57 569.352 1138.36 569.576 1137.02 569.576ZM1149.35 569V551.912H1151.78V558.952H1151.65C1151.65 556.456 1152.2 554.632 1153.29 553.48C1154.4 552.307 1156.05 551.72 1158.25 551.72H1158.82V554.472H1157.73C1156.03 554.472 1154.72 554.931 1153.8 555.848C1152.88 556.744 1152.42 558.045 1152.42 559.752V569H1149.35Z" fill="url(#paint1_linear_1_6986)"/>
<g filter="url(#filter3_dd_1_6986)">
<rect x="408" y="764" width="1108" height="277" rx="27.7" fill="#282828"/>
<g filter="url(#filter4_di_1_6986)">
<path d="M408 791.7C408 776.402 420.402 764 435.7 764H1488.3C1503.6 764 1516 776.402 1516 791.7V841.56H408V791.7Z" fill="#1E1E1E"/>
<path fill-rule="evenodd" clip-rule="evenodd" d="M446.78 819.4C455.959 819.4 463.4 811.959 463.4 802.78C463.4 793.601 455.959 786.16 446.78 786.16C437.601 786.16 430.16 793.601 430.16 802.78C430.16 811.959 437.601 819.4 446.78 819.4Z" fill="#ED6A5F"/>
<path fill-rule="evenodd" clip-rule="evenodd" d="M502.18 819.4C511.359 819.4 518.8 811.959 518.8 802.78C518.8 793.601 511.359 786.16 502.18 786.16C493.001 786.16 485.56 793.601 485.56 802.78C485.56 811.959 493.001 819.4 502.18 819.4Z" fill="#F5BF4F"/>
<path fill-rule="evenodd" clip-rule="evenodd" d="M557.58 819.4C566.759 819.4 574.2 811.959 574.2 802.78C574.2 793.601 566.759 786.16 557.58 786.16C548.401 786.16 540.96 793.601 540.96 802.78C540.96 811.959 548.401 819.4 557.58 819.4Z" fill="#61C554"/>
</g>
</g>
</g>
<defs>
<filter id="filter0_f_1_6986" x="-226.47" y="122.605" width="2410.39" height="2233.62" filterUnits="userSpaceOnUse" color-interpolation-filters="sRGB">
<feFlood flood-opacity="0" result="BackgroundImageFix"/>
<feBlend mode="normal" in="SourceGraphic" in2="BackgroundImageFix" result="shape"/>
<feGaussianBlur stdDeviation="267" result="effect1_foregroundBlur_1_6986"/>
</filter>
<filter id="filter1_f_1_6986" x="291.804" y="613.453" width="1373.84" height="1251.93" filterUnits="userSpaceOnUse" color-interpolation-filters="sRGB">
<feFlood flood-opacity="0" result="BackgroundImageFix"/>
<feBlend mode="normal" in="SourceGraphic" in2="BackgroundImageFix" result="shape"/>
<feGaussianBlur stdDeviation="112" result="effect1_foregroundBlur_1_6986"/>
</filter>
<filter id="filter2_d_1_6986" x="670.2" y="6.19999" width="579.886" height="235.695" filterUnits="userSpaceOnUse" color-interpolation-filters="sRGB">
<feFlood flood-opacity="0" result="BackgroundImageFix"/>
<feColorMatrix in="SourceAlpha" type="matrix" values="0 0 0 0 0 0 0 0 0 0 0 0 0 0 0 0 0 0 127 0" result="hardAlpha"/>
<feMorphology radius="2" operator="dilate" in="SourceAlpha" result="effect1_dropShadow_1_6986"/>
<feOffset dy="4"/>
<feGaussianBlur stdDeviation="43.4"/>
<feComposite in2="hardAlpha" operator="out"/>
<feColorMatrix type="matrix" values="0 0 0 0 0.933333 0 0 0 0 0.364706 0 0 0 0 0.294118 0 0 0 0.5 0"/>
<feBlend mode="normal" in2="BackgroundImageFix" result="effect1_dropShadow_1_6986"/>
<feBlend mode="normal" in="SourceGraphic" in2="effect1_dropShadow_1_6986" result="shape"/>
</filter>
<filter id="filter3_dd_1_6986" x="324.9" y="708.6" width="1274.2" height="484.75" filterUnits="userSpaceOnUse" color-interpolation-filters="sRGB">
<feFlood flood-opacity="0" result="BackgroundImageFix"/>
<feColorMatrix in="SourceAlpha" type="matrix" values="0 0 0 0 0 0 0 0 0 0 0 0 0 0 0 0 0 0 127 0" result="hardAlpha"/>
<feOffset dy="69.25"/>
<feGaussianBlur stdDeviation="41.55"/>
<feComposite in2="hardAlpha" operator="out"/>
<feColorMatrix type="matrix" values="0 0 0 0 0 0 0 0 0 0 0 0 0 0 0 0 0 0 0.35 0"/>
<feBlend mode="normal" in2="BackgroundImageFix" result="effect1_dropShadow_1_6986"/>
<feColorMatrix in="SourceAlpha" type="matrix" values="0 0 0 0 0 0 0 0 0 0 0 0 0 0 0 0 0 0 127 0" result="hardAlpha"/>
<feOffset/>
<feGaussianBlur stdDeviation="27.7"/>
<feComposite in2="hardAlpha" operator="out"/>
<feColorMatrix type="matrix" values="0 0 0 0 0 0 0 0 0 0 0 0 0 0 0 0 0 0 0.15 0"/>
<feBlend mode="normal" in2="effect1_dropShadow_1_6986" result="effect2_dropShadow_1_6986"/>
<feBlend mode="normal" in="SourceGraphic" in2="effect2_dropShadow_1_6986" result="shape"/>
</filter>
<filter id="filter4_di_1_6986" x="408" y="764" width="1108" height="78.945" filterUnits="userSpaceOnUse" color-interpolation-filters="sRGB">
<feFlood flood-opacity="0" result="BackgroundImageFix"/>
<feColorMatrix in="SourceAlpha" type="matrix" values="0 0 0 0 0 0 0 0 0 0 0 0 0 0 0 0 0 0 127 0" result="hardAlpha"/>
<feOffset dy="1.385"/>
<feColorMatrix type="matrix" values="0 0 0 0 0 0 0 0 0 0 0 0 0 0 0 0 0 0 0.15 0"/>
<feBlend mode="normal" in2="BackgroundImageFix" result="effect1_dropShadow_1_6986"/>
<feBlend mode="normal" in="SourceGraphic" in2="effect1_dropShadow_1_6986" result="shape"/>
<feColorMatrix in="SourceAlpha" type="matrix" values="0 0 0 0 0 0 0 0 0 0 0 0 0 0 0 0 0 0 127 0" result="hardAlpha"/>
<feOffset dy="-1.385"/>
<feComposite in2="hardAlpha" operator="arithmetic" k2="-1" k3="1"/>
<feColorMatrix type="matrix" values="0 0 0 0 0 0 0 0 0 0 0 0 0 0 0 0 0 0 0.05 0"/>
<feBlend mode="normal" in2="shape" result="effect2_innerShadow_1_6986"/>
</filter>
<linearGradient id="paint0_linear_1_6986" x1="959.5" y1="218" x2="959.5" y2="468" gradientUnits="userSpaceOnUse">
<stop stop-color="#EE5D4B"/>
<stop offset="0.814472" stop-color="#ED4732"/>
<stop offset="1" stop-color="#B82E1D"/>
</linearGradient>
<linearGradient id="paint1_linear_1_6986" x1="960" y1="498" x2="960" y2="578" gradientUnits="userSpaceOnUse">
<stop stop-color="#FED0CA"/>
<stop offset="1" stop-color="#FBAFA6"/>
</linearGradient>
<clipPath id="clip0_1_6986">
<rect width="1920" height="996" fill="white"/>
</clipPath>
</defs>
</svg>
