<svg width="254" height="147" viewBox="0 0 254 147" fill="none" xmlns="http://www.w3.org/2000/svg">
<path d="M231.34 0H56.4996C44.0916 0 33.9396 10.152 33.9396 22.56V31.02C33.9396 34.122 36.4776 36.66 39.5796 36.66C42.6816 36.66 45.2196 34.122 45.2196 31.02V22.56C45.2196 21.432 45.5016 20.304 45.7836 19.176L108.952 73.32L45.7836 127.464C45.5016 126.336 45.2196 125.208 45.2196 124.08V115.62C45.2196 112.518 42.6816 109.98 39.5796 109.98C36.4776 109.98 33.9396 112.518 33.9396 115.62V124.08C33.9396 136.488 44.0916 146.64 56.4996 146.64H231.34C243.748 146.64 253.9 136.488 253.9 124.08V22.56C253.9 10.152 243.748 0 231.34 0ZM54.2436 11.562C54.8076 11.28 55.6536 11.28 56.4996 11.28H231.34C232.186 11.28 233.032 11.28 233.596 11.562L147.586 85.164C145.33 86.856 142.51 86.856 140.254 85.164L54.2436 11.562ZM231.34 135.36H56.4996C55.6536 135.36 54.8076 135.36 54.2436 135.078L117.694 80.652L132.922 93.906C136.024 96.726 139.972 98.136 143.92 98.136C147.868 98.136 151.816 96.726 154.918 93.906L170.146 80.652L233.596 135.078C233.032 135.36 232.186 135.36 231.34 135.36ZM242.62 124.08C242.62 125.208 242.338 126.336 242.056 127.464L178.888 73.32L242.056 19.176C242.338 20.304 242.62 21.432 242.62 22.56V124.08ZM17.0196 59.22C17.0196 56.118 19.5576 53.58 22.6596 53.58H56.4996C59.6016 53.58 62.1396 56.118 62.1396 59.22C62.1396 62.322 59.6016 64.86 56.4996 64.86H22.6596C19.5576 64.86 17.0196 62.322 17.0196 59.22ZM56.4996 93.06H5.73961C2.63761 93.06 0.0996094 90.522 0.0996094 87.42C0.0996094 84.318 2.63761 81.78 5.73961 81.78H56.4996C59.6016 81.78 62.1396 84.318 62.1396 87.42C62.1396 90.522 59.6016 93.06 56.4996 93.06Z" fill="url(#paint0_linear_1163_558)"/>
<defs>
<linearGradient id="paint0_linear_1163_558" x1="127" y1="0" x2="127" y2="146.64" gradientUnits="userSpaceOnUse">
<stop stop-color="#EE5D4B"/>
<stop offset="1" stop-color="#ED4732"/>
</linearGradient>
</defs>
</svg>
