<svg width="423" height="421" viewBox="0 0 423 421" fill="none" xmlns="http://www.w3.org/2000/svg">
<g opacity="0.3">
<path d="M296.924 372.074C296.924 372.074 297.091 371.916 297.426 371.638L298.912 370.383L301.346 368.367L302.898 367.085C303.446 366.621 304.013 366.1 304.617 365.562L308.639 361.957C310.089 360.619 311.603 359.105 313.285 357.507C314.966 355.908 316.592 354.106 318.385 352.248C320.178 350.39 321.999 348.281 323.96 346.107C325.92 343.933 327.75 341.545 329.767 339.111C330.788 337.894 331.708 336.574 332.702 335.265C333.696 333.955 334.709 332.617 335.703 331.232C336.697 329.848 337.645 328.399 338.639 326.949C339.141 326.215 339.652 325.491 340.144 324.747C340.637 324.004 341.073 323.224 341.584 322.462C342.513 320.92 343.554 319.377 344.511 317.817L347.298 312.892C348.283 311.257 349.156 309.511 350.085 307.783C351.014 306.054 351.943 304.308 352.78 302.478L355.39 296.987C356.189 295.129 357.007 293.205 357.825 291.282C364.454 275.371 368.91 258.64 371.073 241.54C371.315 239.477 371.556 237.427 371.798 235.389C371.956 233.345 372.104 231.329 372.262 229.322C372.42 227.316 372.476 225.346 372.56 223.386C372.643 221.425 372.745 219.483 372.708 217.57C372.671 215.656 372.708 213.76 372.708 211.893C372.708 210.026 372.56 208.177 372.495 206.374C372.457 205.464 372.42 204.563 372.383 203.671C372.383 202.742 372.244 201.896 372.179 201.014C372.03 199.255 371.888 197.53 371.751 195.839C371.584 194.138 371.352 192.475 371.166 190.849C370.98 189.224 370.804 187.607 370.525 186.046C369.986 182.934 369.596 179.914 368.964 177.081C368.332 174.247 367.886 171.506 367.217 169.007C366.548 166.508 366.056 164.064 365.359 161.862C364.662 159.661 364.151 157.579 363.557 155.693C362.962 153.807 362.377 152.116 361.866 150.574C361.606 149.803 361.374 149.078 361.132 148.4C360.89 147.722 360.649 147.099 360.426 146.542C359.989 145.371 359.618 144.387 359.32 143.578L358.642 141.72C358.493 141.311 358.428 141.088 358.428 141.088C358.428 141.088 358.531 141.293 358.689 141.702L359.404 143.504C359.72 144.312 360.11 145.297 360.556 146.449C360.788 147.034 361.03 147.666 361.29 148.307C361.55 148.948 361.773 149.71 362.042 150.472L363.78 155.591C364.384 157.449 364.96 159.54 365.638 161.751C366.316 163.962 366.864 166.396 367.496 168.896C368.128 171.395 368.685 174.135 369.289 176.978C369.893 179.821 370.33 182.832 370.878 185.953C371.166 187.514 371.315 189.131 371.528 190.757C371.742 192.382 371.956 194.055 372.132 195.755C372.309 197.455 372.42 199.193 372.569 200.949C372.643 201.831 372.727 202.714 372.783 203.606C372.838 204.498 372.866 205.408 372.903 206.309C372.978 208.167 373.08 210.026 373.126 211.884C373.173 213.742 373.126 215.646 373.126 217.57C373.126 219.493 373.043 221.435 372.987 223.395C372.931 225.355 372.885 227.353 372.699 229.36C372.513 231.366 372.392 233.382 372.234 235.436C372.076 237.489 371.751 239.524 371.51 241.605C369.365 258.751 364.899 275.526 358.233 291.468C357.406 293.391 356.598 295.296 355.79 297.182L353.17 302.682C352.334 304.54 351.367 306.25 350.457 307.996C349.546 309.743 348.673 311.471 347.67 313.115L344.818 318.039C343.888 319.637 342.839 321.18 341.872 322.685L340.423 324.98C339.94 325.723 339.42 326.448 338.918 327.182L336.038 331.437C335.034 332.821 334.012 334.15 333.028 335.469C332.043 336.788 331.095 338.098 330.064 339.306C328.038 341.749 326.199 344.174 324.229 346.311C322.26 348.448 320.513 350.576 318.655 352.434C316.797 354.292 315.171 356.15 313.471 357.702C311.77 359.253 310.275 360.795 308.825 362.133L304.765 365.701C304.152 366.23 303.595 366.751 303.037 367.215L301.467 368.479L299.005 370.458L297.481 371.675C297.11 371.944 296.924 372.074 296.924 372.074Z" fill="#E0E0E0"/>
<path d="M335.192 335.71C327.304 329.746 324.433 318.745 326.143 309.009C327.852 299.272 333.436 290.632 339.819 283.078C345.663 290.511 349.23 301.232 347.874 310.579C346.517 319.925 341.194 327.655 335.192 335.71Z" fill="#E0E0E0"/>
<path d="M335.155 335.72C333.789 325.928 339.549 316.117 347.642 310.44C355.734 304.764 365.796 302.599 375.653 301.772C374.538 311.146 369.456 321.282 361.903 326.913C354.35 332.543 345.105 334.271 335.155 335.72Z" fill="#E0E0E0"/>
<path d="M362.117 284.054C354.601 280.18 350.587 271.335 350.606 262.881C350.624 254.426 354.071 246.334 358.335 239.05C364.337 244.438 368.908 252.986 369.131 261.032C369.354 269.077 365.991 276.389 362.107 284.054" fill="#E0E0E0"/>
<path d="M362.051 284.063C359.487 276.017 362.906 266.922 368.889 260.957C374.872 254.992 383.039 251.713 391.187 249.576C391.614 257.631 388.808 266.894 383.262 272.756C377.715 278.619 370.18 281.397 362.014 284.063" fill="#E0E0E0"/>
<path d="M373.572 232.175C366.781 231.246 361.309 225.578 359.023 219.112C356.738 212.646 357.165 205.52 358.475 198.784C364.523 201.274 370.33 206.56 372.69 212.664C375.05 218.768 374.464 225.263 373.572 232.175Z" fill="#E0E0E0"/>
<path d="M373.553 232.194C369.4 226.731 369.54 218.852 372.503 212.683C375.467 206.514 380.809 201.767 386.44 197.92C388.957 203.959 389.329 211.81 386.681 217.793C384.033 223.776 379.026 227.948 373.507 232.212" fill="#E0E0E0"/>
<path d="M370.999 183.993C364.941 184.467 359.144 180.565 355.966 175.39C352.789 170.215 351.832 163.972 351.692 157.896C357.397 158.927 363.417 162.42 366.558 167.27C369.698 172.12 370.441 177.843 370.961 183.993" fill="#E0E0E0"/>
<path d="M370.98 184.012C366.334 180.064 365.024 173.207 366.437 167.289C367.849 161.371 371.593 156.289 375.792 151.904C379.1 156.66 380.884 163.387 379.704 169.064C378.524 174.74 374.966 179.283 370.98 184.003" fill="#E0E0E0"/>
<path d="M361.67 148.429C361.67 148.429 368.369 126.075 345.644 122.415C345.644 122.452 339.679 143.124 361.67 148.429Z" fill="#E0E0E0"/>
</g>
<g opacity="0.4">
<path d="M189.038 1.16136L203.281 100.256L203.68 100.191L217.542 197.307L231.274 100.173H231.487L245.163 2.71291C226.605 -0.276303 207.733 -0.79801 189.038 1.16136Z" fill="#423A36"/>
<path d="M204.176 99.5162L203.776 99.5813L189.705 1.68204C207.96 -0.178289 226.379 0.332381 244.503 3.20135L230.977 99.5861H230.764L230.693 100.091L217.539 193.137L204.261 100.108L204.176 99.5162Z" stroke="white" stroke-opacity="0.15" stroke-width="1.17307"/>
</g>
<g opacity="0.4">
<path d="M346.339 48.7951C331.919 36.7947 315.966 26.7656 298.901 18.9719L258.449 108.116L258.663 108.209L217.793 198.116L346.339 48.7951Z" fill="#423A36"/>
<path d="M345.505 48.8651L220.024 194.625L259.197 108.452L259.444 107.909L259.23 107.816L299.192 19.7505C315.828 27.4042 331.396 37.1914 345.505 48.8651Z" stroke="white" stroke-opacity="0.15" stroke-width="1.17307"/>
</g>
<g opacity="0.4">
<mask id="path-15-inside-1_707_2387" fill="white">
<path d="M122.629 170.587L216.8 198.162H216.428L217.357 198.432H217.422L217.478 198.366L217.552 198.422H217.422L217.487 198.469H217.543H217.599H217.534L217.914 198.636L217.608 198.441L312.318 226.164L312.262 226.369L417.544 257.26C420.897 242.161 422.585 226.739 422.58 211.271C422.58 206.867 422.422 202.492 422.162 198.153H316.47V198.32L217.794 198.422V198.339L218.23 198.209L217.877 198.441L218.751 198.181H218.323L410.641 141.163C404.277 123.083 395.478 105.954 384.488 90.2503L218.184 198.134H217.84L217.98 197.967L217.729 198.134L217.822 197.605L217.636 198.004V198.134L217.524 198.218L217.478 198.134H217.403V197.995L217.246 197.66L217.311 198.097L217.115 197.967L217.218 198.088H216.892L41.6694 85.2983C29.5655 101.544 19.8655 119.448 12.8682 138.46L122.629 170.587ZM217.487 198.422V198.487H217.441L217.134 198.292L217.487 198.422Z"/>
</mask>
<path d="M122.629 170.587L216.8 198.162H216.428L217.357 198.432H217.422L217.478 198.366L217.552 198.422H217.422L217.487 198.469H217.543H217.599H217.534L217.914 198.636L217.608 198.441L312.318 226.164L312.262 226.369L417.544 257.26C420.897 242.161 422.585 226.739 422.58 211.271C422.58 206.867 422.422 202.492 422.162 198.153H316.47V198.32L217.794 198.422V198.339L218.23 198.209L217.877 198.441L218.751 198.181H218.323L410.641 141.163C404.277 123.083 395.478 105.954 384.488 90.2503L218.184 198.134H217.84L217.98 197.967L217.729 198.134L217.822 197.605L217.636 198.004V198.134L217.524 198.218L217.478 198.134H217.403V197.995L217.246 197.66L217.311 198.097L217.115 197.967L217.218 198.088H216.892L41.6694 85.2983C29.5655 101.544 19.8655 119.448 12.8682 138.46L122.629 170.587ZM217.487 198.422V198.487H217.441L217.134 198.292L217.487 198.422Z" fill="#423A36"/>
<path d="M217.626 199.046H217.682V197.873H217.626V199.046ZM217.487 197.836H217.441V199.009H217.487V197.836ZM122.629 170.587L122.958 169.461L122.958 169.461L122.629 170.587ZM216.8 198.162V199.335L217.129 197.036L216.8 198.162ZM216.428 198.162V196.989L216.101 199.289L216.428 198.162ZM217.357 198.432L217.03 199.558L217.19 199.605H217.357V198.432ZM217.422 198.432V199.605H217.962L218.313 199.195L217.422 198.432ZM217.478 198.366L218.182 197.428L217.302 196.768L216.587 197.603L217.478 198.366ZM217.552 198.422V199.595H221.071L218.256 197.484L217.552 198.422ZM217.422 198.422V197.249H213.761L216.74 199.377L217.422 198.422ZM217.487 198.469L216.805 199.423L217.111 199.642H217.487V198.469ZM217.534 198.469V197.296L217.062 199.543L217.534 198.469ZM217.914 198.636L217.443 199.71L218.544 197.646L217.914 198.636ZM217.608 198.441L217.937 197.315L216.978 199.43L217.608 198.441ZM312.318 226.164L313.449 226.473L313.752 225.362L312.647 225.038L312.318 226.164ZM312.262 226.369L311.13 226.06L310.827 227.17L311.931 227.494L312.262 226.369ZM417.544 257.26L417.214 258.386L418.418 258.739L418.689 257.515L417.544 257.26ZM422.58 211.271H421.407V211.272L422.58 211.271ZM422.162 198.153L423.333 198.083L423.267 196.98H422.162V198.153ZM316.47 198.153V196.98H315.297V198.153H316.47ZM316.47 198.32L316.472 199.493L317.644 199.492V198.32H316.47ZM217.794 198.422H216.621V199.596L217.795 199.595L217.794 198.422ZM217.794 198.339L217.459 197.214L216.621 197.464V198.339H217.794ZM218.23 198.209L218.875 199.189L217.895 197.084L218.23 198.209ZM217.877 198.441L217.233 197.461L218.212 199.565L217.877 198.441ZM218.751 198.181L219.086 199.305L218.751 197.008V198.181ZM218.323 198.181L217.99 197.056L218.323 199.354V198.181ZM410.641 141.163L410.975 142.288L412.157 141.938L411.748 140.774L410.641 141.163ZM384.488 90.2503L385.449 89.5777L384.8 88.6498L383.849 89.2662L384.488 90.2503ZM218.184 198.134V199.307H218.531L218.822 199.118L218.184 198.134ZM217.84 198.134L216.939 197.383L215.335 199.307H217.84V198.134ZM217.98 197.967L218.881 198.718L217.329 196.991L217.98 197.967ZM217.729 198.134L216.573 197.931L216.1 200.63L218.379 199.11L217.729 198.134ZM217.822 197.605L218.977 197.807L216.758 197.11L217.822 197.605ZM217.636 198.004L216.572 197.509L216.463 197.745V198.004H217.636ZM217.636 198.134L218.34 199.073L218.809 198.721V198.134H217.636ZM217.524 198.218L216.499 198.787L217.152 199.964L218.228 199.156L217.524 198.218ZM217.478 198.134L218.503 197.565L218.168 196.961H217.478V198.134ZM217.403 198.134H216.23V199.307H217.403V198.134ZM217.403 197.995H218.577V197.732L218.464 197.494L217.403 197.995ZM217.246 197.66L218.306 197.16L216.085 197.833L217.246 197.66ZM217.311 198.097L216.66 199.073L218.86 200.54L218.471 197.924L217.311 198.097ZM217.115 197.967L217.766 196.991L216.22 198.725L217.115 197.967ZM217.218 198.088V199.261H219.747L218.113 197.33L217.218 198.088ZM216.892 198.088L216.258 199.074L216.548 199.261H216.892V198.088ZM41.6694 85.2983L42.3043 84.312L41.3832 83.719L40.7287 84.5975L41.6694 85.2983ZM12.8682 138.46L11.7673 138.055L11.3336 139.233L12.5386 139.586L12.8682 138.46ZM217.487 198.422H218.66V197.604L217.893 197.321L217.487 198.422ZM217.487 198.487V199.66H218.66V198.487H217.487ZM217.441 198.487L216.811 199.477L217.099 199.66H217.441V198.487ZM217.134 198.292L217.54 197.191L216.504 199.282L217.134 198.292ZM122.299 171.713L216.47 199.288L217.129 197.036L122.958 169.461L122.299 171.713ZM216.8 196.989H216.428V199.335H216.8V196.989ZM216.101 199.289L217.03 199.558L217.684 197.305L216.755 197.035L216.101 199.289ZM217.357 199.605H217.422V197.258H217.357V199.605ZM218.313 199.195L218.369 199.13L216.587 197.603L216.531 197.668L218.313 199.195ZM216.774 199.305L216.848 199.361L218.256 197.484L218.182 197.428L216.774 199.305ZM217.552 197.249H217.422V199.595H217.552V197.249ZM216.74 199.377L216.805 199.423L218.169 197.514L218.104 197.468L216.74 199.377ZM217.487 199.642H217.543V197.296H217.487V199.642ZM217.543 199.642H217.599V197.296H217.543V199.642ZM217.599 197.296H217.534V199.642H217.599V197.296ZM217.062 199.543L217.443 199.71L218.386 197.562L218.005 197.395L217.062 199.543ZM218.544 197.646L218.238 197.451L216.978 199.43L217.285 199.626L218.544 197.646ZM217.278 199.567L311.988 227.29L312.647 225.038L217.937 197.315L217.278 199.567ZM311.186 225.856L311.13 226.06L313.394 226.677L313.449 226.473L311.186 225.856ZM311.931 227.494L417.214 258.386L417.875 256.135L312.592 225.243L311.931 227.494ZM418.689 257.515C422.061 242.331 423.758 226.824 423.753 211.271L421.407 211.272C421.412 226.654 419.733 241.99 416.399 257.006L418.689 257.515ZM423.753 211.271C423.753 206.84 423.594 202.44 423.333 198.083L420.991 198.223C421.25 202.543 421.407 206.895 421.407 211.271H423.753ZM422.162 196.98H316.47V199.326H422.162V196.98ZM315.297 198.153V198.32H317.644V198.153H315.297ZM316.469 197.147L217.792 197.249L217.795 199.595L316.472 199.493L316.469 197.147ZM218.967 198.422V198.339H216.621V198.422H218.967ZM218.129 199.463L218.565 199.333L217.895 197.084L217.459 197.214L218.129 199.463ZM217.586 197.229L217.233 197.461L218.522 199.421L218.875 199.189L217.586 197.229ZM218.212 199.565L219.086 199.305L218.416 197.056L217.542 197.317L218.212 199.565ZM218.751 197.008H218.323V199.354H218.751V197.008ZM218.657 199.305L410.975 142.288L410.308 140.039L217.99 197.056L218.657 199.305ZM411.748 140.774C405.348 122.593 396.5 105.369 385.449 89.5777L383.527 90.9229C394.456 106.54 403.206 123.573 409.535 141.553L411.748 140.774ZM383.849 89.2662L217.545 197.15L218.822 199.118L385.126 91.2344L383.849 89.2662ZM218.184 196.961H217.84V199.307H218.184V196.961ZM218.741 198.885L218.881 198.718L217.078 197.216L216.939 197.383L218.741 198.885ZM217.329 196.991L217.078 197.158L218.379 199.11L218.63 198.943L217.329 196.991ZM218.884 198.337L218.977 197.807L216.666 197.402L216.573 197.931L218.884 198.337ZM216.758 197.11L216.572 197.509L218.699 198.499L218.885 198.099L216.758 197.11ZM216.463 198.004V198.134H218.809V198.004H216.463ZM216.932 197.196L216.82 197.279L218.228 199.156L218.34 199.073L216.932 197.196ZM218.55 197.648L218.503 197.565L216.452 198.704L216.499 198.787L218.55 197.648ZM217.478 196.961H217.403V199.307H217.478V196.961ZM218.577 198.134V197.995H216.23V198.134H218.577ZM218.464 197.494L218.306 197.16L216.185 198.161L216.343 198.496L218.464 197.494ZM216.085 197.833L216.15 198.27L218.471 197.924L218.406 197.488L216.085 197.833ZM217.961 197.121L217.766 196.991L216.465 198.943L216.66 199.073L217.961 197.121ZM216.22 198.725L216.322 198.846L218.113 197.33L218.011 197.209L216.22 198.725ZM217.218 196.915H216.892V199.261H217.218V196.915ZM217.527 197.101L42.3043 84.312L41.0345 86.2847L216.258 199.074L217.527 197.101ZM40.7287 84.5975C28.5575 100.933 18.8035 118.937 11.7673 138.055L13.969 138.865C20.9274 119.959 30.5735 102.154 42.6101 85.9992L40.7287 84.5975ZM12.5386 139.586L122.299 171.713L122.958 169.461L13.1977 137.334L12.5386 139.586ZM216.314 198.422V198.487H218.66V198.422H216.314ZM217.487 197.314H217.441V199.66H217.487V197.314ZM218.07 197.498L217.764 197.302L216.504 199.282L216.811 199.477L218.07 197.498ZM216.729 199.393L217.082 199.523L217.893 197.321L217.54 197.191L216.729 199.393Z" fill="white" fill-opacity="0.15" mask="url(#path-15-inside-1_707_2387)"/>
</g>
<g opacity="0.4">
<path d="M152.675 123.52L217.292 198.088L176.31 108.284L133.555 14.7632C115.514 21.9149 98.5471 31.5223 83.1338 43.3136L152.675 123.52Z" fill="#423A36"/>
<path d="M153.118 123.136L153.118 123.136L83.9861 43.4012C99.0765 31.9278 115.649 22.5472 133.253 15.5144L175.777 108.527L175.777 108.527L215.067 194.624L153.118 123.136Z" stroke="white" stroke-opacity="0.15" stroke-width="1.17307"/>
</g>
<g opacity="0.4">
<path d="M300.777 252.02L300.722 252.113L217.941 198.812L282.493 273.278L282.335 273.408L359.133 362.199C373.762 347.873 386.239 331.503 396.175 313.599L300.777 252.02Z" fill="#423A36"/>
<path d="M359.167 361.343L283.172 273.479L283.331 273.348L282.937 272.893L221.067 201.523L300.404 252.607L300.913 252.934L300.969 252.842L395.395 313.794C385.632 331.28 373.434 347.289 359.167 361.343Z" stroke="white" stroke-opacity="0.15" stroke-width="1.17307"/>
</g>
<path d="M217.681 198.636L217.663 198.627L217.672 198.645L217.681 198.636Z" fill="#F5F5F5"/>
<path d="M217.441 198.451L217.431 198.479L217.394 198.451L217.403 198.526L217.412 198.517V198.526L217.479 198.507L217.441 198.488L217.469 198.46H217.488L217.479 198.441L217.488 198.432H217.394L217.441 198.451Z" fill="#F5F5F5"/>
<path d="M217.366 198.543L217.376 198.441L217.357 198.432L216.967 198.655L217.366 198.543Z" fill="#F5F5F5"/>
<g opacity="0.4">
<path d="M217.133 198.84L134.567 252.411L134.372 252.113L29.9346 319.731C40.9146 338.052 54.5994 354.609 70.5257 368.842L165.291 259.054L217.133 198.84Z" fill="#423A36"/>
<path d="M30.7295 319.915L134.201 252.922L134.396 253.22L134.886 252.903L214.016 201.562L164.847 258.67L164.847 258.671L70.4722 368.006C54.9201 354.029 41.5268 337.822 30.7295 319.915Z" stroke="white" stroke-opacity="0.15" stroke-width="1.17307"/>
</g>
<g opacity="0.4">
<path d="M122.684 226.462L217.319 198.432L0.390218 198.664C0.139368 202.835 9.0537e-06 207.026 9.0537e-06 211.271C-0.00488247 228.002 1.97233 244.674 5.89032 260.94L122.684 226.471V226.462Z" fill="#423A36"/>
<path d="M122.517 225.899L122.097 226.024V226.033L6.31693 260.202C2.50509 244.172 0.581727 227.75 0.586545 211.272V211.271C0.586545 207.225 0.713493 203.229 0.943236 199.25L213.259 199.023L122.517 225.899Z" stroke="white" stroke-opacity="0.15" stroke-width="1.17307"/>
</g>
<g opacity="0.4">
<path d="M217.273 199.175L124.161 403.803C143.741 412.663 164.566 418.463 185.907 421L217.273 199.175Z" fill="#423A36"/>
<path d="M185.407 420.349C164.519 417.807 144.134 412.131 124.939 403.51L216.123 203.118L185.407 420.349Z" stroke="white" stroke-opacity="0.15" stroke-width="1.17307"/>
</g>
<path d="M217.7 198.477L217.672 198.496L217.69 198.514L217.7 198.477Z" fill="#F5F5F5"/>
<g opacity="0.4">
<path d="M217.793 199.156L249.186 419.142C269.988 415.373 290.1 408.482 308.842 398.702L217.793 199.156Z" fill="#423A36"/>
<path d="M249.681 418.455L218.948 203.101L308.077 398.439C289.709 407.962 270.029 414.707 249.681 418.455Z" stroke="white" stroke-opacity="0.15" stroke-width="1.17307"/>
</g>
<path d="M217.44 198.803L217.552 199.546L217.654 198.831L217.543 198.589L217.44 198.803Z" fill="#F5F5F5"/>
<path d="M217.662 198.506H217.645L217.662 198.515V198.506Z" fill="#F5F5F5"/>
<g opacity="0.3">
<path d="M130.836 372.074C130.836 372.074 130.65 371.944 130.307 371.675L128.792 370.458L126.321 368.479L124.76 367.215C124.203 366.751 123.636 366.231 123.023 365.701L118.972 362.133C117.513 360.795 115.99 359.29 114.326 357.702C112.663 356.113 110.963 354.311 109.142 352.434C107.321 350.557 105.5 348.476 103.568 346.311C101.635 344.146 99.7493 341.749 97.724 339.306C96.702 338.098 95.7636 336.779 94.7695 335.469C93.7754 334.159 92.7534 332.821 91.7593 331.437L88.7956 327.163C88.3032 326.429 87.7829 325.704 87.2905 324.961C86.7981 324.218 86.3614 323.437 85.8411 322.666C84.912 321.124 83.8622 319.582 82.896 318.021L80.053 313.097C79.0589 311.452 78.1948 309.706 77.2658 307.978C76.3367 306.25 75.4076 304.494 74.5622 302.663L71.9422 297.163C71.137 295.305 70.3225 293.401 69.4987 291.449C62.836 275.506 58.3667 258.732 56.213 241.586L55.4976 235.417C55.3428 233.367 55.1879 231.342 55.0331 229.341C54.8473 227.334 54.8194 225.346 54.7451 223.376C54.6707 221.407 54.5592 219.474 54.6057 217.551C54.6522 215.628 54.6057 213.733 54.6057 211.865C54.6057 209.998 54.7544 208.149 54.8287 206.291C54.8287 205.362 54.903 204.488 54.9495 203.587C54.9959 202.686 55.0888 201.813 55.1539 200.93C55.3025 199.174 55.4512 197.437 55.5905 195.736C55.7299 194.036 55.9993 192.382 56.1944 190.738C56.3895 189.094 56.566 187.496 56.8541 185.935C57.4022 182.813 57.7831 179.794 58.4428 176.96C59.1024 174.126 59.5484 171.385 60.2359 168.877C60.9234 166.368 61.4158 163.934 62.094 161.732C62.7723 159.53 63.3297 157.449 63.9522 155.573C64.5747 153.696 65.1693 151.996 65.6988 150.453C65.959 149.692 66.2005 148.958 66.4514 148.289L67.1761 146.431C67.6313 145.279 68.0122 144.294 68.3281 143.485C68.644 142.677 68.8763 142.101 69.0435 141.683C69.2107 141.265 69.3036 141.07 69.3036 141.07C69.3036 141.07 69.2386 141.293 69.0899 141.702L68.421 143.56C68.1237 144.368 67.7521 145.353 67.3154 146.523L66.6 148.382C66.3585 149.06 66.1355 149.785 65.8754 150.556L64.1751 155.675C63.5898 157.533 63.0231 159.633 62.382 161.844C61.741 164.055 61.1835 166.489 60.5239 168.988C59.8643 171.488 59.3533 174.228 58.7679 177.062C58.1826 179.896 57.746 182.915 57.2164 186.028C56.9284 187.588 56.789 189.196 56.5753 190.831C56.3616 192.466 56.1573 194.12 55.9807 195.82L55.5626 200.995C55.4976 201.878 55.4047 202.76 55.3583 203.652C55.3118 204.544 55.2839 205.445 55.2375 206.356C55.1724 208.214 55.0702 210.007 55.0331 211.874V217.551C55.0331 219.465 55.1167 221.397 55.1817 223.367C55.2468 225.337 55.2839 227.306 55.479 229.304L55.9436 235.371C56.1851 237.402 56.4267 239.452 56.6682 241.521C58.8196 258.624 63.2762 275.357 69.9168 291.264L72.351 296.968L74.9524 302.459C75.7793 304.317 76.7548 306.017 77.656 307.764C78.5572 309.511 79.4305 311.239 80.4432 312.874L83.2769 317.798C84.2059 319.396 85.2465 320.938 86.2127 322.443C86.6959 323.205 87.1418 323.967 87.6528 324.729C88.1638 325.491 88.6562 326.197 89.1486 326.931L92.0938 331.214C93.0879 332.598 94.1099 333.927 95.0854 335.246C96.0609 336.565 97.0086 337.875 98.0306 339.092C100.037 341.526 101.877 343.951 103.837 346.088C105.798 348.225 107.554 350.371 109.412 352.229C111.27 354.088 112.877 355.946 114.559 357.516C116.24 359.086 117.736 360.628 119.204 361.966L123.227 365.571C123.831 366.11 124.388 366.63 124.936 367.095L126.488 368.377L128.922 370.393L130.418 371.647C130.669 371.916 130.836 372.074 130.836 372.074Z" fill="#E0E0E0"/>
<path d="M92.5769 335.71C100.465 329.746 103.326 318.745 101.617 309.009C99.9072 299.272 94.3328 290.632 87.9408 283.078C82.1062 290.511 78.5386 301.232 79.8857 310.579C81.2329 319.925 86.5658 327.655 92.5769 335.71Z" fill="#E0E0E0"/>
<path d="M92.6135 335.72C93.97 325.928 88.219 316.117 80.1175 310.44C72.016 304.764 61.9727 302.599 52.1152 301.772C53.2208 311.146 58.3029 321.282 65.8655 326.913C73.4282 332.543 82.6631 334.271 92.6135 335.72Z" fill="#E0E0E0"/>
<path d="M65.6524 284.054C73.1686 280.18 77.1822 271.335 77.1544 262.881C77.1265 254.426 73.6982 246.334 69.4152 239.05C63.4134 244.438 58.8516 252.986 58.6287 261.032C58.4057 269.077 61.7689 276.389 65.6524 284.054Z" fill="#E0E0E0"/>
<path d="M65.6802 284.063C68.2537 276.017 64.8347 266.922 58.8422 260.957C52.8497 254.992 44.6924 251.713 36.5445 249.576C36.1171 257.631 38.9229 266.894 44.4602 272.756C49.9974 278.619 57.5415 281.397 65.7081 284.063" fill="#E0E0E0"/>
<path d="M54.1961 232.175C60.9877 231.246 66.4599 225.578 68.7361 219.112C71.0124 212.646 70.5943 205.52 69.2936 198.784C63.2453 201.274 57.4293 206.56 55.0695 212.664C52.7096 218.768 53.3042 225.263 54.1961 232.175Z" fill="#E0E0E0"/>
<path d="M54.2152 232.194C58.3681 226.731 58.2195 218.852 55.2557 212.683C52.292 206.514 46.987 201.739 41.2825 197.902C38.7647 203.941 38.3931 211.791 41.0409 217.774C43.6888 223.758 48.6965 227.929 54.2152 232.194Z" fill="#E0E0E0"/>
<path d="M56.7705 183.993C62.8281 184.467 68.6255 180.565 71.8029 175.39C74.9803 170.215 75.928 163.972 76.0673 157.896C70.3628 158.927 64.3517 162.42 61.2022 167.27C58.0526 172.12 57.328 177.843 56.8077 183.993" fill="#E0E0E0"/>
<path d="M56.7795 184.012C61.4248 180.064 62.7441 173.207 61.3319 167.289C59.9197 161.371 56.1663 156.289 51.9762 151.904C48.6687 156.66 46.8849 163.387 48.0648 169.064C49.2447 174.74 52.7938 179.283 56.7795 184.003" fill="#E0E0E0"/>
<path d="M66.0884 148.429C66.0884 148.429 59.3898 126.075 82.1149 122.415C82.1149 122.452 88.0889 143.124 66.0884 148.429Z" fill="#E0E0E0"/>
</g>
<path d="M282.29 141.452L282.587 142.381C282.652 142.601 282.772 142.801 282.934 142.964C283.096 143.126 283.296 143.245 283.517 143.31L284.446 143.607L283.517 143.942C283.321 144.007 283.143 144.117 282.997 144.262C282.85 144.407 282.739 144.583 282.671 144.778L282.327 145.763L281.946 144.732C281.875 144.541 281.762 144.369 281.616 144.227C281.47 144.086 281.294 143.979 281.101 143.914L280.172 143.607L281.101 143.301C281.289 143.236 281.46 143.131 281.603 142.993C281.746 142.855 281.857 142.687 281.928 142.502L282.29 141.452Z" fill="#EE5D4B"/>
<path d="M251.324 97.6831L251.63 98.6122C251.692 98.8339 251.81 99.0359 251.973 99.1986C252.136 99.3614 252.338 99.4794 252.56 99.5413L253.489 99.8386L252.56 100.173C252.365 100.24 252.188 100.35 252.042 100.495C251.895 100.64 251.783 100.815 251.714 101.009L251.37 101.994L250.999 100.972C250.927 100.779 250.813 100.605 250.665 100.461C250.517 100.318 250.339 100.21 250.144 100.145L249.215 99.8386L250.144 99.532C250.332 99.4696 250.503 99.3664 250.646 99.2299C250.789 99.0933 250.9 98.9268 250.971 98.7422L251.324 97.6831Z" fill="#EE5D4B"/>
<path d="M145.818 287.214L146.116 288.143C146.178 288.365 146.296 288.567 146.458 288.73C146.621 288.892 146.823 289.01 147.045 289.072L147.974 289.37L147.045 289.704C146.85 289.771 146.673 289.881 146.527 290.026C146.381 290.171 146.269 290.346 146.199 290.54L145.865 291.525L145.484 290.503C145.413 290.31 145.299 290.136 145.151 289.992C145.003 289.849 144.825 289.741 144.629 289.676L143.7 289.37L144.629 289.063C144.819 288.999 144.992 288.894 145.136 288.756C145.281 288.618 145.393 288.45 145.465 288.264L145.818 287.214Z" fill="#EE5D4B"/>
<path d="M251.324 256.638L251.63 257.568C251.692 257.789 251.81 257.991 251.973 258.154C252.136 258.317 252.338 258.435 252.56 258.497L253.489 258.794L252.56 259.128C252.365 259.196 252.188 259.306 252.042 259.45C251.895 259.595 251.783 259.771 251.714 259.965L251.37 260.949L250.999 259.927C250.927 259.734 250.813 259.56 250.665 259.417C250.517 259.274 250.339 259.166 250.144 259.1L249.215 258.794L250.144 258.487C250.332 258.425 250.503 258.322 250.646 258.185C250.789 258.049 250.9 257.882 250.971 257.698L251.324 256.638Z" fill="#EE5D4B"/>
<path d="M273.538 103.75L274.765 107.68C275.025 108.551 275.495 109.345 276.133 109.993C276.771 110.64 277.558 111.122 278.425 111.396L282.374 112.623L278.407 113.979C277.603 114.251 276.873 114.703 276.271 115.301C275.669 115.898 275.211 116.625 274.932 117.426L273.538 121.458L271.94 117.194C271.65 116.407 271.186 115.696 270.582 115.114C269.979 114.532 269.252 114.093 268.456 113.83L264.656 112.548L268.373 111.285C269.143 111.022 269.847 110.595 270.434 110.031C271.022 109.468 271.479 108.783 271.773 108.024L273.538 103.75Z" fill="#EE5D4B"/>
<path d="M182.731 330.146L183.948 334.086C184.216 334.949 184.691 335.734 185.33 336.374C185.969 337.013 186.754 337.487 187.618 337.755L191.557 338.982L187.599 340.329C186.795 340.602 186.064 341.056 185.462 341.655C184.86 342.254 184.402 342.982 184.125 343.785L182.731 347.817L181.17 343.609C180.882 342.821 180.42 342.109 179.818 341.525C179.216 340.941 178.491 340.501 177.695 340.236L173.896 338.982L177.612 337.718C178.384 337.457 179.09 337.03 179.679 336.466C180.268 335.903 180.726 335.217 181.022 334.457L182.731 330.146Z" fill="#EE5D4B"/>
<path d="M166.481 139.891L166.983 141.517C167.095 141.872 167.292 142.196 167.555 142.459C167.819 142.723 168.142 142.919 168.497 143.031L170.123 143.533L168.488 144.091C168.157 144.206 167.857 144.394 167.609 144.642C167.361 144.89 167.172 145.19 167.057 145.521L166.481 147.184L165.84 145.447C165.719 145.122 165.527 144.829 165.278 144.588C165.028 144.347 164.729 144.164 164.4 144.053L162.83 143.533L164.382 143.013C164.699 142.904 164.989 142.726 165.232 142.494C165.474 142.261 165.662 141.979 165.785 141.666L166.481 139.891Z" fill="#EE5D4B"/>
<path d="M209.311 322.036L209.813 323.662C209.924 324.017 210.12 324.339 210.384 324.601C210.648 324.863 210.972 325.057 211.327 325.167L212.953 325.678L211.29 326.235C210.958 326.349 210.657 326.537 210.409 326.785C210.161 327.033 209.973 327.334 209.859 327.666L209.283 329.329L208.642 327.582C208.521 327.259 208.328 326.966 208.079 326.727C207.83 326.487 207.53 326.307 207.202 326.198L205.632 325.678L207.183 325.158C207.501 325.048 207.791 324.871 208.033 324.639C208.276 324.406 208.464 324.123 208.586 323.81L209.311 322.036Z" fill="#EE5D4B"/>
<path d="M188.35 221.761C188.35 222.691 165.458 299.506 165.458 299.506L185.136 290.708L195.913 314.464L209.765 222.96L188.35 221.761Z" fill="#EE5D4B"/>
<path d="M205.102 225.013L209.765 313.117L226.907 288.952L249.047 304.793L226.907 218.259L205.102 225.013Z" fill="#EE5D4B"/>
<g opacity="0.5">
<path d="M186.863 227.587C187.374 229.221 188.368 230.662 189.715 231.719C191.062 232.775 192.699 233.398 194.407 233.505C196.423 233.588 198.644 232.966 200.344 234.062C202.044 235.159 202.76 237.714 204.757 237.983C207.098 238.317 208.474 235.196 210.685 234.452C213.704 233.468 216.872 237.11 219.845 235.985C221.759 235.261 222.633 232.799 224.658 232.269C225.547 232.119 226.457 232.151 227.334 232.362C228.378 232.478 229.433 232.277 230.362 231.786L229.275 227.54L227.417 219.299H187.616L186.863 227.587Z" fill="black"/>
</g>
<path d="M210.137 159.002C212.091 159.17 214.02 159.556 215.888 160.154C215.885 159.836 215.945 159.52 216.064 159.225C217.749 154.716 219.427 150.216 221.1 145.726L221.221 145.614C220.522 145.221 219.947 144.642 219.557 143.942C219.073 143.186 218.402 142.567 217.61 142.144C216.818 141.721 215.931 141.508 215.033 141.526C214.104 145.354 212.998 150.594 212.181 153.855C211.831 155.685 211.138 157.431 210.137 159.002Z" fill="#EE5D4B"/>
<path d="M185.888 200.03C184.644 198.176 183.639 196.171 182.897 194.065C182.637 194.32 182.318 194.505 181.968 194.604L181.568 194.744C181.32 194.903 181.059 195.043 180.788 195.162C179.943 195.485 179.081 195.761 178.205 195.989L175.028 196.871C172.77 197.484 170.717 198.014 169.23 198.367C168.437 198.609 167.621 198.774 166.796 198.859C167.547 198.509 168.331 198.235 169.137 198.042L171.163 197.447L166.517 198.479C165.913 201.117 164.046 203.941 165.69 205.976C165.864 206.184 166.068 206.366 166.294 206.515C172.213 204.322 179.803 201.489 184.774 200.179C185.134 200.066 185.511 200.015 185.888 200.03Z" fill="#EE5D4B"/>
<path d="M201.124 158.324C201.124 158.584 201.124 158.807 201.124 159.011C201.124 159.216 201.124 159.494 201.124 159.727C203.249 159.177 205.434 158.893 207.628 158.881C207.628 158.76 207.628 158.64 207.628 158.519L207.935 153.632C207.935 153.307 207.935 152.972 207.935 152.629C208 149.117 208.139 146.209 208.26 145.642C207.275 144.481 206.337 142.046 204.348 141.786C202.704 141.573 201.849 141.786 201.152 142.455C201.227 147.342 201.069 153.52 201.124 158.324Z" fill="#EE5D4B"/>
<path d="M175.454 175.447C175.863 175.608 176.272 175.756 176.681 175.893C174.944 175.205 173.16 174.462 171.45 173.728C172.63 174.276 173.977 174.871 175.454 175.447Z" fill="#EE5D4B"/>
<path d="M181.429 183.985C181.547 181.941 181.902 179.918 182.488 177.956C181.967 177.798 181.429 177.621 180.88 177.435C178.973 177.12 177.104 176.603 175.306 175.893C173.283 175.087 171.313 174.157 169.406 173.106C168.384 172.558 167.66 172.177 167.316 171.907L166.201 171.434C165.476 172.614 164.343 173.58 163.553 174.76C163.129 175.43 162.901 176.206 162.894 176.999C168.942 178.652 176.244 180.836 181.326 183.865L181.429 183.985Z" fill="#EE5D4B"/>
<path d="M183.473 175.02C184.219 173.272 185.153 171.612 186.26 170.068L185.861 169.808C182.807 167.778 180.001 165.399 177.499 162.719L177.434 162.645C176.301 161.716 175.223 160.721 174.266 159.857C174.138 160.264 173.919 160.636 173.625 160.944C172.185 162.384 169.481 161.455 167.893 162.728C167.331 163.196 166.969 163.861 166.88 164.586C171.928 167.39 176.819 170.467 181.531 173.803C182.293 174.277 182.971 174.695 183.473 175.02Z" fill="#EE5D4B"/>
<path d="M186 165.868C186.651 166.797 187.227 167.596 187.654 168.228C189.101 166.52 190.759 165.003 192.587 163.713C192.03 163.007 191.342 162.087 190.58 161.065C189.902 160.284 189.131 159.355 188.323 158.343C187.134 156.847 186.112 155.462 185.406 154.431C184.984 153.902 184.631 153.321 184.356 152.703C184.356 152.703 184.644 152.945 185.043 153.437C184.393 152.508 183.78 151.718 183.241 151.012C182.858 151.87 182.24 152.602 181.457 153.121C180.286 153.818 178.735 153.781 177.406 154.05C180.095 157.272 182.577 160.661 184.839 164.196L186 165.868Z" fill="#EE5D4B"/>
<path d="M194.231 162.635C195.754 161.72 197.367 160.963 199.044 160.378C198.979 160.183 198.923 159.978 198.858 159.746C198.496 158.492 198.059 156.745 197.678 154.785C197.297 152.824 197.047 151.068 196.907 149.749C196.821 149.08 196.778 148.407 196.777 147.733L196.721 147.371C196.1 147.421 195.474 147.348 194.88 147.155C194.287 146.962 193.738 146.653 193.265 146.246C191.732 144.871 189.131 145.048 187.124 145.912C189.242 151.013 192.41 157.99 194.157 162.459C194.185 162.515 194.204 162.57 194.231 162.635Z" fill="#EE5D4B"/>
<path d="M187.423 168.499L187.356 168.423L187.413 168.518L187.423 168.499Z" fill="#EE5D4B"/>
<path d="M182.432 192.606C181.838 190.524 181.498 188.378 181.42 186.214H181.271C179.413 186.317 177.239 186.289 174.953 186.214C174.257 186.214 173.541 186.214 172.779 186.214C170.568 186.214 168.571 186.038 167.131 185.899C166.471 185.834 165.941 185.769 165.551 185.713L164.139 185.629C163.823 186.112 163.507 186.558 163.21 187.097C162.402 188.519 161.891 190.302 162.652 191.742L162.736 191.863C168.886 192.012 175.031 192.191 181.169 192.402C181.599 192.387 182.029 192.456 182.432 192.606Z" fill="#EE5D4B"/>
<path d="M191.064 206.273L191.454 206.022C189.713 204.633 188.152 203.032 186.808 201.256C186.633 201.571 186.385 201.839 186.084 202.037C185.975 202.316 185.796 202.563 185.563 202.752C184.374 203.681 182.702 204.712 180.834 205.939C178.967 207.165 177.276 208.206 176.031 208.958C175.386 209.408 174.694 209.788 173.969 210.092C174.539 209.556 175.161 209.08 175.827 208.67C176.514 208.206 177.35 207.63 178.289 207.016C176.486 208.103 174.675 209.19 173.049 210.184C173.355 211.56 172.872 213.158 173.504 214.449C174.136 215.74 175.437 216.121 176.886 216.381L187.942 208.168C188.892 207.399 189.942 206.762 191.064 206.273Z" fill="#EE5D4B"/>
<path d="M241.549 210.547L243.063 211.736C243.092 211.7 243.123 211.666 243.156 211.634L242.664 211.309L241.549 210.547Z" fill="#EE5D4B"/>
<path d="M227.752 202.604C226.354 204.216 224.766 205.654 223.023 206.887C223.514 207.388 223.97 207.922 224.389 208.485C224.441 208.519 224.491 208.556 224.538 208.596C225.291 209.346 225.918 210.212 226.396 211.161L228.31 214.422L228.366 214.533C229.611 216.605 230.856 218.76 231.952 220.637C232.088 220.333 232.273 220.054 232.5 219.81C234.432 217.794 238.353 219.754 240.397 217.868C240.599 217.676 240.774 217.457 240.917 217.218C237.155 213.121 232.138 207.379 228.942 204.025C228.497 203.594 228.098 203.118 227.752 202.604ZM229.23 207.008C230.065 208.065 230.834 209.173 231.534 210.324C232.362 211.388 233.128 212.498 233.829 213.65C232.756 212.803 231.844 211.771 231.134 210.603C230.298 209.523 229.653 208.307 229.23 207.008Z" fill="#EE5D4B"/>
<path d="M208.503 145.809C208.479 145.79 208.457 145.768 208.438 145.744C208.446 145.896 208.446 146.048 208.438 146.199L208.503 145.809Z" fill="#EE5D4B"/>
<path d="M234.052 188.352C233.832 190.251 233.405 192.12 232.779 193.927L233.504 194.28L236.068 195.618C235.195 195.176 234.362 194.66 233.578 194.075C236.267 195.241 238.888 196.556 241.429 198.015C243.287 199.027 245.052 199.984 246.381 200.737L247.245 201.099C247.232 200.664 247.295 200.23 247.431 199.817C248.155 197.727 250.831 196.63 251.751 194.791C246.139 192.738 238.93 190.183 234.052 188.352Z" fill="#EE5D4B"/>
<path d="M228.997 201.081C229.508 201.48 230.158 202.01 230.855 202.511L231.106 202.688C232.639 203.719 234.72 205.168 237.006 206.794C239.291 208.42 241.344 209.925 242.822 211.022L243.379 211.449C244.308 210.78 245.423 210.362 246.389 209.786C241.614 205.605 235.974 199.826 231.682 196.537C230.938 198.136 230.039 199.658 228.997 201.081Z" fill="#EE5D4B"/>
<path d="M198.747 210.529C198.662 210.346 198.566 210.169 198.459 209.999C196.765 209.354 195.143 208.535 193.618 207.556L193.488 207.723C193.145 208.141 192.754 208.587 192.327 209.061C191.565 209.99 190.525 211.188 189.326 212.48C188.128 213.771 186.845 215.035 185.954 215.88C185.503 216.368 184.991 216.796 184.43 217.153C184.43 217.153 184.514 216.976 184.727 216.726C183.965 217.487 183.25 218.231 182.6 218.928C183.622 221.055 182.6 224.158 184.346 225.877C184.654 226.185 185.025 226.423 185.433 226.574C189.15 221.585 194.213 215.128 197.818 211.123C198.044 210.817 198.374 210.606 198.747 210.529Z" fill="#EE5D4B"/>
<path d="M209.338 211.662C209.595 212.017 209.741 212.44 209.756 212.879C210.056 213.796 210.12 214.774 209.942 215.722C209.802 216.846 209.644 218.054 209.486 219.317C209.263 220.999 209.04 222.569 208.845 223.963C208.697 225.737 208.557 227.484 208.399 229.063C209.35 229.955 210.435 230.691 211.614 231.247C213.398 231.823 214.987 230.958 216.566 229.806C216.204 223.851 215.888 216.428 216.129 211.132L216.408 211.782C216.324 211.476 216.297 211.299 216.324 211.29C216.701 211.956 216.997 212.664 217.207 213.399C217.69 214.728 218.303 216.586 218.916 218.648C219.084 219.224 219.242 219.782 219.39 220.321C220.041 222.523 220.607 224.743 221.035 226.824C221.692 226.53 222.405 226.384 223.125 226.397C224.76 226.443 226.488 227.419 228.031 227.623C225.411 221.278 222.614 213.334 221.527 207.908C217.833 210.139 213.647 211.428 209.338 211.662ZM212.71 221.761C212.521 220.907 212.452 220.032 212.506 219.159C212.406 218.291 212.422 217.413 212.552 216.549C213.081 218.239 213.135 220.042 212.71 221.761Z" fill="#EE5D4B"/>
<path d="M206.802 211.774C206.831 211.738 206.866 211.707 206.904 211.681C204.088 211.594 201.305 211.051 198.663 210.073C198.728 210.157 198.802 210.25 198.886 210.371C198.913 210.431 198.944 210.49 198.979 210.547C199.518 210.696 199.685 211.476 199.62 212.062C199.589 212.353 199.539 212.641 199.471 212.926C199.417 213.752 199.232 214.564 198.923 215.332C198.514 216.4 197.994 217.506 197.4 218.677C196.415 220.661 195.323 222.59 194.129 224.456C193.581 225.31 193.135 225.942 192.856 226.314C193.194 226.352 193.524 226.433 193.841 226.555C196.433 227.568 197.836 231.331 200.596 231.005L200.846 230.959C202.463 225.812 204.08 218.677 205.696 213.892C205.903 213.112 206.28 212.389 206.802 211.774Z" fill="#EE5D4B"/>
<path d="M229.741 170.56C230.05 170.281 230.36 170.012 230.67 169.752C231.004 169.28 231.419 168.871 231.896 168.544C232.63 168.024 233.448 167.513 234.321 166.983C236.058 165.924 237.675 165.051 238.873 164.456C239.691 164.057 240.295 163.787 240.611 163.676L242.265 162.7C240.629 160.136 242.748 156.243 240.824 153.883C240.736 153.777 240.639 153.678 240.536 153.586C235.696 157.172 229.453 161.241 224.018 164.456C226.237 166.174 228.169 168.235 229.741 170.56ZM230.902 160.173C231.999 159.38 233.151 158.666 234.349 158.036C233.433 159.053 232.356 159.913 231.162 160.582C230.057 161.39 228.831 162.017 227.529 162.44C228.598 161.604 229.725 160.847 230.902 160.173Z" fill="#EE5D4B"/>
<path d="M233.885 181.021C234.113 182.431 234.228 183.857 234.229 185.286C234.229 185.555 234.229 185.815 234.229 186.075H234.665C235.446 186.075 236.217 186.15 236.997 186.206H237.545C239.143 186.206 241.345 186.354 243.779 186.531C246.056 186.707 248.118 186.912 249.67 187.097C250.06 185.342 252.225 184.468 252.866 182.768C253.149 181.888 253.082 180.933 252.68 180.102C247.003 180.417 239.329 180.882 234.6 181.031L233.885 181.021Z" fill="#EE5D4B"/>
<path d="M227.437 148.151L218.016 159.996C217.816 160.246 217.582 160.465 217.319 160.647C219.394 161.443 221.358 162.501 223.163 163.796L223.293 163.629C223.422 163.284 223.618 162.969 223.869 162.7C224.287 162.217 224.798 161.65 225.337 161.037C228.124 157.692 231.302 154.31 233.959 151.505C233.415 151.303 232.92 150.986 232.51 150.576C231.339 149.396 231.088 147.426 229.722 146.525C229.281 146.254 228.78 146.095 228.264 146.06C228.268 146.094 228.268 146.129 228.264 146.162C228.265 146.532 228.192 146.898 228.05 147.24C227.908 147.581 227.7 147.891 227.437 148.151Z" fill="#EE5D4B"/>
<path d="M233.272 178.243L234.043 177.9C234.623 177.578 235.229 177.304 235.854 177.082C237.006 176.608 238.642 175.995 240.388 175.345C242.135 174.694 243.789 174.128 244.969 173.737C245.596 173.485 246.251 173.308 246.92 173.208C246.92 173.208 246.697 173.375 246.251 173.57L248.648 172.78C248.648 170.848 249.187 168.795 248.202 167.15C247.956 166.748 247.642 166.393 247.273 166.1C242.209 168.144 235.288 171.359 230.847 172.288C231.896 174.166 232.711 176.166 233.272 178.243Z" fill="#EE5D4B"/>
<path d="M249.594 187.506L247.522 187.348C248.21 187.394 248.897 187.45 249.594 187.506Z" fill="#EE5D4B"/>
<path d="M199.211 159.662C199.267 159.885 199.304 160.09 199.341 160.275L199.49 160.229C199.36 159.894 199.23 159.532 199.1 159.133C199.109 159.309 199.155 159.504 199.211 159.662Z" fill="#EE5D4B"/>
<path d="M223.238 163.853C223.248 163.776 223.266 163.701 223.294 163.629L223.163 163.797L223.238 163.853Z" fill="black"/>
<path d="M230.187 171.247C230.188 170.948 230.245 170.652 230.354 170.374C230.438 170.153 230.551 169.943 230.689 169.751C230.361 170.012 230.051 170.281 229.76 170.56C229.871 170.783 230.038 171.015 230.187 171.247Z" fill="#EE5D4B"/>
<path d="M247.244 201.229V201.099L246.38 200.737L247.244 201.229Z" fill="black"/>
<path d="M230.892 202.511C230.159 201.963 229.508 201.48 229.034 201.08L228.923 201.219C229.239 201.424 229.945 201.879 230.892 202.511Z" fill="black"/>
<path d="M231.655 220.405L231.86 220.786L231.915 220.637C230.819 218.779 229.574 216.605 228.329 214.533C229.648 216.809 230.8 218.891 231.655 220.405Z" fill="black"/>
<path d="M208.8 211.68C209.197 211.934 209.518 212.29 209.729 212.712C209.729 212.767 209.729 212.823 209.794 212.879C209.779 212.441 209.633 212.017 209.376 211.662L208.8 211.68Z" fill="#EE5D4B"/>
<path d="M198.979 210.547C199.274 211.101 199.442 211.713 199.471 212.34C199.485 212.535 199.485 212.73 199.471 212.925C199.538 212.641 199.588 212.352 199.62 212.061C199.685 211.467 199.517 210.696 198.979 210.547Z" fill="#EE5D4B"/>
<path d="M193.637 207.556H193.544C193.377 207.816 193.015 208.299 192.504 208.921C192.457 208.977 192.401 209.051 192.346 209.107C192.773 208.633 193.163 208.178 193.507 207.769L193.637 207.556Z" fill="black"/>
<path d="M182.627 177.323C182.31 177.481 181.959 177.558 181.605 177.546L180.834 177.435C181.382 177.621 181.921 177.797 182.441 177.955C182.488 177.742 182.562 177.584 182.627 177.323Z" fill="black"/>
<path d="M192.912 163.481C192.381 163.065 191.898 162.592 191.472 162.068L190.543 161.065C191.305 162.087 191.992 163.007 192.55 163.713L192.912 163.481Z" fill="black"/>
<path d="M201.069 159.755H201.153C201.153 159.522 201.153 159.281 201.153 159.039C201.15 159.28 201.122 159.52 201.069 159.755Z" fill="black"/>
<path d="M207.666 158.882H208.019C207.973 157.832 207.963 155.899 208.019 153.632L207.712 158.519C207.675 158.64 207.666 158.761 207.666 158.882Z" fill="black"/>
<path d="M216.064 159.216C215.945 159.511 215.885 159.826 215.888 160.145C216.371 160.303 216.817 160.47 217.319 160.656C217.581 160.473 217.816 160.254 218.015 160.005L227.436 148.16C227.964 147.643 228.264 146.938 228.272 146.199C228.276 146.165 228.276 146.131 228.272 146.097C226.572 145.958 224.621 146.803 222.921 146.274C222.515 146.154 222.115 146.015 221.722 145.856C221.239 147.314 220.44 149.572 219.502 152.062C218.588 154.714 217.527 157.313 216.324 159.847C217.078 157.146 217.987 154.491 219.047 151.895C219.976 149.377 220.858 147.147 221.453 145.726C221.382 145.694 221.314 145.657 221.249 145.614L221.128 145.726C219.431 150.241 217.743 154.738 216.064 159.216ZM220.97 155.332C221.782 154.172 222.696 153.087 223.701 152.09C223.088 153.374 222.297 154.566 221.351 155.629C220.535 156.797 219.563 157.848 218.461 158.751C219.194 157.539 220.033 156.395 220.97 155.332Z" fill="#EE5D4B"/>
<path d="M227.827 158.306C229.397 156.605 230.837 155.082 231.896 153.995C232.433 153.37 233.034 152.803 233.689 152.304C233.238 152.993 232.722 153.637 232.147 154.227C231.153 155.37 229.75 156.931 228.189 158.631C226.628 160.331 225.179 161.864 224.12 162.942C223.787 163.216 223.561 163.597 223.479 164.019L224.008 164.428C229.443 161.214 235.687 157.144 240.527 153.558C240.099 153.138 239.581 152.821 239.013 152.629C237.452 152.09 235.529 152.109 233.986 151.505C231.329 154.292 228.133 157.693 225.365 161.037C226.08 160.22 226.925 159.291 227.827 158.306Z" fill="#EE5D4B"/>
<path d="M240.881 163.648C240.303 164.095 239.68 164.481 239.022 164.8C237.88 165.469 236.291 166.379 234.563 167.429C232.835 168.479 231.135 169.352 230.642 170.542C230.475 170.902 230.399 171.297 230.419 171.694L230.782 172.325C235.223 171.396 242.144 168.182 247.208 166.138C245.665 164.902 243.352 164.419 242.256 162.737L240.63 163.648C240.778 163.648 240.871 163.592 240.881 163.648ZM237.62 169.222C236.776 169.678 235.872 170.013 234.935 170.216C236.487 169.073 238.273 168.289 240.165 167.922C239.379 168.449 238.522 168.862 237.62 169.148V169.222Z" fill="#EE5D4B"/>
<path d="M245.098 174.063C243.946 174.527 242.31 175.141 240.554 175.8C238.799 176.46 237.145 177.017 235.965 177.398C235.343 177.656 234.69 177.834 234.023 177.928L233.252 178.272C233.506 179.189 233.71 180.12 233.865 181.059H234.562C239.291 180.938 246.965 180.474 252.642 180.13C252.361 179.464 251.992 178.84 251.545 178.272C250.533 176.999 249.278 175.828 248.832 174.267C248.699 173.767 248.63 173.252 248.628 172.734L246.231 173.524L245.098 174.063Z" fill="#EE5D4B"/>
<path d="M243.723 187.042L237.508 186.568C236.643 186.543 235.782 186.444 234.934 186.271C235.612 186.183 236.297 186.165 236.978 186.215C236.198 186.16 235.427 186.113 234.646 186.085H234.21C234.21 186.856 234.135 187.609 234.052 188.361C238.929 190.22 246.13 192.747 251.751 194.8C251.947 194.424 252.055 194.007 252.066 193.583C252.132 191.362 249.456 189.662 249.595 187.516C248.898 187.46 248.211 187.404 247.523 187.33L243.723 187.042Z" fill="#EE5D4B"/>
<path d="M236.067 195.617L233.503 194.307L232.778 193.954C232.476 194.833 232.125 195.695 231.729 196.537C236.021 199.826 241.66 205.604 246.436 209.785C247.037 209.456 247.545 208.979 247.913 208.401C249.065 206.376 247.495 203.914 247.272 201.591C245.832 200.875 243.649 199.733 241.214 198.441C239.217 197.373 237.414 196.379 236.067 195.617Z" fill="#EE5D4B"/>
<path d="M236.764 207.193C234.478 205.567 232.416 204.062 230.948 202.966C229.898 202.176 229.146 201.6 228.82 201.303C228.477 201.749 228.124 202.186 227.752 202.604C228.086 203.116 228.472 203.592 228.904 204.025C232.1 207.379 237.117 213.121 240.88 217.218C241.753 215.769 241.539 213.66 242.589 212.238C242.73 212.056 242.889 211.887 243.063 211.736L241.549 210.547C240.192 209.609 238.538 208.457 236.764 207.193Z" fill="#EE5D4B"/>
<path d="M227.855 214.663C227.186 213.511 226.554 212.405 225.997 211.383C225.569 210.468 225.016 209.617 224.352 208.856C224.119 208.631 223.828 208.475 223.512 208.405C223.195 208.334 222.866 208.352 222.559 208.457C222.122 208.615 222.002 208.903 221.964 208.865C221.927 208.828 221.964 208.54 222.475 208.28C222.788 208.14 223.133 208.085 223.474 208.12C223.815 208.156 224.14 208.282 224.417 208.484C223.998 207.922 223.542 207.388 223.051 206.886C222.568 207.221 222.076 207.555 221.574 207.862C222.643 213.288 225.439 221.231 228.078 227.577C228.452 227.646 228.836 227.638 229.206 227.554C229.577 227.469 229.926 227.309 230.233 227.085C231.887 225.821 231.209 223.164 231.775 221.176L231.404 220.581C230.438 219.076 229.193 216.986 227.855 214.663Z" fill="#EE5D4B"/>
<path d="M220.32 223.945C220.539 224.68 220.673 225.437 220.719 226.202C220.408 225.506 220.166 224.781 219.995 224.038L218.452 218.751C217.867 216.782 217.337 214.989 216.882 213.474C216.668 212.722 216.501 212.127 216.408 211.746L216.13 211.096C215.888 216.391 216.204 223.815 216.566 229.77C217.939 228.608 219.438 227.604 221.035 226.778C220.608 224.707 220.041 222.486 219.391 220.275C219.781 221.687 220.097 222.951 220.32 223.945Z" fill="#EE5D4B"/>
<path d="M208.549 225.821C208.455 226.727 208.281 227.622 208.028 228.497C208.004 227.586 208.066 226.674 208.214 225.775C208.391 224.103 208.67 221.798 209.004 219.271L209.506 215.685C209.707 214.761 209.665 213.801 209.385 212.898C209.178 212.414 208.824 212.007 208.372 211.737H207.815C207.508 211.737 207.202 211.737 206.886 211.737C206.847 211.762 206.813 211.794 206.783 211.829C206.261 212.447 205.883 213.174 205.678 213.957C204.061 218.742 202.445 225.877 200.828 231.024C202.742 230.625 203.978 228.293 205.957 228.163C206.851 228.166 207.714 228.496 208.381 229.092C208.539 227.512 208.679 225.766 208.827 223.991C208.744 224.623 208.642 225.264 208.549 225.821Z" fill="#EE5D4B"/>
<path d="M196.973 218.463C197.539 217.311 198.097 216.196 198.515 215.183C198.897 214.302 199.106 213.356 199.128 212.396C199.132 211.757 199.002 211.124 198.747 210.538C198.375 210.614 198.044 210.826 197.818 211.132C194.213 215.137 189.131 221.594 185.434 226.583C187.478 227.354 190.283 226.044 192.69 226.304C192.913 225.895 193.312 225.208 193.842 224.288C194.678 222.811 195.821 220.767 196.973 218.463Z" fill="#EE5D4B"/>
<path d="M184.727 216.726C185.377 215.955 187.049 214.217 188.972 212.146C191.063 209.906 192.81 207.993 193.413 207.435C192.81 207.036 192.224 206.618 191.648 206.181C190.912 206.872 190.14 207.523 189.335 208.132C188.458 208.906 187.484 209.562 186.436 210.083C187.188 209.186 188.064 208.4 189.037 207.751C189.818 207.147 190.533 206.627 191.063 206.274C189.937 206.749 188.881 207.374 187.923 208.132L176.913 216.382C178.827 216.717 180.992 216.8 182.19 218.24C182.371 218.459 182.524 218.699 182.645 218.956C183.249 218.231 183.965 217.534 184.727 216.726Z" fill="#EE5D4B"/>
<path d="M180.537 205.53C182.395 204.323 184.132 203.273 185.303 202.492C185.546 202.321 185.733 202.082 185.842 201.805C185.92 201.595 185.92 201.364 185.842 201.154C185.721 200.792 185.47 200.727 185.489 200.69C185.507 200.653 185.795 200.69 186.018 201.08C186.14 201.328 186.17 201.611 186.102 201.879C186.09 201.934 186.071 201.987 186.046 202.037C186.347 201.839 186.596 201.572 186.771 201.257C186.473 200.857 186.176 200.448 185.888 200.03C185.511 200.016 185.134 200.066 184.773 200.179C179.803 201.489 172.212 204.323 166.294 206.515C168.152 207.872 171.543 207.286 172.742 209.377C172.873 209.632 172.97 209.904 173.03 210.185C174.656 209.191 176.467 208.104 178.27 207.017C178.976 206.543 179.7 206.051 180.537 205.53Z" fill="#EE5D4B"/>
<path d="M174.907 196.406L178.093 195.552C179.078 195.301 179.952 195.106 180.667 194.846C181.433 194.574 182.121 194.122 182.674 193.526C182.674 193.526 182.618 193.777 182.33 194.112C182.111 194.358 181.858 194.57 181.577 194.743L181.977 194.604C182.327 194.505 182.646 194.32 182.906 194.065C182.739 193.582 182.581 193.136 182.441 192.607C182.045 192.452 181.622 192.377 181.196 192.384C175.052 192.167 168.908 191.987 162.764 191.845C163.618 193.294 165.551 193.935 166.313 195.431C166.756 196.386 166.832 197.471 166.526 198.478L171.172 197.447C172.268 197.094 173.559 196.769 174.907 196.406Z" fill="#EE5D4B"/>
<path d="M164.835 185.518C165.614 185.445 166.398 185.445 167.177 185.518C168.626 185.574 170.614 185.648 172.816 185.695C175.018 185.741 177.016 185.751 178.456 185.76C179.24 185.72 180.027 185.751 180.806 185.853C180.038 186.028 179.253 186.112 178.465 186.104C177.536 186.159 176.31 186.187 174.981 186.197C177.266 186.289 179.459 186.317 181.299 186.197H181.447C181.447 185.89 181.447 185.583 181.447 185.268C181.447 184.952 181.447 184.394 181.447 183.967L181.317 183.883C176.235 180.854 168.933 178.671 162.884 177.017C162.813 177.517 162.915 178.025 163.174 178.458C163.433 178.891 163.832 179.222 164.306 179.396L164.176 178.56C165.672 179.21 166.08 181.226 165.607 182.787C165.257 183.78 164.769 184.718 164.157 185.574L165.569 185.658C165.319 185.654 165.07 185.607 164.835 185.518ZM177.842 184.208C178.895 184.317 179.926 184.583 180.899 184.998C179.843 185.052 178.785 184.949 177.759 184.691C176.709 184.584 175.682 184.318 174.712 183.902C175.765 183.847 176.82 183.95 177.842 184.208Z" fill="#EE5D4B"/>
<path d="M167.056 171.768C167.911 172.048 168.738 172.406 169.528 172.836L171.451 173.765C173.16 174.499 174.944 175.242 176.682 175.93C178.287 176.513 179.941 176.951 181.624 177.24C181.968 177.279 182.315 177.221 182.628 177.073C182.675 177.041 182.719 177.003 182.758 176.961C182.944 176.413 183.139 175.874 183.362 175.335C182.507 174.917 181.206 174.211 179.757 173.375C178.208 172.591 176.739 171.658 175.372 170.588C176.987 171.242 178.542 172.038 180.017 172.966L181.522 173.895C176.806 170.524 171.908 167.413 166.852 164.577C166.555 166.323 167.224 168.553 166.685 170.365C166.558 170.749 166.387 171.117 166.174 171.461L167.289 171.935C167.14 171.851 167.047 171.777 167.056 171.768Z" fill="#EE5D4B"/>
<path d="M176.03 160.954C176.641 161.404 177.204 161.914 177.712 162.477C178.725 163.407 180.137 164.763 181.754 166.138C183.37 167.513 184.903 168.693 186.027 169.529L186.408 169.817C186.733 169.371 187.059 168.934 187.412 168.516L187.356 168.424C186.863 167.838 186.25 167.048 185.6 166.147C184.703 165.031 183.959 163.8 183.389 162.487C183.931 163.001 184.405 163.581 184.801 164.215C182.539 160.68 180.057 157.292 177.368 154.069C176.592 154.19 175.88 154.574 175.352 155.156C174.321 156.411 174.702 158.38 174.2 159.867C175.129 160.721 176.235 161.669 177.368 162.654C176.856 162.143 176.406 161.572 176.03 160.954Z" fill="#EE5D4B"/>
<path d="M188.703 158.074C191.026 161.009 192.968 163.351 192.921 163.499C193.349 163.208 193.785 162.93 194.231 162.663C194.231 162.598 194.185 162.542 194.157 162.487C192.41 158.027 189.242 151.041 187.124 145.94C186.786 146.092 186.457 146.262 186.139 146.451C184.587 147.38 184.076 149.396 183.24 151.041C183.779 151.747 184.392 152.574 185.043 153.465C185.693 154.357 187.133 156.095 188.703 158.074ZM191.1 156.726C191.695 157.677 192.199 158.682 192.605 159.727C193.153 160.707 193.604 161.736 193.952 162.803C192.538 161.029 191.561 158.948 191.1 156.726Z" fill="#EE5D4B"/>
<path d="M196.805 147.63C197.021 148.305 197.17 148.999 197.251 149.702C197.474 150.975 197.781 152.749 198.18 154.691C198.515 156.391 198.84 157.915 199.109 159.132C199.239 159.532 199.369 159.894 199.5 160.228C199.992 160.061 200.494 159.913 201.014 159.773C200.788 158.76 200.629 157.732 200.54 156.698C200.32 155.666 200.214 154.613 200.224 153.558C200.684 154.526 200.955 155.573 201.023 156.642C201.107 157.255 201.144 157.831 201.163 158.324C201.163 153.521 201.265 147.342 201.256 142.455C200.484 143.189 199.918 144.471 198.673 146.311C198.452 146.618 198.165 146.872 197.834 147.055C197.503 147.238 197.136 147.346 196.759 147.37L196.815 147.732C196.787 147.677 196.796 147.63 196.805 147.63Z" fill="#EE5D4B"/>
<path d="M208.502 152.638C208.455 155.342 208.372 157.683 208.27 158.881C208.901 158.881 209.533 158.881 210.128 158.984C211.128 157.416 211.821 155.672 212.172 153.846C212.989 150.585 214.113 145.345 215.024 141.517C214.448 141.555 213.887 141.717 213.379 141.991C211.949 142.781 210.211 146.237 209.31 146.255C209.147 146.243 208.989 146.197 208.845 146.12C208.701 146.043 208.575 145.938 208.474 145.809V146.2C208.502 147.333 208.502 149.786 208.502 152.638Z" fill="#EE5D4B"/>
<path d="M235.965 177.398C237.145 177.017 238.752 176.469 240.555 175.8C242.357 175.131 243.946 174.527 245.098 174.062L246.25 173.57C246.696 173.375 246.938 173.245 246.919 173.208C246.25 173.308 245.595 173.485 244.968 173.737C243.788 174.127 242.181 174.666 240.388 175.344C238.594 176.023 237.006 176.608 235.854 177.082C235.228 177.304 234.622 177.577 234.042 177.899C234.701 177.813 235.348 177.644 235.965 177.398Z" fill="#263238"/>
<path d="M237.527 186.233H236.979C236.297 186.183 235.612 186.201 234.935 186.289C235.782 186.462 236.643 186.561 237.508 186.586L243.724 187.06L247.523 187.339L249.595 187.497C249.595 187.413 249.595 187.33 249.595 187.246C249.595 187.162 249.595 187.181 249.595 187.144C248.044 186.958 245.981 186.754 243.705 186.577C241.327 186.382 239.162 186.27 237.527 186.233Z" fill="#263238"/>
<path d="M241.428 198.024C238.886 196.565 236.265 195.25 233.577 194.084C234.361 194.669 235.194 195.185 236.067 195.627C237.414 196.389 239.217 197.383 241.205 198.414C243.639 199.715 245.85 200.848 247.262 201.564C247.262 201.443 247.262 201.322 247.262 201.201L246.398 200.709C245.051 199.984 243.323 199.027 241.428 198.024Z" fill="#263238"/>
<path d="M237.044 206.794C234.758 205.168 232.677 203.719 231.144 202.688L230.893 202.511C229.964 201.879 229.239 201.424 228.886 201.22L228.998 201.08C230.055 199.66 230.97 198.138 231.729 196.537C232.13 195.687 232.484 194.816 232.788 193.927C233.414 192.12 233.841 190.251 234.061 188.352C234.145 187.6 234.201 186.847 234.219 186.076C234.219 185.816 234.219 185.556 234.219 185.286C234.233 182.907 233.92 180.538 233.29 178.244C232.709 176.164 231.872 174.163 230.8 172.289L230.438 171.657C230.417 171.26 230.494 170.865 230.661 170.505C231.153 169.316 232.881 168.47 234.581 167.392C236.282 166.315 237.898 165.432 239.041 164.763C239.699 164.445 240.321 164.058 240.899 163.611C240.899 163.611 240.797 163.611 240.648 163.676C240.332 163.788 239.719 164.057 238.911 164.456C237.712 165.051 236.124 165.924 234.358 166.984C233.485 167.513 232.668 168.024 231.934 168.544C231.457 168.871 231.041 169.28 230.707 169.752C230.569 169.944 230.457 170.153 230.373 170.375C230.263 170.653 230.207 170.949 230.206 171.248C230.057 171.016 229.918 170.783 229.76 170.56C228.187 168.224 226.252 166.154 224.027 164.429L223.498 164.02C223.58 163.597 223.807 163.216 224.139 162.942C225.198 161.864 226.638 160.341 228.208 158.631C229.778 156.922 231.172 155.37 232.166 154.227C232.741 153.638 233.257 152.994 233.708 152.304C233.053 152.804 232.452 153.37 231.915 153.995C230.856 155.082 229.416 156.606 227.846 158.306C226.917 159.291 226.099 160.22 225.356 161.093C224.808 161.706 224.306 162.273 223.888 162.756C223.636 163.025 223.441 163.341 223.312 163.685C223.285 163.757 223.266 163.832 223.256 163.908L223.182 163.853C221.376 162.557 219.412 161.499 217.338 160.703C216.864 160.517 216.409 160.35 215.907 160.192C214.039 159.594 212.11 159.207 210.156 159.04C209.534 158.984 208.902 158.956 208.298 158.938C208.4 157.739 208.484 155.398 208.53 152.694C208.586 149.842 208.53 147.389 208.53 146.256C208.538 146.104 208.538 145.952 208.53 145.801L208.437 145.698C208.317 146.265 208.177 149.173 208.112 152.685C208.112 153.029 208.112 153.363 208.112 153.689C208.112 155.955 208.112 157.888 208.112 158.938H207.759C205.565 158.95 203.38 159.234 201.256 159.783H201.172C201.224 159.539 201.249 159.29 201.246 159.04C201.246 158.836 201.246 158.613 201.246 158.352C201.246 157.86 201.191 157.284 201.107 156.671C201.039 155.601 200.768 154.554 200.308 153.586C200.298 154.641 200.404 155.695 200.624 156.727C200.713 157.761 200.871 158.788 201.098 159.802C200.577 159.941 200.076 160.09 199.583 160.257L199.435 160.304C199.435 160.118 199.36 159.913 199.305 159.69C199.249 159.467 199.23 159.337 199.193 159.161C198.933 157.944 198.608 156.42 198.264 154.72C197.892 152.778 197.586 151.003 197.335 149.731C197.254 149.027 197.104 148.333 196.889 147.659C196.889 147.659 196.889 147.705 196.889 147.761C196.89 148.435 196.933 149.109 197.019 149.777C197.158 151.069 197.409 152.862 197.79 154.813C198.171 156.764 198.608 158.529 198.97 159.774C199.035 160.006 199.091 160.211 199.156 160.406C197.479 160.991 195.866 161.748 194.343 162.663C193.897 162.93 193.461 163.208 193.033 163.5C193.033 163.351 191.175 161.01 188.815 158.074C187.264 156.123 185.926 154.404 185.155 153.428C184.755 152.936 184.504 152.667 184.467 152.694C184.743 153.313 185.095 153.893 185.517 154.422C186.223 155.454 187.245 156.838 188.434 158.334C189.243 159.347 190.014 160.276 190.692 161.056L191.621 162.059C192.047 162.583 192.53 163.056 193.061 163.472L192.736 163.704C190.907 164.994 189.25 166.512 187.803 168.219C187.375 167.587 186.799 166.761 186.149 165.859L184.95 164.206C184.555 163.572 184.08 162.991 183.538 162.478C184.109 163.791 184.853 165.022 185.749 166.138C186.4 167.067 187.013 167.829 187.505 168.414L187.57 168.489C187.217 168.907 186.892 169.343 186.567 169.789L186.186 169.501C185.062 168.665 183.538 167.485 181.912 166.11C180.286 164.735 178.884 163.416 177.871 162.45C177.363 161.886 176.8 161.376 176.189 160.926C176.577 161.543 177.039 162.111 177.564 162.617L177.629 162.691C180.131 165.372 182.937 167.751 185.991 169.78L186.39 170.04C185.283 171.584 184.349 173.245 183.603 174.992C183.102 174.667 182.423 174.249 181.634 173.775L180.129 172.846C178.653 171.917 177.099 171.121 175.483 170.468C176.85 171.538 178.319 172.471 179.868 173.255C181.318 174.091 182.656 174.797 183.473 175.215C183.25 175.754 183.055 176.293 182.869 176.841C182.83 176.883 182.787 176.92 182.739 176.952C182.427 177.1 182.079 177.158 181.736 177.12C180.053 176.831 178.398 176.393 176.793 175.81C176.384 175.667 175.976 175.519 175.567 175.364C174.09 174.788 172.78 174.193 171.562 173.645L169.639 172.716C168.85 172.286 168.022 171.928 167.168 171.647C167.168 171.647 167.252 171.731 167.4 171.824C167.744 172.056 168.469 172.474 169.491 173.023C171.397 174.073 173.368 175.004 175.39 175.81C177.189 176.519 179.057 177.036 180.965 177.352L181.736 177.463C182.09 177.475 182.441 177.398 182.758 177.241C182.693 177.454 182.628 177.659 182.572 177.872C182.002 179.836 181.662 181.86 181.559 183.902C181.559 184.329 181.559 184.766 181.559 185.203C181.559 185.639 181.559 185.825 181.559 186.132C181.638 188.295 181.978 190.442 182.572 192.524C182.711 193.016 182.869 193.499 183.037 193.982C183.779 196.088 184.784 198.092 186.028 199.947C186.316 200.365 186.613 200.774 186.911 201.173C188.255 202.949 189.815 204.55 191.556 205.94L191.166 206.19C190.636 206.543 189.921 207.064 189.141 207.668C188.167 208.317 187.291 209.102 186.539 210C187.587 209.479 188.561 208.823 189.438 208.049C190.243 207.44 191.015 206.788 191.751 206.097C192.327 206.534 192.913 206.952 193.516 207.352C192.913 207.909 191.166 209.823 189.075 212.062C187.152 214.134 185.48 215.871 184.83 216.642C184.616 216.893 184.504 217.042 184.532 217.07C185.093 216.713 185.605 216.285 186.056 215.797C186.985 214.952 188.146 213.762 189.429 212.397C190.711 211.031 191.668 209.907 192.429 208.978C192.485 208.922 192.541 208.848 192.587 208.792C193.098 208.169 193.461 207.686 193.628 207.426H193.721C195.246 208.405 196.868 209.224 198.561 209.87C198.668 210.04 198.765 210.217 198.849 210.399C199.105 210.985 199.234 211.618 199.23 212.257C199.208 213.217 199 214.164 198.617 215.044C198.199 216.057 197.642 217.172 197.075 218.324C195.923 220.637 194.78 222.681 193.944 224.149C193.414 225.078 193.015 225.757 192.792 226.165H192.959C193.238 225.785 193.684 225.153 194.232 224.307C195.425 222.441 196.517 220.512 197.502 218.528C198.078 217.358 198.617 216.252 199.026 215.184C199.335 214.416 199.52 213.604 199.574 212.778C199.588 212.583 199.588 212.387 199.574 212.192C199.545 211.565 199.377 210.953 199.082 210.399C199.047 210.342 199.016 210.283 198.989 210.223C198.905 210.102 198.831 210.009 198.766 209.925C201.408 210.903 204.191 211.445 207.007 211.533C207.304 211.533 207.611 211.533 207.936 211.533H208.493C208.95 211.865 209.281 212.344 209.431 212.889C209.712 213.792 209.753 214.752 209.552 215.676L209.051 219.262C208.716 221.808 208.437 224.112 208.261 225.766C208.112 226.665 208.05 227.577 208.075 228.488C208.328 227.613 208.502 226.718 208.595 225.812C208.688 225.255 208.79 224.614 208.893 223.954C209.088 222.598 209.311 221.028 209.534 219.309C209.692 218.045 209.85 216.838 209.989 215.713C210.168 214.765 210.104 213.787 209.803 212.87C209.803 212.815 209.803 212.759 209.738 212.703C209.527 212.282 209.206 211.926 208.809 211.672H209.348C213.652 211.416 217.828 210.108 221.509 207.863C222.011 207.556 222.504 207.222 222.987 206.887C224.729 205.655 226.317 204.217 227.716 202.604C228.087 202.186 228.44 201.749 228.784 201.303C229.109 201.601 229.862 202.177 230.912 202.967C232.38 204.063 234.442 205.568 236.728 207.194C238.502 208.457 240.156 209.609 241.512 210.548L242.627 211.31L243.12 211.635L243.38 211.449L242.878 211.031C241.382 209.925 239.329 208.429 237.044 206.794ZM207.815 208.448C203.234 208.448 198.756 207.09 194.947 204.545C191.138 202 188.169 198.382 186.416 194.15C184.663 189.918 184.204 185.261 185.098 180.768C185.992 176.275 188.198 172.148 191.437 168.908C194.676 165.669 198.803 163.463 203.296 162.57C207.789 161.676 212.446 162.135 216.679 163.888C220.911 165.641 224.528 168.609 227.073 172.418C229.618 176.227 230.977 180.705 230.977 185.286C230.977 191.429 228.536 197.32 224.193 201.664C219.849 206.008 213.958 208.448 207.815 208.448Z" fill="#263238"/>
<path d="M233.828 213.65C233.128 212.498 232.362 211.388 231.534 210.324C230.834 209.173 230.065 208.065 229.229 207.008C229.653 208.307 230.297 209.523 231.134 210.603C231.844 211.771 232.756 212.803 233.828 213.65Z" fill="#263238"/>
<path d="M228.328 214.533L228.272 214.422L226.358 211.161C225.881 210.212 225.253 209.346 224.5 208.596C224.453 208.556 224.403 208.519 224.352 208.485C224.081 208.281 223.763 208.152 223.427 208.11C223.091 208.067 222.75 208.113 222.438 208.243C221.964 208.503 221.908 208.838 221.927 208.829C221.945 208.819 222.085 208.578 222.521 208.42C222.828 208.315 223.158 208.297 223.474 208.368C223.79 208.438 224.081 208.594 224.315 208.819C224.978 209.581 225.532 210.431 225.959 211.346C226.544 212.368 227.176 213.474 227.817 214.626C229.155 216.949 230.4 219.039 231.32 220.544L231.691 221.139C231.691 221.009 231.775 220.879 231.821 220.749L231.617 220.368C230.799 218.89 229.647 216.809 228.328 214.533Z" fill="#263238"/>
<path d="M218.453 218.751L219.995 224.037C220.166 224.781 220.409 225.505 220.72 226.202C220.673 225.437 220.539 224.679 220.32 223.944C220.097 222.95 219.781 221.687 219.391 220.284C219.242 219.745 219.085 219.187 218.917 218.611C218.304 216.549 217.691 214.691 217.208 213.362C216.998 212.627 216.702 211.919 216.325 211.253C216.325 211.253 216.325 211.439 216.409 211.746C216.492 212.052 216.669 212.675 216.883 213.474C217.338 214.988 217.867 216.781 218.453 218.751Z" fill="#263238"/>
<path d="M212.552 216.55C212.422 217.414 212.406 218.292 212.506 219.16C212.452 220.033 212.521 220.908 212.71 221.762C213.135 220.043 213.081 218.24 212.552 216.55Z" fill="#263238"/>
<path d="M186.019 201.08C185.796 200.662 185.48 200.671 185.489 200.69C185.499 200.709 185.722 200.792 185.842 201.155C185.921 201.364 185.921 201.595 185.842 201.805C185.734 202.082 185.547 202.321 185.303 202.492C184.133 203.273 182.386 204.351 180.537 205.531C179.738 206.051 178.976 206.543 178.27 207.017C177.341 207.63 176.496 208.206 175.808 208.671C175.143 209.081 174.52 209.557 173.95 210.092C174.676 209.788 175.367 209.408 176.013 208.959C177.258 208.206 178.958 207.101 180.816 205.939C182.674 204.778 184.356 203.663 185.545 202.753C185.778 202.563 185.957 202.317 186.065 202.037C186.091 201.987 186.109 201.934 186.121 201.879C186.183 201.609 186.147 201.326 186.019 201.08Z" fill="#263238"/>
<path d="M182.329 194.112C182.617 193.778 182.692 193.536 182.673 193.527C182.121 194.123 181.432 194.575 180.666 194.846C179.97 195.107 179.078 195.302 178.093 195.552L174.906 196.407C173.559 196.77 172.286 197.123 171.19 197.448L169.164 198.042C168.359 198.236 167.574 198.51 166.823 198.86C167.649 198.775 168.464 198.61 169.257 198.368C170.744 198.015 172.797 197.438 175.055 196.872L178.232 195.989C179.108 195.762 179.97 195.486 180.815 195.162C181.086 195.044 181.347 194.904 181.595 194.744C181.869 194.57 182.116 194.357 182.329 194.112Z" fill="#263238"/>
<path d="M180.778 185.861C179.999 185.76 179.213 185.728 178.428 185.769C176.988 185.769 174.99 185.769 172.788 185.703C170.586 185.638 168.598 185.583 167.149 185.527C166.37 185.454 165.586 185.454 164.808 185.527C165.044 185.626 165.295 185.683 165.551 185.694C165.941 185.75 166.48 185.815 167.13 185.88C168.57 186.019 170.568 186.149 172.779 186.196C173.541 186.196 174.256 186.196 174.953 186.196C176.282 186.196 177.489 186.196 178.437 186.103C179.224 186.114 180.01 186.033 180.778 185.861Z" fill="#263238"/>
<path d="M177.722 184.691C178.748 184.949 179.806 185.052 180.862 184.998C178.869 184.314 176.782 183.944 174.675 183.902C175.645 184.317 176.672 184.584 177.722 184.691Z" fill="#263238"/>
<path d="M193.953 162.774C193.604 161.708 193.153 160.678 192.606 159.699C192.2 158.653 191.696 157.648 191.101 156.698C191.561 158.919 192.539 161 193.953 162.774Z" fill="#263238"/>
<path d="M216.297 159.838C217.5 157.304 218.56 154.705 219.474 152.053C220.403 149.544 221.212 147.305 221.695 145.846L221.425 145.716C220.831 147.138 219.957 149.368 219.019 151.885C217.959 154.482 217.05 157.137 216.297 159.838Z" fill="#263238"/>
<path d="M221.351 155.629C222.297 154.566 223.089 153.374 223.702 152.09C222.697 153.087 221.783 154.172 220.97 155.332C220.034 156.395 219.195 157.539 218.462 158.751C219.563 157.848 220.536 156.797 221.351 155.629Z" fill="#263238"/>
<path d="M231.162 160.581C232.356 159.913 233.433 159.053 234.349 158.036C233.15 158.665 231.998 159.379 230.902 160.172C229.725 160.84 228.598 161.591 227.529 162.421C228.83 162.004 230.056 161.383 231.162 160.581Z" fill="#263238"/>
<path d="M237.424 168.702C236.51 169.019 235.665 169.507 234.935 170.142C235.872 169.938 236.776 169.603 237.62 169.148C238.526 168.839 239.384 168.401 240.165 167.847C239.205 167.953 238.275 168.243 237.424 168.702Z" fill="#263238"/>
<path d="M207.814 208.447C220.606 208.447 230.976 198.077 230.976 185.286C230.976 172.494 220.606 162.124 207.814 162.124C195.022 162.124 184.652 172.494 184.652 185.286C184.652 198.077 195.022 208.447 207.814 208.447Z" fill="#FAFAFA"/>
<path d="M218.722 233.523C218.781 233.704 218.819 233.891 218.834 234.081C218.889 234.508 218.964 235.01 219.056 235.697C219.242 237.174 219.493 239.191 219.809 241.662C220.441 246.688 221.351 253.628 222.457 261.284C223.562 268.939 224.687 275.852 225.541 280.85C225.959 283.303 226.294 285.31 226.545 286.768C226.656 287.428 226.74 287.958 226.805 288.385C226.842 288.572 226.864 288.761 226.87 288.952C226.794 288.777 226.741 288.592 226.712 288.404C226.619 287.985 226.508 287.474 226.359 286.806C226.062 285.421 225.671 283.405 225.198 280.906C224.269 275.926 223.098 269.014 221.983 261.395C220.868 253.777 220.013 246.781 219.465 241.736C219.196 239.218 218.991 237.174 218.871 235.762C218.815 235.093 218.768 234.554 218.741 234.127C218.709 233.927 218.703 233.724 218.722 233.523Z" fill="#263238"/>
<path d="M205.297 228.682C205.427 228.682 206.532 247.58 207.768 270.909C209.004 294.238 209.905 313.144 209.765 313.154C209.626 313.163 208.52 294.256 207.285 270.927C206.049 247.598 205.157 228.682 205.297 228.682Z" fill="#263238"/>
<path d="M197.901 232.771C197.907 232.962 197.885 233.152 197.836 233.337C197.762 233.755 197.659 234.266 197.539 234.926C197.251 236.366 196.86 238.345 196.377 240.751C195.337 245.722 193.924 252.476 192.354 259.937C190.784 267.397 189.27 274.133 188.192 279.085C187.653 281.482 187.207 283.451 186.882 284.882C186.724 285.514 186.603 286.034 186.501 286.443C186.467 286.632 186.411 286.816 186.334 286.991C186.335 286.8 186.36 286.61 186.408 286.424C186.483 286.016 186.576 285.495 186.696 284.836C186.984 283.405 187.384 281.426 187.858 279.01C188.908 274.049 190.32 267.295 191.881 259.825C193.441 252.355 194.965 245.629 196.043 240.677C196.591 238.28 197.037 236.31 197.362 234.88C197.511 234.248 197.641 233.727 197.743 233.319C197.783 233.133 197.836 232.949 197.901 232.771Z" fill="#263238"/>
<path d="M209.607 172.279L212.868 178.875C212.948 179.037 213.066 179.177 213.211 179.284C213.357 179.391 213.526 179.461 213.704 179.488L220.988 180.538C221.185 180.574 221.368 180.663 221.519 180.794C221.67 180.926 221.783 181.095 221.846 181.285C221.909 181.475 221.919 181.679 221.876 181.874C221.833 182.07 221.738 182.25 221.601 182.396L216.333 187.525C216.205 187.651 216.108 187.806 216.053 187.978C215.998 188.15 215.986 188.332 216.018 188.51L217.253 195.766C217.29 195.97 217.268 196.18 217.191 196.372C217.113 196.565 216.983 196.732 216.816 196.854C216.648 196.976 216.45 197.048 216.243 197.063C216.036 197.077 215.829 197.034 215.646 196.936L209.142 193.508C208.981 193.426 208.803 193.383 208.622 193.383C208.441 193.383 208.263 193.426 208.102 193.508L201.598 196.936C201.415 197.034 201.208 197.077 201.002 197.063C200.795 197.048 200.596 196.976 200.429 196.854C200.261 196.732 200.131 196.565 200.054 196.372C199.976 196.18 199.955 195.97 199.991 195.766L201.236 188.51C201.266 188.331 201.252 188.149 201.195 187.977C201.138 187.805 201.041 187.65 200.911 187.525L195.643 182.396C195.506 182.249 195.412 182.068 195.369 181.872C195.327 181.676 195.338 181.472 195.401 181.282C195.465 181.092 195.579 180.922 195.731 180.791C195.883 180.66 196.068 180.573 196.265 180.538L203.54 179.488C203.719 179.461 203.888 179.391 204.033 179.284C204.179 179.177 204.296 179.037 204.376 178.875L207.637 172.279C207.73 172.097 207.871 171.945 208.045 171.838C208.219 171.732 208.418 171.676 208.622 171.676C208.826 171.676 209.026 171.732 209.2 171.838C209.373 171.945 209.514 172.097 209.607 172.279Z" fill="#EE5D4B"/>
<path d="M217.421 170.225L217.811 171.489C217.897 171.765 218.05 172.017 218.256 172.221C218.461 172.425 218.714 172.575 218.991 172.659L220.255 173.059L218.982 173.486C218.725 173.574 218.491 173.72 218.298 173.911C218.105 174.103 217.957 174.335 217.867 174.592L217.421 175.883L216.929 174.536C216.835 174.285 216.686 174.058 216.493 173.871C216.3 173.685 216.068 173.544 215.814 173.458L214.597 173.059L215.795 172.65C216.042 172.569 216.268 172.433 216.456 172.253C216.645 172.073 216.79 171.853 216.882 171.609L217.421 170.225Z" fill="#EE5D4B"/>
<g opacity="0.3">
<path d="M216.064 159.216C215.945 159.511 215.885 159.827 215.888 160.145C216.371 160.303 216.817 160.47 217.319 160.656C217.581 160.474 217.816 160.255 218.015 160.006L227.436 148.16C227.964 147.643 228.264 146.938 228.272 146.2C228.276 146.166 228.276 146.132 228.272 146.098C226.572 145.958 224.621 146.804 222.921 146.274C222.515 146.155 222.115 146.015 221.722 145.856C221.239 147.315 220.44 149.572 219.502 152.062C218.588 154.714 217.527 157.314 216.324 159.848C217.078 157.147 217.987 154.491 219.047 151.895C219.976 149.377 220.858 147.147 221.453 145.726C221.382 145.694 221.314 145.657 221.249 145.615L221.128 145.726C219.431 150.241 217.743 154.738 216.064 159.216ZM220.97 155.333C221.782 154.173 222.696 153.087 223.701 152.09C223.088 153.375 222.297 154.566 221.351 155.63C220.535 156.798 219.563 157.848 218.461 158.752C219.194 157.539 220.033 156.395 220.97 155.333Z" fill="black"/>
<path d="M227.827 158.306C229.397 156.606 230.837 155.082 231.896 153.995C232.433 153.37 233.034 152.804 233.689 152.304C233.238 152.994 232.722 153.638 232.147 154.228C231.153 155.37 229.75 156.931 228.189 158.631C226.628 160.332 225.179 161.865 224.12 162.942C223.787 163.216 223.561 163.597 223.479 164.02L224.008 164.429C229.443 161.214 235.687 157.145 240.527 153.559C240.099 153.139 239.581 152.821 239.013 152.63C237.452 152.091 235.529 152.109 233.986 151.505C231.329 154.293 228.133 157.693 225.365 161.038C226.08 160.22 226.925 159.291 227.827 158.306Z" fill="black"/>
<path d="M240.88 163.648C240.302 164.095 239.679 164.481 239.021 164.8C237.879 165.469 236.29 166.379 234.562 167.429C232.834 168.479 231.134 169.352 230.641 170.542C230.474 170.902 230.398 171.297 230.418 171.694L230.781 172.325C235.222 171.396 242.143 168.182 247.207 166.138C245.664 164.902 243.351 164.419 242.255 162.737L240.629 163.648C240.777 163.648 240.87 163.592 240.88 163.648ZM237.619 169.222C236.775 169.678 235.871 170.013 234.934 170.216C236.486 169.073 238.272 168.289 240.164 167.922C239.378 168.449 238.521 168.862 237.619 169.148V169.222Z" fill="black"/>
<path d="M245.098 174.062C243.946 174.527 242.31 175.14 240.554 175.8C238.799 176.459 237.145 177.017 235.965 177.398C235.343 177.656 234.69 177.834 234.023 177.927L233.252 178.271C233.506 179.189 233.71 180.119 233.865 181.058H234.562C239.291 180.938 246.965 180.473 252.642 180.129C252.361 179.464 251.992 178.839 251.545 178.271C250.533 176.998 249.278 175.828 248.832 174.267C248.699 173.767 248.63 173.252 248.628 172.734L246.231 173.524L245.098 174.062Z" fill="black"/>
<path d="M243.723 187.042L237.508 186.568C236.643 186.543 235.782 186.444 234.934 186.271C235.612 186.183 236.297 186.164 236.978 186.215C236.198 186.159 235.427 186.113 234.646 186.085H234.21C234.21 186.856 234.135 187.608 234.052 188.361C238.929 190.219 246.13 192.746 251.751 194.799C251.947 194.423 252.055 194.007 252.066 193.582C252.132 191.362 249.456 189.662 249.595 187.515C248.898 187.46 248.211 187.404 247.523 187.33L243.723 187.042Z" fill="black"/>
<path d="M236.067 195.617L233.503 194.307L232.778 193.954C232.476 194.834 232.125 195.696 231.729 196.537C236.021 199.826 241.66 205.605 246.436 209.786C247.037 209.456 247.545 208.98 247.913 208.401C249.065 206.376 247.495 203.914 247.272 201.591C245.832 200.876 243.649 199.733 241.214 198.442C239.217 197.373 237.414 196.379 236.067 195.617Z" fill="black"/>
<path d="M236.765 207.194C234.479 205.568 232.417 204.063 230.949 202.967C229.899 202.177 229.147 201.601 228.821 201.303C228.478 201.749 228.125 202.186 227.753 202.604C228.087 203.116 228.473 203.593 228.905 204.026C232.101 207.38 237.118 213.121 240.881 217.218C241.754 215.769 241.54 213.66 242.59 212.239C242.731 212.056 242.89 211.888 243.064 211.737L241.55 210.548C240.193 209.609 238.539 208.457 236.765 207.194Z" fill="black"/>
<path d="M227.855 214.663C227.186 213.511 226.554 212.405 225.997 211.383C225.569 210.468 225.016 209.617 224.352 208.856C224.119 208.631 223.828 208.475 223.512 208.405C223.195 208.334 222.866 208.352 222.559 208.457C222.122 208.615 222.002 208.903 221.964 208.865C221.927 208.828 221.964 208.54 222.475 208.28C222.788 208.14 223.133 208.085 223.474 208.12C223.815 208.156 224.14 208.282 224.417 208.484C223.998 207.922 223.542 207.388 223.051 206.886C222.568 207.221 222.076 207.555 221.574 207.862C222.643 213.288 225.439 221.231 228.078 227.577C228.452 227.646 228.836 227.638 229.206 227.554C229.577 227.469 229.926 227.309 230.233 227.085C231.887 225.821 231.209 223.164 231.775 221.176L231.404 220.581C230.438 219.076 229.193 216.986 227.855 214.663Z" fill="black"/>
<path d="M220.32 223.945C220.539 224.68 220.673 225.437 220.719 226.202C220.408 225.506 220.166 224.781 219.995 224.038L218.452 218.751C217.867 216.782 217.337 214.989 216.882 213.474C216.668 212.722 216.501 212.127 216.408 211.746L216.13 211.096C215.888 216.391 216.204 223.815 216.566 229.77C217.939 228.608 219.438 227.604 221.035 226.778C220.608 224.707 220.041 222.486 219.391 220.275C219.781 221.687 220.097 222.951 220.32 223.945Z" fill="black"/>
<path d="M208.549 225.821C208.455 226.727 208.281 227.622 208.028 228.497C208.004 227.586 208.066 226.674 208.214 225.775C208.391 224.103 208.67 221.798 209.004 219.271L209.506 215.685C209.707 214.761 209.665 213.801 209.385 212.898C209.178 212.414 208.824 212.007 208.372 211.737H207.815C207.508 211.737 207.202 211.737 206.886 211.737C206.847 211.762 206.813 211.794 206.783 211.829C206.261 212.447 205.883 213.174 205.678 213.957C204.061 218.742 202.445 225.877 200.828 231.024C202.742 230.625 203.978 228.293 205.957 228.163C206.851 228.166 207.714 228.496 208.381 229.092C208.539 227.512 208.679 225.766 208.827 223.991C208.744 224.623 208.642 225.264 208.549 225.821Z" fill="black"/>
<path d="M196.972 218.463C197.538 217.311 198.096 216.196 198.514 215.184C198.896 214.303 199.105 213.356 199.127 212.396C199.131 211.757 199.001 211.124 198.746 210.538C198.374 210.615 198.043 210.827 197.817 211.133C194.212 215.137 189.13 221.594 185.433 226.583C187.477 227.355 190.282 226.045 192.689 226.305C192.912 225.896 193.311 225.208 193.841 224.289C194.677 222.811 195.82 220.767 196.972 218.463Z" fill="black"/>
<path d="M184.727 216.726C185.377 215.955 187.049 214.217 188.972 212.146C191.063 209.906 192.81 207.993 193.413 207.435C192.81 207.036 192.224 206.618 191.648 206.181C190.912 206.872 190.14 207.523 189.335 208.132C188.458 208.906 187.484 209.562 186.436 210.083C187.188 209.186 188.064 208.4 189.037 207.751C189.818 207.147 190.533 206.627 191.063 206.274C189.937 206.749 188.881 207.374 187.923 208.132L176.913 216.382C178.827 216.717 180.992 216.8 182.19 218.24C182.371 218.459 182.524 218.699 182.645 218.956C183.249 218.231 183.965 217.534 184.727 216.726Z" fill="black"/>
<path d="M180.537 205.53C182.395 204.323 184.132 203.273 185.303 202.492C185.546 202.321 185.733 202.082 185.842 201.805C185.92 201.595 185.92 201.364 185.842 201.154C185.721 200.792 185.47 200.727 185.489 200.69C185.507 200.653 185.795 200.69 186.018 201.08C186.14 201.328 186.17 201.611 186.102 201.879C186.09 201.934 186.071 201.987 186.046 202.037C186.347 201.839 186.596 201.572 186.771 201.257C186.473 200.857 186.176 200.448 185.888 200.03C185.511 200.016 185.134 200.066 184.773 200.179C179.803 201.489 172.212 204.323 166.294 206.515C168.152 207.872 171.543 207.286 172.742 209.377C172.873 209.632 172.97 209.904 173.03 210.185C174.656 209.191 176.467 208.104 178.27 207.017C178.976 206.543 179.7 206.051 180.537 205.53Z" fill="black"/>
<path d="M174.907 196.406L178.093 195.552C179.078 195.301 179.952 195.106 180.667 194.846C181.433 194.574 182.121 194.122 182.674 193.526C182.674 193.526 182.618 193.777 182.33 194.112C182.111 194.358 181.858 194.57 181.577 194.743L181.977 194.604C182.327 194.505 182.646 194.32 182.906 194.065C182.739 193.582 182.581 193.136 182.441 192.607C182.045 192.452 181.622 192.377 181.196 192.384C175.052 192.167 168.908 191.987 162.764 191.845C163.618 193.294 165.551 193.935 166.313 195.431C166.756 196.386 166.832 197.471 166.526 198.478L171.172 197.447C172.268 197.094 173.559 196.769 174.907 196.406Z" fill="black"/>
<path d="M164.835 185.518C165.614 185.445 166.398 185.445 167.177 185.518C168.626 185.574 170.614 185.648 172.816 185.695C175.018 185.741 177.016 185.751 178.456 185.76C179.24 185.72 180.027 185.751 180.806 185.853C180.038 186.028 179.253 186.112 178.465 186.104C177.536 186.159 176.31 186.187 174.981 186.197C177.266 186.289 179.459 186.317 181.299 186.197H181.447C181.447 185.89 181.447 185.583 181.447 185.268C181.447 184.952 181.447 184.394 181.447 183.967L181.317 183.883C176.235 180.854 168.933 178.671 162.884 177.017C162.813 177.517 162.915 178.025 163.174 178.458C163.433 178.891 163.832 179.222 164.306 179.396L164.176 178.56C165.672 179.21 166.08 181.226 165.607 182.787C165.257 183.78 164.769 184.718 164.157 185.574L165.569 185.658C165.319 185.654 165.07 185.607 164.835 185.518ZM177.842 184.208C178.895 184.317 179.926 184.583 180.899 184.998C179.843 185.052 178.785 184.949 177.759 184.691C176.709 184.584 175.682 184.318 174.712 183.902C175.765 183.847 176.82 183.95 177.842 184.208Z" fill="black"/>
<path d="M167.055 171.768C167.91 172.048 168.737 172.406 169.527 172.836L171.45 173.765C173.159 174.499 174.943 175.242 176.681 175.93C178.286 176.513 179.94 176.951 181.623 177.24C181.967 177.279 182.314 177.221 182.627 177.073C182.674 177.041 182.718 177.003 182.757 176.961C182.943 176.413 183.138 175.874 183.361 175.335C182.506 174.917 181.205 174.211 179.756 173.375C178.207 172.591 176.738 171.658 175.371 170.588C176.986 171.242 178.541 172.038 180.016 172.966L181.521 173.895C176.805 170.524 171.908 167.413 166.851 164.577C166.554 166.323 167.223 168.553 166.684 170.365C166.557 170.749 166.386 171.117 166.173 171.461L167.288 171.935C167.139 171.851 167.046 171.777 167.055 171.768Z" fill="black"/>
<path d="M176.03 160.953C176.641 161.403 177.204 161.914 177.712 162.477C178.725 163.406 180.137 164.762 181.754 166.137C183.37 167.513 184.903 168.692 186.027 169.529L186.408 169.817C186.733 169.371 187.059 168.934 187.412 168.516L187.356 168.423C186.863 167.838 186.25 167.048 185.6 166.147C184.703 165.031 183.959 163.799 183.389 162.486C183.931 163 184.405 163.581 184.801 164.214C182.539 160.68 180.057 157.291 177.368 154.069C176.592 154.189 175.88 154.573 175.352 155.156C174.321 156.41 174.702 158.38 174.2 159.866C175.129 160.721 176.235 161.669 177.368 162.653C176.856 162.143 176.406 161.572 176.03 160.953Z" fill="black"/>
<path d="M188.703 158.074C191.026 161.009 192.968 163.351 192.921 163.499C193.349 163.208 193.785 162.93 194.231 162.663C194.231 162.598 194.185 162.542 194.157 162.487C192.41 158.027 189.242 151.041 187.124 145.94C186.786 146.092 186.457 146.262 186.139 146.451C184.587 147.38 184.076 149.396 183.24 151.041C183.779 151.747 184.392 152.574 185.043 153.465C185.693 154.357 187.133 156.095 188.703 158.074ZM191.1 156.726C191.695 157.677 192.199 158.682 192.605 159.727C193.153 160.707 193.604 161.736 193.952 162.803C192.538 161.029 191.561 158.948 191.1 156.726Z" fill="black"/>
<path d="M196.804 147.631C197.02 148.306 197.169 148.999 197.25 149.703C197.473 150.976 197.78 152.75 198.179 154.692C198.514 156.392 198.839 157.916 199.108 159.133C199.238 159.532 199.369 159.895 199.499 160.229C199.991 160.062 200.493 159.913 201.013 159.774C200.787 158.761 200.628 157.733 200.539 156.699C200.319 155.667 200.213 154.614 200.223 153.558C200.683 154.527 200.954 155.573 201.022 156.643C201.106 157.256 201.143 157.832 201.162 158.325C201.162 153.521 201.264 147.343 201.255 142.456C200.483 143.19 199.917 144.472 198.672 146.312C198.451 146.618 198.164 146.872 197.833 147.056C197.503 147.239 197.135 147.346 196.758 147.371L196.814 147.733C196.786 147.677 196.795 147.631 196.804 147.631Z" fill="black"/>
<path d="M208.502 152.639C208.455 155.342 208.372 157.683 208.27 158.882C208.901 158.882 209.533 158.882 210.128 158.984C211.128 157.416 211.821 155.673 212.172 153.846C212.989 150.585 214.113 145.345 215.024 141.518C214.448 141.555 213.887 141.717 213.379 141.991C211.949 142.781 210.211 146.237 209.31 146.256C209.147 146.243 208.989 146.197 208.845 146.121C208.701 146.044 208.575 145.938 208.474 145.81V146.2C208.502 147.334 208.502 149.786 208.502 152.639Z" fill="black"/>
</g>
</svg>
